%TF.GenerationSoftware,KiCad,Pcbnew,5.1.6+dfsg1-1*%
%TF.CreationDate,2021-03-07T16:20:00-08:00*%
%TF.ProjectId,Arduino DC-DC Converter Control Board,41726475-696e-46f2-9044-432d44432043,0.1*%
%TF.SameCoordinates,Original*%
%TF.FileFunction,Copper,L1,Top*%
%TF.FilePolarity,Positive*%
%FSLAX46Y46*%
G04 Gerber Fmt 4.6, Leading zero omitted, Abs format (unit mm)*
G04 Created by KiCad (PCBNEW 5.1.6+dfsg1-1) date 2021-03-07 16:20:00*
%MOMM*%
%LPD*%
G01*
G04 APERTURE LIST*
%TA.AperFunction,ComponentPad*%
%ADD10O,1.700000X1.700000*%
%TD*%
%TA.AperFunction,ComponentPad*%
%ADD11R,1.700000X1.700000*%
%TD*%
%TA.AperFunction,SMDPad,CuDef*%
%ADD12R,1.800000X2.500000*%
%TD*%
%TA.AperFunction,ComponentPad*%
%ADD13C,1.600000*%
%TD*%
%TA.AperFunction,ComponentPad*%
%ADD14R,1.600000X1.600000*%
%TD*%
%TA.AperFunction,ComponentPad*%
%ADD15C,10.160000*%
%TD*%
%TA.AperFunction,ComponentPad*%
%ADD16O,1.600000X1.600000*%
%TD*%
%TA.AperFunction,ComponentPad*%
%ADD17R,2.000000X2.000000*%
%TD*%
%TA.AperFunction,ComponentPad*%
%ADD18C,2.000000*%
%TD*%
%TA.AperFunction,ComponentPad*%
%ADD19R,1.050000X1.500000*%
%TD*%
%TA.AperFunction,ComponentPad*%
%ADD20O,1.905000X2.000000*%
%TD*%
%TA.AperFunction,ComponentPad*%
%ADD21R,1.905000X2.000000*%
%TD*%
%TA.AperFunction,ViaPad*%
%ADD22C,0.800000*%
%TD*%
%TA.AperFunction,Conductor*%
%ADD23C,1.000000*%
%TD*%
%TA.AperFunction,Conductor*%
%ADD24C,0.250000*%
%TD*%
%TA.AperFunction,Conductor*%
%ADD25C,0.254000*%
%TD*%
G04 APERTURE END LIST*
D10*
%TO.P,J7,2*%
%TO.N,GND*%
X120421400Y-60325000D03*
D11*
%TO.P,J7,1*%
%TO.N,Net-(BP1-Pad1)*%
X120421400Y-57785000D03*
%TD*%
D12*
%TO.P,D1,2*%
%TO.N,GND*%
X73219200Y-45533400D03*
%TO.P,D1,1*%
%TO.N,Net-(D1-Pad1)*%
X73219200Y-49533400D03*
%TD*%
D13*
%TO.P,C3,2*%
%TO.N,GND*%
X120421400Y-48383200D03*
D14*
%TO.P,C3,1*%
%TO.N,Net-(BP1-Pad1)*%
X120421400Y-43383200D03*
%TD*%
D15*
%TO.P,V_OUT1,2*%
%TO.N,Net-(BP1-Pad1)*%
X133070600Y-38023800D03*
%TO.P,V_OUT1,1*%
%TO.N,GND*%
X133070600Y-57073800D03*
%TD*%
%TO.P,V_IN1,2*%
%TO.N,Net-(C1-Pad1)*%
X47142400Y-37846000D03*
%TO.P,V_IN1,1*%
%TO.N,GND*%
X47142400Y-56896000D03*
%TD*%
D16*
%TO.P,A1,16*%
%TO.N,N/C*%
X47440000Y-94240000D03*
%TO.P,A1,15*%
X47440000Y-79000000D03*
%TO.P,A1,30*%
%TO.N,Net-(A1-Pad30)*%
X83000000Y-94240000D03*
%TO.P,A1,14*%
%TO.N,N/C*%
X49980000Y-79000000D03*
%TO.P,A1,29*%
%TO.N,GND*%
X80460000Y-94240000D03*
%TO.P,A1,13*%
%TO.N,N/C*%
X52520000Y-79000000D03*
%TO.P,A1,28*%
X77920000Y-94240000D03*
%TO.P,A1,12*%
%TO.N,Net-(A1-Pad12)*%
X55060000Y-79000000D03*
%TO.P,A1,27*%
%TO.N,N/C*%
X75380000Y-94240000D03*
%TO.P,A1,11*%
X57600000Y-79000000D03*
%TO.P,A1,26*%
X72840000Y-94240000D03*
%TO.P,A1,10*%
X60140000Y-79000000D03*
%TO.P,A1,25*%
X70300000Y-94240000D03*
%TO.P,A1,9*%
X62680000Y-79000000D03*
%TO.P,A1,24*%
X67760000Y-94240000D03*
%TO.P,A1,8*%
X65220000Y-79000000D03*
%TO.P,A1,23*%
X65220000Y-94240000D03*
%TO.P,A1,7*%
X67760000Y-79000000D03*
%TO.P,A1,22*%
X62680000Y-94240000D03*
%TO.P,A1,6*%
X70300000Y-79000000D03*
%TO.P,A1,21*%
X60140000Y-94240000D03*
%TO.P,A1,5*%
X72840000Y-79000000D03*
%TO.P,A1,20*%
%TO.N,/A1*%
X57600000Y-94240000D03*
%TO.P,A1,4*%
%TO.N,GND*%
X75380000Y-79000000D03*
%TO.P,A1,19*%
%TO.N,/A0*%
X55060000Y-94240000D03*
%TO.P,A1,3*%
%TO.N,N/C*%
X77920000Y-79000000D03*
%TO.P,A1,18*%
X52520000Y-94240000D03*
%TO.P,A1,2*%
X80460000Y-79000000D03*
%TO.P,A1,17*%
%TO.N,Net-(A1-Pad17)*%
X49980000Y-94240000D03*
D14*
%TO.P,A1,1*%
%TO.N,N/C*%
X83000000Y-79000000D03*
%TD*%
D17*
%TO.P,C1,1*%
%TO.N,Net-(C1-Pad1)*%
X61752600Y-43000000D03*
D18*
%TO.P,C1,2*%
%TO.N,GND*%
X69252600Y-43000000D03*
%TD*%
%TO.P,TP9,1*%
%TO.N,Net-(BP1-Pad1)*%
X122000000Y-35000000D03*
%TD*%
%TO.P,TP8,1*%
%TO.N,/A0*%
X85000000Y-68000000D03*
%TD*%
%TO.P,TP7,1*%
%TO.N,/A1*%
X95000000Y-68000000D03*
%TD*%
%TO.P,GND2,1*%
%TO.N,GND*%
X133000000Y-89000000D03*
%TD*%
%TO.P,TP5,1*%
%TO.N,Net-(D1-Pad1)*%
X73000000Y-37000000D03*
%TD*%
%TO.P,GND1,1*%
%TO.N,GND*%
X110000000Y-89000000D03*
%TD*%
%TO.P,TP3,1*%
%TO.N,Net-(A1-Pad12)*%
X64000000Y-73000000D03*
%TD*%
%TO.P,TP2,1*%
%TO.N,Net-(Q1-Pad1)*%
X66000000Y-61000000D03*
%TD*%
%TO.P,TP1,1*%
%TO.N,Net-(C1-Pad1)*%
X58752600Y-36000000D03*
%TD*%
D16*
%TO.P,R2,2*%
%TO.N,Net-(A1-Pad12)*%
X59000000Y-73620000D03*
D13*
%TO.P,R2,1*%
%TO.N,Net-(Q2-Pad2)*%
X59000000Y-66000000D03*
%TD*%
D10*
%TO.P,J5,3*%
%TO.N,Net-(A1-Pad17)*%
X70080000Y-66000000D03*
%TO.P,J5,2*%
%TO.N,Net-(J5-Pad2)*%
X67540000Y-66000000D03*
D11*
%TO.P,J5,1*%
%TO.N,GND*%
X65000000Y-66000000D03*
%TD*%
D13*
%TO.P,C2,1*%
%TO.N,Net-(C1-Pad1)*%
X64752600Y-36000000D03*
%TO.P,C2,2*%
%TO.N,GND*%
X69752600Y-36000000D03*
%TD*%
D16*
%TO.P,R7,2*%
%TO.N,GND*%
X113857000Y-44303800D03*
D13*
%TO.P,R7,1*%
%TO.N,/A0*%
X113857000Y-51923800D03*
%TD*%
D16*
%TO.P,R6,2*%
%TO.N,/A0*%
X113857000Y-55303800D03*
D13*
%TO.P,R6,1*%
%TO.N,Net-(BP1-Pad1)*%
X113857000Y-62923800D03*
%TD*%
D16*
%TO.P,R5,2*%
%TO.N,Net-(BP1-Pad2)*%
X108229400Y-35966400D03*
D13*
%TO.P,R5,1*%
%TO.N,Net-(BP1-Pad1)*%
X115849400Y-35966400D03*
%TD*%
D16*
%TO.P,R4,2*%
%TO.N,GND*%
X108857000Y-62543800D03*
D13*
%TO.P,R4,1*%
%TO.N,/A1*%
X108857000Y-54923800D03*
%TD*%
D16*
%TO.P,R3,2*%
%TO.N,/A1*%
X108857000Y-51543800D03*
D13*
%TO.P,R3,1*%
%TO.N,Net-(BP1-Pad2)*%
X108857000Y-43923800D03*
%TD*%
D16*
%TO.P,R1,2*%
%TO.N,Net-(Q1-Pad1)*%
X57752600Y-50620000D03*
D13*
%TO.P,R1,1*%
%TO.N,Net-(C1-Pad1)*%
X57752600Y-43000000D03*
%TD*%
D19*
%TO.P,Q2,1*%
%TO.N,Net-(J5-Pad2)*%
X59000000Y-61000000D03*
%TO.P,Q2,3*%
%TO.N,Net-(Q1-Pad1)*%
%TA.AperFunction,ComponentPad*%
G36*
G01*
X61015000Y-61487500D02*
X61015000Y-60512500D01*
G75*
G02*
X61277500Y-60250000I262500J0D01*
G01*
X61802500Y-60250000D01*
G75*
G02*
X62065000Y-60512500I0J-262500D01*
G01*
X62065000Y-61487500D01*
G75*
G02*
X61802500Y-61750000I-262500J0D01*
G01*
X61277500Y-61750000D01*
G75*
G02*
X61015000Y-61487500I0J262500D01*
G01*
G37*
%TD.AperFunction*%
%TO.P,Q2,2*%
%TO.N,Net-(Q2-Pad2)*%
%TA.AperFunction,ComponentPad*%
G36*
G01*
X59745000Y-61487500D02*
X59745000Y-60512500D01*
G75*
G02*
X60007500Y-60250000I262500J0D01*
G01*
X60532500Y-60250000D01*
G75*
G02*
X60795000Y-60512500I0J-262500D01*
G01*
X60795000Y-61487500D01*
G75*
G02*
X60532500Y-61750000I-262500J0D01*
G01*
X60007500Y-61750000D01*
G75*
G02*
X59745000Y-61487500I0J262500D01*
G01*
G37*
%TD.AperFunction*%
%TD*%
D20*
%TO.P,Q1,3*%
%TO.N,Net-(C1-Pad1)*%
X68080000Y-55000000D03*
%TO.P,Q1,2*%
%TO.N,Net-(D1-Pad1)*%
X65540000Y-55000000D03*
D21*
%TO.P,Q1,1*%
%TO.N,Net-(Q1-Pad1)*%
X63000000Y-55000000D03*
%TD*%
D13*
%TO.P,L1,2*%
%TO.N,Net-(BP1-Pad2)*%
X105300000Y-49000000D03*
%TO.P,L1,1*%
%TO.N,Net-(D1-Pad1)*%
X77000000Y-49000000D03*
%TD*%
D10*
%TO.P,BP1,2*%
%TO.N,Net-(BP1-Pad2)*%
X111317000Y-39923800D03*
D11*
%TO.P,BP1,1*%
%TO.N,Net-(BP1-Pad1)*%
X113857000Y-39923800D03*
%TD*%
D10*
%TO.P,J3,2*%
%TO.N,Net-(A1-Pad30)*%
X90000000Y-94540000D03*
D11*
%TO.P,J3,1*%
%TO.N,Net-(C1-Pad1)*%
X90000000Y-92000000D03*
%TD*%
D22*
%TO.N,GND*%
X75488800Y-68376800D03*
%TO.N,/A1*%
X94869000Y-89052400D03*
X105410000Y-67945000D03*
%TO.N,/A0*%
X85344000Y-88620600D03*
X111506000Y-65481200D03*
%TO.N,Net-(A1-Pad17)*%
X69189600Y-85445600D03*
%TO.N,Net-(D1-Pad1)*%
X65405000Y-49657000D03*
%TO.N,Net-(C1-Pad1)*%
X63373000Y-52501800D03*
X89890600Y-71678800D03*
X79578200Y-71577200D03*
%TD*%
D23*
%TO.N,Net-(A1-Pad30)*%
X89700000Y-94240000D02*
X90000000Y-94540000D01*
X83000000Y-94240000D02*
X89700000Y-94240000D01*
%TO.N,GND*%
X75112000Y-68000000D02*
X75488800Y-68376800D01*
X102909999Y-96090001D02*
X110000000Y-89000000D01*
X82310001Y-96090001D02*
X102909999Y-96090001D01*
X80460000Y-94240000D02*
X82310001Y-96090001D01*
X110000000Y-89000000D02*
X133000000Y-89000000D01*
X71786000Y-45533400D02*
X69252600Y-43000000D01*
X73219200Y-45533400D02*
X71786000Y-45533400D01*
X129819400Y-60325000D02*
X133070600Y-57073800D01*
X120421400Y-60325000D02*
X129819400Y-60325000D01*
X124380000Y-48383200D02*
X133070600Y-57073800D01*
X120421400Y-48383200D02*
X124380000Y-48383200D01*
X65000000Y-67875800D02*
X64875800Y-68000000D01*
X65000000Y-66000000D02*
X65000000Y-67875800D01*
X64875800Y-68000000D02*
X75112000Y-68000000D01*
%TO.N,Net-(A1-Pad12)*%
X59620000Y-73000000D02*
X59000000Y-73620000D01*
X64000000Y-73000000D02*
X59620000Y-73000000D01*
%TO.N,/A1*%
X61619200Y-90220800D02*
X57600000Y-94240000D01*
X88819198Y-90220800D02*
X61619200Y-90220800D01*
X89987598Y-89052400D02*
X88819198Y-90220800D01*
X94869000Y-89052400D02*
X89987598Y-89052400D01*
X95055000Y-67945000D02*
X95000000Y-68000000D01*
X105410000Y-67945000D02*
X95055000Y-67945000D01*
%TO.N,/A0*%
X55060000Y-94240000D02*
X60679400Y-88620600D01*
X60679400Y-88620600D02*
X85344000Y-88620600D01*
X87518800Y-65481200D02*
X85000000Y-68000000D01*
X111506000Y-65481200D02*
X87518800Y-65481200D01*
D24*
%TO.N,Net-(A1-Pad17)*%
X58774400Y-85445600D02*
X49980000Y-94240000D01*
X69189600Y-85445600D02*
X58774400Y-85445600D01*
D23*
%TO.N,Net-(D1-Pad1)*%
X73752600Y-49000000D02*
X73219200Y-49533400D01*
X77000000Y-49000000D02*
X73752600Y-49000000D01*
X73095600Y-49657000D02*
X73219200Y-49533400D01*
X65405000Y-49657000D02*
X73095600Y-49657000D01*
%TO.N,Net-(C1-Pad1)*%
X58752600Y-36000000D02*
X64752600Y-36000000D01*
X57752600Y-43000000D02*
X61752600Y-43000000D01*
X65581800Y-52501800D02*
X63373000Y-52501800D01*
X68080000Y-55000000D02*
X65581800Y-52501800D01*
X48988400Y-36000000D02*
X47142400Y-37846000D01*
X58752600Y-36000000D02*
X48988400Y-36000000D01*
X79679800Y-71678800D02*
X79578200Y-71577200D01*
X89890600Y-71678800D02*
X79679800Y-71678800D01*
%TO.N,Net-(Q1-Pad1)*%
X66000000Y-61000000D02*
X61540000Y-61000000D01*
X58620000Y-50620000D02*
X63000000Y-55000000D01*
X57752600Y-50620000D02*
X58620000Y-50620000D01*
%TO.N,Net-(J5-Pad2)*%
X67540000Y-65579998D02*
X67540000Y-66000000D01*
X64660003Y-62700001D02*
X67540000Y-65579998D01*
X59858805Y-62700001D02*
X64660003Y-62700001D01*
X59000000Y-61841196D02*
X59858805Y-62700001D01*
X59000000Y-61000000D02*
X59000000Y-61841196D01*
%TO.N,Net-(BP1-Pad2)*%
X111317000Y-39054000D02*
X108229400Y-35966400D01*
X111317000Y-39923800D02*
X111317000Y-39054000D01*
%TO.N,Net-(BP1-Pad1)*%
X113857000Y-37958800D02*
X115849400Y-35966400D01*
X113857000Y-39923800D02*
X113857000Y-37958800D01*
X121033600Y-35966400D02*
X122000000Y-35000000D01*
X115849400Y-35966400D02*
X121033600Y-35966400D01*
X130046800Y-35000000D02*
X133070600Y-38023800D01*
X122000000Y-35000000D02*
X130046800Y-35000000D01*
X117316400Y-43383200D02*
X113857000Y-39923800D01*
X120421400Y-43383200D02*
X117316400Y-43383200D01*
%TD*%
D25*
%TO.N,GND*%
G36*
X139340001Y-98340000D02*
G01*
X40660000Y-98340000D01*
X40660000Y-94098665D01*
X46005000Y-94098665D01*
X46005000Y-94381335D01*
X46060147Y-94658574D01*
X46168320Y-94919727D01*
X46325363Y-95154759D01*
X46525241Y-95354637D01*
X46760273Y-95511680D01*
X47021426Y-95619853D01*
X47298665Y-95675000D01*
X47581335Y-95675000D01*
X47858574Y-95619853D01*
X48119727Y-95511680D01*
X48354759Y-95354637D01*
X48554637Y-95154759D01*
X48710000Y-94922241D01*
X48865363Y-95154759D01*
X49065241Y-95354637D01*
X49300273Y-95511680D01*
X49561426Y-95619853D01*
X49838665Y-95675000D01*
X50121335Y-95675000D01*
X50398574Y-95619853D01*
X50659727Y-95511680D01*
X50894759Y-95354637D01*
X51094637Y-95154759D01*
X51250000Y-94922241D01*
X51405363Y-95154759D01*
X51605241Y-95354637D01*
X51840273Y-95511680D01*
X52101426Y-95619853D01*
X52378665Y-95675000D01*
X52661335Y-95675000D01*
X52938574Y-95619853D01*
X53199727Y-95511680D01*
X53434759Y-95354637D01*
X53634637Y-95154759D01*
X53790000Y-94922241D01*
X53945363Y-95154759D01*
X54145241Y-95354637D01*
X54380273Y-95511680D01*
X54641426Y-95619853D01*
X54918665Y-95675000D01*
X55201335Y-95675000D01*
X55478574Y-95619853D01*
X55739727Y-95511680D01*
X55974759Y-95354637D01*
X56174637Y-95154759D01*
X56330000Y-94922241D01*
X56485363Y-95154759D01*
X56685241Y-95354637D01*
X56920273Y-95511680D01*
X57181426Y-95619853D01*
X57458665Y-95675000D01*
X57741335Y-95675000D01*
X58018574Y-95619853D01*
X58279727Y-95511680D01*
X58514759Y-95354637D01*
X58714637Y-95154759D01*
X58870000Y-94922241D01*
X59025363Y-95154759D01*
X59225241Y-95354637D01*
X59460273Y-95511680D01*
X59721426Y-95619853D01*
X59998665Y-95675000D01*
X60281335Y-95675000D01*
X60558574Y-95619853D01*
X60819727Y-95511680D01*
X61054759Y-95354637D01*
X61254637Y-95154759D01*
X61410000Y-94922241D01*
X61565363Y-95154759D01*
X61765241Y-95354637D01*
X62000273Y-95511680D01*
X62261426Y-95619853D01*
X62538665Y-95675000D01*
X62821335Y-95675000D01*
X63098574Y-95619853D01*
X63359727Y-95511680D01*
X63594759Y-95354637D01*
X63794637Y-95154759D01*
X63950000Y-94922241D01*
X64105363Y-95154759D01*
X64305241Y-95354637D01*
X64540273Y-95511680D01*
X64801426Y-95619853D01*
X65078665Y-95675000D01*
X65361335Y-95675000D01*
X65638574Y-95619853D01*
X65899727Y-95511680D01*
X66134759Y-95354637D01*
X66334637Y-95154759D01*
X66490000Y-94922241D01*
X66645363Y-95154759D01*
X66845241Y-95354637D01*
X67080273Y-95511680D01*
X67341426Y-95619853D01*
X67618665Y-95675000D01*
X67901335Y-95675000D01*
X68178574Y-95619853D01*
X68439727Y-95511680D01*
X68674759Y-95354637D01*
X68874637Y-95154759D01*
X69030000Y-94922241D01*
X69185363Y-95154759D01*
X69385241Y-95354637D01*
X69620273Y-95511680D01*
X69881426Y-95619853D01*
X70158665Y-95675000D01*
X70441335Y-95675000D01*
X70718574Y-95619853D01*
X70979727Y-95511680D01*
X71214759Y-95354637D01*
X71414637Y-95154759D01*
X71570000Y-94922241D01*
X71725363Y-95154759D01*
X71925241Y-95354637D01*
X72160273Y-95511680D01*
X72421426Y-95619853D01*
X72698665Y-95675000D01*
X72981335Y-95675000D01*
X73258574Y-95619853D01*
X73519727Y-95511680D01*
X73754759Y-95354637D01*
X73954637Y-95154759D01*
X74110000Y-94922241D01*
X74265363Y-95154759D01*
X74465241Y-95354637D01*
X74700273Y-95511680D01*
X74961426Y-95619853D01*
X75238665Y-95675000D01*
X75521335Y-95675000D01*
X75798574Y-95619853D01*
X76059727Y-95511680D01*
X76294759Y-95354637D01*
X76494637Y-95154759D01*
X76650000Y-94922241D01*
X76805363Y-95154759D01*
X77005241Y-95354637D01*
X77240273Y-95511680D01*
X77501426Y-95619853D01*
X77778665Y-95675000D01*
X78061335Y-95675000D01*
X78338574Y-95619853D01*
X78599727Y-95511680D01*
X78834759Y-95354637D01*
X79034637Y-95154759D01*
X79191680Y-94919727D01*
X79196067Y-94909135D01*
X79307615Y-95095131D01*
X79496586Y-95303519D01*
X79722580Y-95471037D01*
X79976913Y-95591246D01*
X80110961Y-95631904D01*
X80333000Y-95509915D01*
X80333000Y-94367000D01*
X80313000Y-94367000D01*
X80313000Y-94113000D01*
X80333000Y-94113000D01*
X80333000Y-92970085D01*
X80110961Y-92848096D01*
X79976913Y-92888754D01*
X79722580Y-93008963D01*
X79496586Y-93176481D01*
X79307615Y-93384869D01*
X79196067Y-93570865D01*
X79191680Y-93560273D01*
X79034637Y-93325241D01*
X78834759Y-93125363D01*
X78599727Y-92968320D01*
X78338574Y-92860147D01*
X78061335Y-92805000D01*
X77778665Y-92805000D01*
X77501426Y-92860147D01*
X77240273Y-92968320D01*
X77005241Y-93125363D01*
X76805363Y-93325241D01*
X76650000Y-93557759D01*
X76494637Y-93325241D01*
X76294759Y-93125363D01*
X76059727Y-92968320D01*
X75798574Y-92860147D01*
X75521335Y-92805000D01*
X75238665Y-92805000D01*
X74961426Y-92860147D01*
X74700273Y-92968320D01*
X74465241Y-93125363D01*
X74265363Y-93325241D01*
X74110000Y-93557759D01*
X73954637Y-93325241D01*
X73754759Y-93125363D01*
X73519727Y-92968320D01*
X73258574Y-92860147D01*
X72981335Y-92805000D01*
X72698665Y-92805000D01*
X72421426Y-92860147D01*
X72160273Y-92968320D01*
X71925241Y-93125363D01*
X71725363Y-93325241D01*
X71570000Y-93557759D01*
X71414637Y-93325241D01*
X71214759Y-93125363D01*
X70979727Y-92968320D01*
X70718574Y-92860147D01*
X70441335Y-92805000D01*
X70158665Y-92805000D01*
X69881426Y-92860147D01*
X69620273Y-92968320D01*
X69385241Y-93125363D01*
X69185363Y-93325241D01*
X69030000Y-93557759D01*
X68874637Y-93325241D01*
X68674759Y-93125363D01*
X68439727Y-92968320D01*
X68178574Y-92860147D01*
X67901335Y-92805000D01*
X67618665Y-92805000D01*
X67341426Y-92860147D01*
X67080273Y-92968320D01*
X66845241Y-93125363D01*
X66645363Y-93325241D01*
X66490000Y-93557759D01*
X66334637Y-93325241D01*
X66134759Y-93125363D01*
X65899727Y-92968320D01*
X65638574Y-92860147D01*
X65361335Y-92805000D01*
X65078665Y-92805000D01*
X64801426Y-92860147D01*
X64540273Y-92968320D01*
X64305241Y-93125363D01*
X64105363Y-93325241D01*
X63950000Y-93557759D01*
X63794637Y-93325241D01*
X63594759Y-93125363D01*
X63359727Y-92968320D01*
X63098574Y-92860147D01*
X62821335Y-92805000D01*
X62538665Y-92805000D01*
X62261426Y-92860147D01*
X62000273Y-92968320D01*
X61765241Y-93125363D01*
X61565363Y-93325241D01*
X61410000Y-93557759D01*
X61254637Y-93325241D01*
X61054759Y-93125363D01*
X60819727Y-92968320D01*
X60577249Y-92867882D01*
X62089332Y-91355800D01*
X88511928Y-91355800D01*
X88511928Y-92850000D01*
X88524188Y-92974482D01*
X88560498Y-93094180D01*
X88566282Y-93105000D01*
X83884284Y-93105000D01*
X83679727Y-92968320D01*
X83418574Y-92860147D01*
X83141335Y-92805000D01*
X82858665Y-92805000D01*
X82581426Y-92860147D01*
X82320273Y-92968320D01*
X82085241Y-93125363D01*
X81885363Y-93325241D01*
X81728320Y-93560273D01*
X81723933Y-93570865D01*
X81612385Y-93384869D01*
X81423414Y-93176481D01*
X81197420Y-93008963D01*
X80943087Y-92888754D01*
X80809039Y-92848096D01*
X80587000Y-92970085D01*
X80587000Y-94113000D01*
X80607000Y-94113000D01*
X80607000Y-94367000D01*
X80587000Y-94367000D01*
X80587000Y-95509915D01*
X80809039Y-95631904D01*
X80943087Y-95591246D01*
X81197420Y-95471037D01*
X81423414Y-95303519D01*
X81612385Y-95095131D01*
X81723933Y-94909135D01*
X81728320Y-94919727D01*
X81885363Y-95154759D01*
X82085241Y-95354637D01*
X82320273Y-95511680D01*
X82581426Y-95619853D01*
X82858665Y-95675000D01*
X83141335Y-95675000D01*
X83418574Y-95619853D01*
X83679727Y-95511680D01*
X83884284Y-95375000D01*
X88771935Y-95375000D01*
X88846525Y-95486632D01*
X89053368Y-95693475D01*
X89296589Y-95855990D01*
X89566842Y-95967932D01*
X89853740Y-96025000D01*
X90146260Y-96025000D01*
X90433158Y-95967932D01*
X90703411Y-95855990D01*
X90946632Y-95693475D01*
X91153475Y-95486632D01*
X91315990Y-95243411D01*
X91427932Y-94973158D01*
X91485000Y-94686260D01*
X91485000Y-94393740D01*
X91427932Y-94106842D01*
X91315990Y-93836589D01*
X91153475Y-93593368D01*
X91021620Y-93461513D01*
X91094180Y-93439502D01*
X91204494Y-93380537D01*
X91301185Y-93301185D01*
X91380537Y-93204494D01*
X91439502Y-93094180D01*
X91475812Y-92974482D01*
X91488072Y-92850000D01*
X91488072Y-91150000D01*
X91475812Y-91025518D01*
X91439502Y-90905820D01*
X91380537Y-90795506D01*
X91301185Y-90698815D01*
X91204494Y-90619463D01*
X91094180Y-90560498D01*
X90974482Y-90524188D01*
X90850000Y-90511928D01*
X90133201Y-90511928D01*
X90457730Y-90187400D01*
X94924752Y-90187400D01*
X95091499Y-90170977D01*
X95208736Y-90135413D01*
X109044192Y-90135413D01*
X109139956Y-90399814D01*
X109429571Y-90540704D01*
X109741108Y-90622384D01*
X110062595Y-90641718D01*
X110381675Y-90597961D01*
X110686088Y-90492795D01*
X110860044Y-90399814D01*
X110955808Y-90135413D01*
X132044192Y-90135413D01*
X132139956Y-90399814D01*
X132429571Y-90540704D01*
X132741108Y-90622384D01*
X133062595Y-90641718D01*
X133381675Y-90597961D01*
X133686088Y-90492795D01*
X133860044Y-90399814D01*
X133955808Y-90135413D01*
X133000000Y-89179605D01*
X132044192Y-90135413D01*
X110955808Y-90135413D01*
X110000000Y-89179605D01*
X109044192Y-90135413D01*
X95208736Y-90135413D01*
X95305447Y-90106076D01*
X95502623Y-90000684D01*
X95675449Y-89858849D01*
X95817284Y-89686023D01*
X95922676Y-89488847D01*
X95987577Y-89274899D01*
X96008486Y-89062595D01*
X108358282Y-89062595D01*
X108402039Y-89381675D01*
X108507205Y-89686088D01*
X108600186Y-89860044D01*
X108864587Y-89955808D01*
X109820395Y-89000000D01*
X110179605Y-89000000D01*
X111135413Y-89955808D01*
X111399814Y-89860044D01*
X111540704Y-89570429D01*
X111622384Y-89258892D01*
X111634189Y-89062595D01*
X131358282Y-89062595D01*
X131402039Y-89381675D01*
X131507205Y-89686088D01*
X131600186Y-89860044D01*
X131864587Y-89955808D01*
X132820395Y-89000000D01*
X133179605Y-89000000D01*
X134135413Y-89955808D01*
X134399814Y-89860044D01*
X134540704Y-89570429D01*
X134622384Y-89258892D01*
X134641718Y-88937405D01*
X134597961Y-88618325D01*
X134492795Y-88313912D01*
X134399814Y-88139956D01*
X134135413Y-88044192D01*
X133179605Y-89000000D01*
X132820395Y-89000000D01*
X131864587Y-88044192D01*
X131600186Y-88139956D01*
X131459296Y-88429571D01*
X131377616Y-88741108D01*
X131358282Y-89062595D01*
X111634189Y-89062595D01*
X111641718Y-88937405D01*
X111597961Y-88618325D01*
X111492795Y-88313912D01*
X111399814Y-88139956D01*
X111135413Y-88044192D01*
X110179605Y-89000000D01*
X109820395Y-89000000D01*
X108864587Y-88044192D01*
X108600186Y-88139956D01*
X108459296Y-88429571D01*
X108377616Y-88741108D01*
X108358282Y-89062595D01*
X96008486Y-89062595D01*
X96009491Y-89052400D01*
X95987577Y-88829901D01*
X95922676Y-88615953D01*
X95817284Y-88418777D01*
X95675449Y-88245951D01*
X95502623Y-88104116D01*
X95305447Y-87998724D01*
X95091499Y-87933823D01*
X94924752Y-87917400D01*
X90043349Y-87917400D01*
X89987597Y-87911909D01*
X89765098Y-87933823D01*
X89715303Y-87948929D01*
X89551151Y-87998724D01*
X89353975Y-88104116D01*
X89181149Y-88245951D01*
X89145606Y-88289260D01*
X88349067Y-89085800D01*
X86382307Y-89085800D01*
X86397676Y-89057047D01*
X86462577Y-88843099D01*
X86484491Y-88620600D01*
X86462577Y-88398101D01*
X86397676Y-88184153D01*
X86292284Y-87986977D01*
X86191841Y-87864587D01*
X109044192Y-87864587D01*
X110000000Y-88820395D01*
X110955808Y-87864587D01*
X132044192Y-87864587D01*
X133000000Y-88820395D01*
X133955808Y-87864587D01*
X133860044Y-87600186D01*
X133570429Y-87459296D01*
X133258892Y-87377616D01*
X132937405Y-87358282D01*
X132618325Y-87402039D01*
X132313912Y-87507205D01*
X132139956Y-87600186D01*
X132044192Y-87864587D01*
X110955808Y-87864587D01*
X110860044Y-87600186D01*
X110570429Y-87459296D01*
X110258892Y-87377616D01*
X109937405Y-87358282D01*
X109618325Y-87402039D01*
X109313912Y-87507205D01*
X109139956Y-87600186D01*
X109044192Y-87864587D01*
X86191841Y-87864587D01*
X86150449Y-87814151D01*
X85977623Y-87672316D01*
X85780447Y-87566924D01*
X85566499Y-87502023D01*
X85399752Y-87485600D01*
X60735152Y-87485600D01*
X60679400Y-87480109D01*
X60456901Y-87502023D01*
X60242953Y-87566924D01*
X60045777Y-87672316D01*
X59916256Y-87778611D01*
X59916254Y-87778613D01*
X59872951Y-87814151D01*
X59837413Y-87857454D01*
X54882718Y-92812150D01*
X54641426Y-92860147D01*
X54380273Y-92968320D01*
X54145241Y-93125363D01*
X53945363Y-93325241D01*
X53790000Y-93557759D01*
X53634637Y-93325241D01*
X53434759Y-93125363D01*
X53199727Y-92968320D01*
X52938574Y-92860147D01*
X52661335Y-92805000D01*
X52489801Y-92805000D01*
X59089202Y-86205600D01*
X68485889Y-86205600D01*
X68529826Y-86249537D01*
X68699344Y-86362805D01*
X68887702Y-86440826D01*
X69087661Y-86480600D01*
X69291539Y-86480600D01*
X69491498Y-86440826D01*
X69679856Y-86362805D01*
X69849374Y-86249537D01*
X69993537Y-86105374D01*
X70106805Y-85935856D01*
X70184826Y-85747498D01*
X70224600Y-85547539D01*
X70224600Y-85343661D01*
X70184826Y-85143702D01*
X70106805Y-84955344D01*
X69993537Y-84785826D01*
X69849374Y-84641663D01*
X69679856Y-84528395D01*
X69491498Y-84450374D01*
X69291539Y-84410600D01*
X69087661Y-84410600D01*
X68887702Y-84450374D01*
X68699344Y-84528395D01*
X68529826Y-84641663D01*
X68485889Y-84685600D01*
X58811725Y-84685600D01*
X58774400Y-84681924D01*
X58737075Y-84685600D01*
X58737067Y-84685600D01*
X58625414Y-84696597D01*
X58482153Y-84740054D01*
X58350124Y-84810626D01*
X58234399Y-84905599D01*
X58210601Y-84934597D01*
X50303887Y-92841312D01*
X50121335Y-92805000D01*
X49838665Y-92805000D01*
X49561426Y-92860147D01*
X49300273Y-92968320D01*
X49065241Y-93125363D01*
X48865363Y-93325241D01*
X48710000Y-93557759D01*
X48554637Y-93325241D01*
X48354759Y-93125363D01*
X48119727Y-92968320D01*
X47858574Y-92860147D01*
X47581335Y-92805000D01*
X47298665Y-92805000D01*
X47021426Y-92860147D01*
X46760273Y-92968320D01*
X46525241Y-93125363D01*
X46325363Y-93325241D01*
X46168320Y-93560273D01*
X46060147Y-93821426D01*
X46005000Y-94098665D01*
X40660000Y-94098665D01*
X40660000Y-78858665D01*
X46005000Y-78858665D01*
X46005000Y-79141335D01*
X46060147Y-79418574D01*
X46168320Y-79679727D01*
X46325363Y-79914759D01*
X46525241Y-80114637D01*
X46760273Y-80271680D01*
X47021426Y-80379853D01*
X47298665Y-80435000D01*
X47581335Y-80435000D01*
X47858574Y-80379853D01*
X48119727Y-80271680D01*
X48354759Y-80114637D01*
X48554637Y-79914759D01*
X48710000Y-79682241D01*
X48865363Y-79914759D01*
X49065241Y-80114637D01*
X49300273Y-80271680D01*
X49561426Y-80379853D01*
X49838665Y-80435000D01*
X50121335Y-80435000D01*
X50398574Y-80379853D01*
X50659727Y-80271680D01*
X50894759Y-80114637D01*
X51094637Y-79914759D01*
X51250000Y-79682241D01*
X51405363Y-79914759D01*
X51605241Y-80114637D01*
X51840273Y-80271680D01*
X52101426Y-80379853D01*
X52378665Y-80435000D01*
X52661335Y-80435000D01*
X52938574Y-80379853D01*
X53199727Y-80271680D01*
X53434759Y-80114637D01*
X53634637Y-79914759D01*
X53790000Y-79682241D01*
X53945363Y-79914759D01*
X54145241Y-80114637D01*
X54380273Y-80271680D01*
X54641426Y-80379853D01*
X54918665Y-80435000D01*
X55201335Y-80435000D01*
X55478574Y-80379853D01*
X55739727Y-80271680D01*
X55974759Y-80114637D01*
X56174637Y-79914759D01*
X56330000Y-79682241D01*
X56485363Y-79914759D01*
X56685241Y-80114637D01*
X56920273Y-80271680D01*
X57181426Y-80379853D01*
X57458665Y-80435000D01*
X57741335Y-80435000D01*
X58018574Y-80379853D01*
X58279727Y-80271680D01*
X58514759Y-80114637D01*
X58714637Y-79914759D01*
X58870000Y-79682241D01*
X59025363Y-79914759D01*
X59225241Y-80114637D01*
X59460273Y-80271680D01*
X59721426Y-80379853D01*
X59998665Y-80435000D01*
X60281335Y-80435000D01*
X60558574Y-80379853D01*
X60819727Y-80271680D01*
X61054759Y-80114637D01*
X61254637Y-79914759D01*
X61410000Y-79682241D01*
X61565363Y-79914759D01*
X61765241Y-80114637D01*
X62000273Y-80271680D01*
X62261426Y-80379853D01*
X62538665Y-80435000D01*
X62821335Y-80435000D01*
X63098574Y-80379853D01*
X63359727Y-80271680D01*
X63594759Y-80114637D01*
X63794637Y-79914759D01*
X63950000Y-79682241D01*
X64105363Y-79914759D01*
X64305241Y-80114637D01*
X64540273Y-80271680D01*
X64801426Y-80379853D01*
X65078665Y-80435000D01*
X65361335Y-80435000D01*
X65638574Y-80379853D01*
X65899727Y-80271680D01*
X66134759Y-80114637D01*
X66334637Y-79914759D01*
X66490000Y-79682241D01*
X66645363Y-79914759D01*
X66845241Y-80114637D01*
X67080273Y-80271680D01*
X67341426Y-80379853D01*
X67618665Y-80435000D01*
X67901335Y-80435000D01*
X68178574Y-80379853D01*
X68439727Y-80271680D01*
X68674759Y-80114637D01*
X68874637Y-79914759D01*
X69030000Y-79682241D01*
X69185363Y-79914759D01*
X69385241Y-80114637D01*
X69620273Y-80271680D01*
X69881426Y-80379853D01*
X70158665Y-80435000D01*
X70441335Y-80435000D01*
X70718574Y-80379853D01*
X70979727Y-80271680D01*
X71214759Y-80114637D01*
X71414637Y-79914759D01*
X71570000Y-79682241D01*
X71725363Y-79914759D01*
X71925241Y-80114637D01*
X72160273Y-80271680D01*
X72421426Y-80379853D01*
X72698665Y-80435000D01*
X72981335Y-80435000D01*
X73258574Y-80379853D01*
X73519727Y-80271680D01*
X73754759Y-80114637D01*
X73954637Y-79914759D01*
X74111680Y-79679727D01*
X74116067Y-79669135D01*
X74227615Y-79855131D01*
X74416586Y-80063519D01*
X74642580Y-80231037D01*
X74896913Y-80351246D01*
X75030961Y-80391904D01*
X75253000Y-80269915D01*
X75253000Y-79127000D01*
X75233000Y-79127000D01*
X75233000Y-78873000D01*
X75253000Y-78873000D01*
X75253000Y-77730085D01*
X75507000Y-77730085D01*
X75507000Y-78873000D01*
X75527000Y-78873000D01*
X75527000Y-79127000D01*
X75507000Y-79127000D01*
X75507000Y-80269915D01*
X75729039Y-80391904D01*
X75863087Y-80351246D01*
X76117420Y-80231037D01*
X76343414Y-80063519D01*
X76532385Y-79855131D01*
X76643933Y-79669135D01*
X76648320Y-79679727D01*
X76805363Y-79914759D01*
X77005241Y-80114637D01*
X77240273Y-80271680D01*
X77501426Y-80379853D01*
X77778665Y-80435000D01*
X78061335Y-80435000D01*
X78338574Y-80379853D01*
X78599727Y-80271680D01*
X78834759Y-80114637D01*
X79034637Y-79914759D01*
X79190000Y-79682241D01*
X79345363Y-79914759D01*
X79545241Y-80114637D01*
X79780273Y-80271680D01*
X80041426Y-80379853D01*
X80318665Y-80435000D01*
X80601335Y-80435000D01*
X80878574Y-80379853D01*
X81139727Y-80271680D01*
X81374759Y-80114637D01*
X81573357Y-79916039D01*
X81574188Y-79924482D01*
X81610498Y-80044180D01*
X81669463Y-80154494D01*
X81748815Y-80251185D01*
X81845506Y-80330537D01*
X81955820Y-80389502D01*
X82075518Y-80425812D01*
X82200000Y-80438072D01*
X83800000Y-80438072D01*
X83924482Y-80425812D01*
X84044180Y-80389502D01*
X84154494Y-80330537D01*
X84251185Y-80251185D01*
X84330537Y-80154494D01*
X84389502Y-80044180D01*
X84425812Y-79924482D01*
X84438072Y-79800000D01*
X84438072Y-78200000D01*
X84425812Y-78075518D01*
X84389502Y-77955820D01*
X84330537Y-77845506D01*
X84251185Y-77748815D01*
X84154494Y-77669463D01*
X84044180Y-77610498D01*
X83924482Y-77574188D01*
X83800000Y-77561928D01*
X82200000Y-77561928D01*
X82075518Y-77574188D01*
X81955820Y-77610498D01*
X81845506Y-77669463D01*
X81748815Y-77748815D01*
X81669463Y-77845506D01*
X81610498Y-77955820D01*
X81574188Y-78075518D01*
X81573357Y-78083961D01*
X81374759Y-77885363D01*
X81139727Y-77728320D01*
X80878574Y-77620147D01*
X80601335Y-77565000D01*
X80318665Y-77565000D01*
X80041426Y-77620147D01*
X79780273Y-77728320D01*
X79545241Y-77885363D01*
X79345363Y-78085241D01*
X79190000Y-78317759D01*
X79034637Y-78085241D01*
X78834759Y-77885363D01*
X78599727Y-77728320D01*
X78338574Y-77620147D01*
X78061335Y-77565000D01*
X77778665Y-77565000D01*
X77501426Y-77620147D01*
X77240273Y-77728320D01*
X77005241Y-77885363D01*
X76805363Y-78085241D01*
X76648320Y-78320273D01*
X76643933Y-78330865D01*
X76532385Y-78144869D01*
X76343414Y-77936481D01*
X76117420Y-77768963D01*
X75863087Y-77648754D01*
X75729039Y-77608096D01*
X75507000Y-77730085D01*
X75253000Y-77730085D01*
X75030961Y-77608096D01*
X74896913Y-77648754D01*
X74642580Y-77768963D01*
X74416586Y-77936481D01*
X74227615Y-78144869D01*
X74116067Y-78330865D01*
X74111680Y-78320273D01*
X73954637Y-78085241D01*
X73754759Y-77885363D01*
X73519727Y-77728320D01*
X73258574Y-77620147D01*
X72981335Y-77565000D01*
X72698665Y-77565000D01*
X72421426Y-77620147D01*
X72160273Y-77728320D01*
X71925241Y-77885363D01*
X71725363Y-78085241D01*
X71570000Y-78317759D01*
X71414637Y-78085241D01*
X71214759Y-77885363D01*
X70979727Y-77728320D01*
X70718574Y-77620147D01*
X70441335Y-77565000D01*
X70158665Y-77565000D01*
X69881426Y-77620147D01*
X69620273Y-77728320D01*
X69385241Y-77885363D01*
X69185363Y-78085241D01*
X69030000Y-78317759D01*
X68874637Y-78085241D01*
X68674759Y-77885363D01*
X68439727Y-77728320D01*
X68178574Y-77620147D01*
X67901335Y-77565000D01*
X67618665Y-77565000D01*
X67341426Y-77620147D01*
X67080273Y-77728320D01*
X66845241Y-77885363D01*
X66645363Y-78085241D01*
X66490000Y-78317759D01*
X66334637Y-78085241D01*
X66134759Y-77885363D01*
X65899727Y-77728320D01*
X65638574Y-77620147D01*
X65361335Y-77565000D01*
X65078665Y-77565000D01*
X64801426Y-77620147D01*
X64540273Y-77728320D01*
X64305241Y-77885363D01*
X64105363Y-78085241D01*
X63950000Y-78317759D01*
X63794637Y-78085241D01*
X63594759Y-77885363D01*
X63359727Y-77728320D01*
X63098574Y-77620147D01*
X62821335Y-77565000D01*
X62538665Y-77565000D01*
X62261426Y-77620147D01*
X62000273Y-77728320D01*
X61765241Y-77885363D01*
X61565363Y-78085241D01*
X61410000Y-78317759D01*
X61254637Y-78085241D01*
X61054759Y-77885363D01*
X60819727Y-77728320D01*
X60558574Y-77620147D01*
X60281335Y-77565000D01*
X59998665Y-77565000D01*
X59721426Y-77620147D01*
X59460273Y-77728320D01*
X59225241Y-77885363D01*
X59025363Y-78085241D01*
X58870000Y-78317759D01*
X58714637Y-78085241D01*
X58514759Y-77885363D01*
X58279727Y-77728320D01*
X58018574Y-77620147D01*
X57741335Y-77565000D01*
X57458665Y-77565000D01*
X57181426Y-77620147D01*
X56920273Y-77728320D01*
X56685241Y-77885363D01*
X56485363Y-78085241D01*
X56330000Y-78317759D01*
X56174637Y-78085241D01*
X55974759Y-77885363D01*
X55739727Y-77728320D01*
X55478574Y-77620147D01*
X55201335Y-77565000D01*
X54918665Y-77565000D01*
X54641426Y-77620147D01*
X54380273Y-77728320D01*
X54145241Y-77885363D01*
X53945363Y-78085241D01*
X53790000Y-78317759D01*
X53634637Y-78085241D01*
X53434759Y-77885363D01*
X53199727Y-77728320D01*
X52938574Y-77620147D01*
X52661335Y-77565000D01*
X52378665Y-77565000D01*
X52101426Y-77620147D01*
X51840273Y-77728320D01*
X51605241Y-77885363D01*
X51405363Y-78085241D01*
X51250000Y-78317759D01*
X51094637Y-78085241D01*
X50894759Y-77885363D01*
X50659727Y-77728320D01*
X50398574Y-77620147D01*
X50121335Y-77565000D01*
X49838665Y-77565000D01*
X49561426Y-77620147D01*
X49300273Y-77728320D01*
X49065241Y-77885363D01*
X48865363Y-78085241D01*
X48710000Y-78317759D01*
X48554637Y-78085241D01*
X48354759Y-77885363D01*
X48119727Y-77728320D01*
X47858574Y-77620147D01*
X47581335Y-77565000D01*
X47298665Y-77565000D01*
X47021426Y-77620147D01*
X46760273Y-77728320D01*
X46525241Y-77885363D01*
X46325363Y-78085241D01*
X46168320Y-78320273D01*
X46060147Y-78581426D01*
X46005000Y-78858665D01*
X40660000Y-78858665D01*
X40660000Y-73478665D01*
X57565000Y-73478665D01*
X57565000Y-73761335D01*
X57620147Y-74038574D01*
X57728320Y-74299727D01*
X57885363Y-74534759D01*
X58085241Y-74734637D01*
X58320273Y-74891680D01*
X58581426Y-74999853D01*
X58858665Y-75055000D01*
X59141335Y-75055000D01*
X59418574Y-74999853D01*
X59679727Y-74891680D01*
X59914759Y-74734637D01*
X60114637Y-74534759D01*
X60271680Y-74299727D01*
X60339912Y-74135000D01*
X62822761Y-74135000D01*
X62957748Y-74269987D01*
X63225537Y-74448918D01*
X63523088Y-74572168D01*
X63838967Y-74635000D01*
X64161033Y-74635000D01*
X64476912Y-74572168D01*
X64774463Y-74448918D01*
X65042252Y-74269987D01*
X65269987Y-74042252D01*
X65448918Y-73774463D01*
X65572168Y-73476912D01*
X65635000Y-73161033D01*
X65635000Y-72838967D01*
X65572168Y-72523088D01*
X65448918Y-72225537D01*
X65269987Y-71957748D01*
X65042252Y-71730013D01*
X64813552Y-71577200D01*
X78437709Y-71577200D01*
X78459623Y-71799698D01*
X78524524Y-72013646D01*
X78629917Y-72210822D01*
X78736212Y-72340343D01*
X78837804Y-72441935D01*
X78873351Y-72485249D01*
X79046177Y-72627084D01*
X79243353Y-72732476D01*
X79457301Y-72797377D01*
X79624048Y-72813800D01*
X79679799Y-72819291D01*
X79735551Y-72813800D01*
X89946352Y-72813800D01*
X90113099Y-72797377D01*
X90327047Y-72732476D01*
X90524223Y-72627084D01*
X90697049Y-72485249D01*
X90838884Y-72312423D01*
X90944276Y-72115247D01*
X91009177Y-71901299D01*
X91031091Y-71678800D01*
X91009177Y-71456301D01*
X90944276Y-71242353D01*
X90838884Y-71045177D01*
X90697049Y-70872351D01*
X90524223Y-70730516D01*
X90327047Y-70625124D01*
X90113099Y-70560223D01*
X89946352Y-70543800D01*
X80052580Y-70543800D01*
X80014646Y-70523524D01*
X79800698Y-70458623D01*
X79578200Y-70436709D01*
X79355702Y-70458623D01*
X79141754Y-70523524D01*
X78944578Y-70628917D01*
X78771752Y-70770752D01*
X78629917Y-70943578D01*
X78524524Y-71140754D01*
X78459623Y-71354702D01*
X78437709Y-71577200D01*
X64813552Y-71577200D01*
X64774463Y-71551082D01*
X64476912Y-71427832D01*
X64161033Y-71365000D01*
X63838967Y-71365000D01*
X63523088Y-71427832D01*
X63225537Y-71551082D01*
X62957748Y-71730013D01*
X62822761Y-71865000D01*
X59675741Y-71865000D01*
X59619999Y-71859510D01*
X59564257Y-71865000D01*
X59564248Y-71865000D01*
X59397501Y-71881423D01*
X59183553Y-71946324D01*
X58986377Y-72051716D01*
X58813551Y-72193551D01*
X58813136Y-72194056D01*
X58581426Y-72240147D01*
X58320273Y-72348320D01*
X58085241Y-72505363D01*
X57885363Y-72705241D01*
X57728320Y-72940273D01*
X57620147Y-73201426D01*
X57565000Y-73478665D01*
X40660000Y-73478665D01*
X40660000Y-67838967D01*
X83365000Y-67838967D01*
X83365000Y-68161033D01*
X83427832Y-68476912D01*
X83551082Y-68774463D01*
X83730013Y-69042252D01*
X83957748Y-69269987D01*
X84225537Y-69448918D01*
X84523088Y-69572168D01*
X84838967Y-69635000D01*
X85161033Y-69635000D01*
X85476912Y-69572168D01*
X85774463Y-69448918D01*
X86042252Y-69269987D01*
X86269987Y-69042252D01*
X86448918Y-68774463D01*
X86572168Y-68476912D01*
X86635000Y-68161033D01*
X86635000Y-67970131D01*
X87988932Y-66616200D01*
X94128081Y-66616200D01*
X93957748Y-66730013D01*
X93730013Y-66957748D01*
X93551082Y-67225537D01*
X93427832Y-67523088D01*
X93365000Y-67838967D01*
X93365000Y-68161033D01*
X93427832Y-68476912D01*
X93551082Y-68774463D01*
X93730013Y-69042252D01*
X93957748Y-69269987D01*
X94225537Y-69448918D01*
X94523088Y-69572168D01*
X94838967Y-69635000D01*
X95161033Y-69635000D01*
X95476912Y-69572168D01*
X95774463Y-69448918D01*
X96042252Y-69269987D01*
X96232239Y-69080000D01*
X105465752Y-69080000D01*
X105632499Y-69063577D01*
X105846447Y-68998676D01*
X106043623Y-68893284D01*
X106216449Y-68751449D01*
X106358284Y-68578623D01*
X106463676Y-68381447D01*
X106528577Y-68167499D01*
X106550491Y-67945000D01*
X106528577Y-67722501D01*
X106463676Y-67508553D01*
X106358284Y-67311377D01*
X106216449Y-67138551D01*
X106043623Y-66996716D01*
X105846447Y-66891324D01*
X105632499Y-66826423D01*
X105465752Y-66810000D01*
X96122239Y-66810000D01*
X96042252Y-66730013D01*
X95871919Y-66616200D01*
X111561752Y-66616200D01*
X111728499Y-66599777D01*
X111942447Y-66534876D01*
X112139623Y-66429484D01*
X112312449Y-66287649D01*
X112454284Y-66114823D01*
X112559676Y-65917647D01*
X112624577Y-65703699D01*
X112646491Y-65481200D01*
X112624577Y-65258701D01*
X112559676Y-65044753D01*
X112454284Y-64847577D01*
X112312449Y-64674751D01*
X112139623Y-64532916D01*
X111942447Y-64427524D01*
X111728499Y-64362623D01*
X111561752Y-64346200D01*
X87574551Y-64346200D01*
X87518799Y-64340709D01*
X87296300Y-64362623D01*
X87246505Y-64377729D01*
X87082353Y-64427524D01*
X86885177Y-64532916D01*
X86712351Y-64674751D01*
X86676809Y-64718059D01*
X85029869Y-66365000D01*
X84838967Y-66365000D01*
X84523088Y-66427832D01*
X84225537Y-66551082D01*
X83957748Y-66730013D01*
X83730013Y-66957748D01*
X83551082Y-67225537D01*
X83427832Y-67523088D01*
X83365000Y-67838967D01*
X40660000Y-67838967D01*
X40660000Y-65858665D01*
X57565000Y-65858665D01*
X57565000Y-66141335D01*
X57620147Y-66418574D01*
X57728320Y-66679727D01*
X57885363Y-66914759D01*
X58085241Y-67114637D01*
X58320273Y-67271680D01*
X58581426Y-67379853D01*
X58858665Y-67435000D01*
X59141335Y-67435000D01*
X59418574Y-67379853D01*
X59679727Y-67271680D01*
X59914759Y-67114637D01*
X60114637Y-66914759D01*
X60157907Y-66850000D01*
X63511928Y-66850000D01*
X63524188Y-66974482D01*
X63560498Y-67094180D01*
X63619463Y-67204494D01*
X63698815Y-67301185D01*
X63795506Y-67380537D01*
X63905820Y-67439502D01*
X64025518Y-67475812D01*
X64150000Y-67488072D01*
X64714250Y-67485000D01*
X64873000Y-67326250D01*
X64873000Y-66127000D01*
X63673750Y-66127000D01*
X63515000Y-66285750D01*
X63511928Y-66850000D01*
X60157907Y-66850000D01*
X60271680Y-66679727D01*
X60379853Y-66418574D01*
X60435000Y-66141335D01*
X60435000Y-65858665D01*
X60379853Y-65581426D01*
X60271680Y-65320273D01*
X60114637Y-65085241D01*
X59914759Y-64885363D01*
X59679727Y-64728320D01*
X59418574Y-64620147D01*
X59141335Y-64565000D01*
X58858665Y-64565000D01*
X58581426Y-64620147D01*
X58320273Y-64728320D01*
X58085241Y-64885363D01*
X57885363Y-65085241D01*
X57728320Y-65320273D01*
X57620147Y-65581426D01*
X57565000Y-65858665D01*
X40660000Y-65858665D01*
X40660000Y-60933196D01*
X43284809Y-60933196D01*
X43870524Y-61615416D01*
X44854104Y-62163045D01*
X45925623Y-62508265D01*
X47043901Y-62637808D01*
X48165965Y-62546697D01*
X49248694Y-62238433D01*
X50250479Y-61724863D01*
X50414276Y-61615416D01*
X50999991Y-60933196D01*
X47142400Y-57075605D01*
X43284809Y-60933196D01*
X40660000Y-60933196D01*
X40660000Y-56797501D01*
X41400592Y-56797501D01*
X41491703Y-57919565D01*
X41799967Y-59002294D01*
X42313537Y-60004079D01*
X42422984Y-60167876D01*
X43105204Y-60753591D01*
X46962795Y-56896000D01*
X47322005Y-56896000D01*
X51179596Y-60753591D01*
X51766160Y-60250000D01*
X57836928Y-60250000D01*
X57836928Y-61750000D01*
X57849188Y-61874482D01*
X57869326Y-61940867D01*
X57881423Y-62063695D01*
X57946324Y-62277643D01*
X58051717Y-62474819D01*
X58193552Y-62647645D01*
X58236859Y-62683187D01*
X59016818Y-63463146D01*
X59052356Y-63506450D01*
X59095659Y-63541988D01*
X59095661Y-63541990D01*
X59225182Y-63648285D01*
X59422358Y-63753677D01*
X59636306Y-63818578D01*
X59858805Y-63840492D01*
X59914557Y-63835001D01*
X64189872Y-63835001D01*
X64872998Y-64518127D01*
X64872998Y-64673748D01*
X64714250Y-64515000D01*
X64150000Y-64511928D01*
X64025518Y-64524188D01*
X63905820Y-64560498D01*
X63795506Y-64619463D01*
X63698815Y-64698815D01*
X63619463Y-64795506D01*
X63560498Y-64905820D01*
X63524188Y-65025518D01*
X63511928Y-65150000D01*
X63515000Y-65714250D01*
X63673750Y-65873000D01*
X64873000Y-65873000D01*
X64873000Y-65853000D01*
X65127000Y-65853000D01*
X65127000Y-65873000D01*
X65147000Y-65873000D01*
X65147000Y-66127000D01*
X65127000Y-66127000D01*
X65127000Y-67326250D01*
X65285750Y-67485000D01*
X65850000Y-67488072D01*
X65974482Y-67475812D01*
X66094180Y-67439502D01*
X66204494Y-67380537D01*
X66301185Y-67301185D01*
X66380537Y-67204494D01*
X66439502Y-67094180D01*
X66461513Y-67021620D01*
X66593368Y-67153475D01*
X66836589Y-67315990D01*
X67106842Y-67427932D01*
X67393740Y-67485000D01*
X67686260Y-67485000D01*
X67973158Y-67427932D01*
X68243411Y-67315990D01*
X68486632Y-67153475D01*
X68693475Y-66946632D01*
X68810000Y-66772240D01*
X68926525Y-66946632D01*
X69133368Y-67153475D01*
X69376589Y-67315990D01*
X69646842Y-67427932D01*
X69933740Y-67485000D01*
X70226260Y-67485000D01*
X70513158Y-67427932D01*
X70783411Y-67315990D01*
X71026632Y-67153475D01*
X71233475Y-66946632D01*
X71395990Y-66703411D01*
X71507932Y-66433158D01*
X71565000Y-66146260D01*
X71565000Y-65853740D01*
X71507932Y-65566842D01*
X71395990Y-65296589D01*
X71233475Y-65053368D01*
X71026632Y-64846525D01*
X70783411Y-64684010D01*
X70513158Y-64572068D01*
X70226260Y-64515000D01*
X69933740Y-64515000D01*
X69646842Y-64572068D01*
X69376589Y-64684010D01*
X69133368Y-64846525D01*
X68926525Y-65053368D01*
X68810000Y-65227760D01*
X68693475Y-65053368D01*
X68486632Y-64846525D01*
X68260688Y-64695554D01*
X66457974Y-62892840D01*
X107465091Y-62892840D01*
X107559930Y-63157681D01*
X107704615Y-63398931D01*
X107893586Y-63607319D01*
X108119580Y-63774837D01*
X108373913Y-63895046D01*
X108507961Y-63935704D01*
X108730000Y-63813715D01*
X108730000Y-62670800D01*
X108984000Y-62670800D01*
X108984000Y-63813715D01*
X109206039Y-63935704D01*
X109340087Y-63895046D01*
X109594420Y-63774837D01*
X109820414Y-63607319D01*
X110009385Y-63398931D01*
X110154070Y-63157681D01*
X110248909Y-62892840D01*
X110188619Y-62782465D01*
X112422000Y-62782465D01*
X112422000Y-63065135D01*
X112477147Y-63342374D01*
X112585320Y-63603527D01*
X112742363Y-63838559D01*
X112942241Y-64038437D01*
X113177273Y-64195480D01*
X113438426Y-64303653D01*
X113715665Y-64358800D01*
X113998335Y-64358800D01*
X114275574Y-64303653D01*
X114536727Y-64195480D01*
X114771759Y-64038437D01*
X114971637Y-63838559D01*
X115128680Y-63603527D01*
X115236853Y-63342374D01*
X115292000Y-63065135D01*
X115292000Y-62782465D01*
X115236853Y-62505226D01*
X115128680Y-62244073D01*
X114971637Y-62009041D01*
X114771759Y-61809163D01*
X114536727Y-61652120D01*
X114275574Y-61543947D01*
X113998335Y-61488800D01*
X113715665Y-61488800D01*
X113438426Y-61543947D01*
X113177273Y-61652120D01*
X112942241Y-61809163D01*
X112742363Y-62009041D01*
X112585320Y-62244073D01*
X112477147Y-62505226D01*
X112422000Y-62782465D01*
X110188619Y-62782465D01*
X110127624Y-62670800D01*
X108984000Y-62670800D01*
X108730000Y-62670800D01*
X107586376Y-62670800D01*
X107465091Y-62892840D01*
X66457974Y-62892840D01*
X66193646Y-62628513D01*
X66476912Y-62572168D01*
X66774463Y-62448918D01*
X67042252Y-62269987D01*
X67117479Y-62194760D01*
X107465091Y-62194760D01*
X107586376Y-62416800D01*
X108730000Y-62416800D01*
X108730000Y-61273885D01*
X108984000Y-61273885D01*
X108984000Y-62416800D01*
X110127624Y-62416800D01*
X110248909Y-62194760D01*
X110154070Y-61929919D01*
X110009385Y-61688669D01*
X109820414Y-61480281D01*
X109594420Y-61312763D01*
X109340087Y-61192554D01*
X109206039Y-61151896D01*
X108984000Y-61273885D01*
X108730000Y-61273885D01*
X108507961Y-61151896D01*
X108373913Y-61192554D01*
X108119580Y-61312763D01*
X107893586Y-61480281D01*
X107704615Y-61688669D01*
X107559930Y-61929919D01*
X107465091Y-62194760D01*
X67117479Y-62194760D01*
X67269987Y-62042252D01*
X67448918Y-61774463D01*
X67572168Y-61476912D01*
X67635000Y-61161033D01*
X67635000Y-60838967D01*
X67603756Y-60681890D01*
X118979924Y-60681890D01*
X119024575Y-60829099D01*
X119149759Y-61091920D01*
X119323812Y-61325269D01*
X119540045Y-61520178D01*
X119790148Y-61669157D01*
X120064509Y-61766481D01*
X120294400Y-61645814D01*
X120294400Y-60452000D01*
X120548400Y-60452000D01*
X120548400Y-61645814D01*
X120778291Y-61766481D01*
X121052652Y-61669157D01*
X121302755Y-61520178D01*
X121518988Y-61325269D01*
X121678812Y-61110996D01*
X129213009Y-61110996D01*
X129798724Y-61793216D01*
X130782304Y-62340845D01*
X131853823Y-62686065D01*
X132972101Y-62815608D01*
X134094165Y-62724497D01*
X135176894Y-62416233D01*
X136178679Y-61902663D01*
X136342476Y-61793216D01*
X136928191Y-61110996D01*
X133070600Y-57253405D01*
X129213009Y-61110996D01*
X121678812Y-61110996D01*
X121693041Y-61091920D01*
X121818225Y-60829099D01*
X121862876Y-60681890D01*
X121741555Y-60452000D01*
X120548400Y-60452000D01*
X120294400Y-60452000D01*
X119101245Y-60452000D01*
X118979924Y-60681890D01*
X67603756Y-60681890D01*
X67572168Y-60523088D01*
X67448918Y-60225537D01*
X67269987Y-59957748D01*
X67042252Y-59730013D01*
X66774463Y-59551082D01*
X66476912Y-59427832D01*
X66161033Y-59365000D01*
X65838967Y-59365000D01*
X65523088Y-59427832D01*
X65225537Y-59551082D01*
X64957748Y-59730013D01*
X64822761Y-59865000D01*
X62426264Y-59865000D01*
X62302831Y-59763702D01*
X62147134Y-59680480D01*
X61978193Y-59629232D01*
X61802500Y-59611928D01*
X61277500Y-59611928D01*
X61101807Y-59629232D01*
X60932866Y-59680480D01*
X60905000Y-59695375D01*
X60877134Y-59680480D01*
X60708193Y-59629232D01*
X60532500Y-59611928D01*
X60007500Y-59611928D01*
X59831807Y-59629232D01*
X59748959Y-59654364D01*
X59649482Y-59624188D01*
X59525000Y-59611928D01*
X58475000Y-59611928D01*
X58350518Y-59624188D01*
X58230820Y-59660498D01*
X58120506Y-59719463D01*
X58023815Y-59798815D01*
X57944463Y-59895506D01*
X57885498Y-60005820D01*
X57849188Y-60125518D01*
X57836928Y-60250000D01*
X51766160Y-60250000D01*
X51861816Y-60167876D01*
X52409445Y-59184296D01*
X52754665Y-58112777D01*
X52884208Y-56994499D01*
X52879377Y-56935000D01*
X118933328Y-56935000D01*
X118933328Y-58635000D01*
X118945588Y-58759482D01*
X118981898Y-58879180D01*
X119040863Y-58989494D01*
X119120215Y-59086185D01*
X119216906Y-59165537D01*
X119327220Y-59224502D01*
X119407866Y-59248966D01*
X119323812Y-59324731D01*
X119149759Y-59558080D01*
X119024575Y-59820901D01*
X118979924Y-59968110D01*
X119101245Y-60198000D01*
X120294400Y-60198000D01*
X120294400Y-60178000D01*
X120548400Y-60178000D01*
X120548400Y-60198000D01*
X121741555Y-60198000D01*
X121862876Y-59968110D01*
X121818225Y-59820901D01*
X121693041Y-59558080D01*
X121518988Y-59324731D01*
X121434934Y-59248966D01*
X121515580Y-59224502D01*
X121625894Y-59165537D01*
X121722585Y-59086185D01*
X121801937Y-58989494D01*
X121860902Y-58879180D01*
X121897212Y-58759482D01*
X121909472Y-58635000D01*
X121909472Y-56975301D01*
X127328792Y-56975301D01*
X127419903Y-58097365D01*
X127728167Y-59180094D01*
X128241737Y-60181879D01*
X128351184Y-60345676D01*
X129033404Y-60931391D01*
X132890995Y-57073800D01*
X133250205Y-57073800D01*
X137107796Y-60931391D01*
X137790016Y-60345676D01*
X138337645Y-59362096D01*
X138682865Y-58290577D01*
X138812408Y-57172299D01*
X138721297Y-56050235D01*
X138413033Y-54967506D01*
X137899463Y-53965721D01*
X137790016Y-53801924D01*
X137107796Y-53216209D01*
X133250205Y-57073800D01*
X132890995Y-57073800D01*
X129033404Y-53216209D01*
X128351184Y-53801924D01*
X127803555Y-54785504D01*
X127458335Y-55857023D01*
X127328792Y-56975301D01*
X121909472Y-56975301D01*
X121909472Y-56935000D01*
X121897212Y-56810518D01*
X121860902Y-56690820D01*
X121801937Y-56580506D01*
X121722585Y-56483815D01*
X121625894Y-56404463D01*
X121515580Y-56345498D01*
X121395882Y-56309188D01*
X121271400Y-56296928D01*
X119571400Y-56296928D01*
X119446918Y-56309188D01*
X119327220Y-56345498D01*
X119216906Y-56404463D01*
X119120215Y-56483815D01*
X119040863Y-56580506D01*
X118981898Y-56690820D01*
X118945588Y-56810518D01*
X118933328Y-56935000D01*
X52879377Y-56935000D01*
X52793097Y-55872435D01*
X52484833Y-54789706D01*
X51971263Y-53787921D01*
X51861816Y-53624124D01*
X51179596Y-53038409D01*
X47322005Y-56896000D01*
X46962795Y-56896000D01*
X43105204Y-53038409D01*
X42422984Y-53624124D01*
X41875355Y-54607704D01*
X41530135Y-55679223D01*
X41400592Y-56797501D01*
X40660000Y-56797501D01*
X40660000Y-52858804D01*
X43284809Y-52858804D01*
X47142400Y-56716395D01*
X50999991Y-52858804D01*
X50414276Y-52176584D01*
X49430696Y-51628955D01*
X48359177Y-51283735D01*
X47240899Y-51154192D01*
X46118835Y-51245303D01*
X45036106Y-51553567D01*
X44034321Y-52067137D01*
X43870524Y-52176584D01*
X43284809Y-52858804D01*
X40660000Y-52858804D01*
X40660000Y-50478665D01*
X56317600Y-50478665D01*
X56317600Y-50761335D01*
X56372747Y-51038574D01*
X56480920Y-51299727D01*
X56637963Y-51534759D01*
X56837841Y-51734637D01*
X57072873Y-51891680D01*
X57334026Y-51999853D01*
X57611265Y-52055000D01*
X57893935Y-52055000D01*
X58171174Y-51999853D01*
X58329246Y-51934377D01*
X61409428Y-55014560D01*
X61409428Y-56000000D01*
X61421688Y-56124482D01*
X61457998Y-56244180D01*
X61516963Y-56354494D01*
X61596315Y-56451185D01*
X61693006Y-56530537D01*
X61803320Y-56589502D01*
X61923018Y-56625812D01*
X62047500Y-56638072D01*
X63952500Y-56638072D01*
X64076982Y-56625812D01*
X64196680Y-56589502D01*
X64306994Y-56530537D01*
X64403685Y-56451185D01*
X64483037Y-56354494D01*
X64527905Y-56270553D01*
X64653766Y-56373845D01*
X64929552Y-56521255D01*
X65228797Y-56612030D01*
X65540000Y-56642681D01*
X65851204Y-56612030D01*
X66150449Y-56521255D01*
X66426235Y-56373845D01*
X66667963Y-56175463D01*
X66810000Y-56002391D01*
X66952037Y-56175463D01*
X67193766Y-56373845D01*
X67469552Y-56521255D01*
X67768797Y-56612030D01*
X68080000Y-56642681D01*
X68391204Y-56612030D01*
X68690449Y-56521255D01*
X68966235Y-56373845D01*
X69207963Y-56175463D01*
X69406345Y-55933734D01*
X69553755Y-55657948D01*
X69644530Y-55358703D01*
X69667500Y-55125485D01*
X69667500Y-54874514D01*
X69658434Y-54782465D01*
X107422000Y-54782465D01*
X107422000Y-55065135D01*
X107477147Y-55342374D01*
X107585320Y-55603527D01*
X107742363Y-55838559D01*
X107942241Y-56038437D01*
X108177273Y-56195480D01*
X108438426Y-56303653D01*
X108715665Y-56358800D01*
X108998335Y-56358800D01*
X109275574Y-56303653D01*
X109536727Y-56195480D01*
X109771759Y-56038437D01*
X109971637Y-55838559D01*
X110128680Y-55603527D01*
X110236853Y-55342374D01*
X110272639Y-55162465D01*
X112422000Y-55162465D01*
X112422000Y-55445135D01*
X112477147Y-55722374D01*
X112585320Y-55983527D01*
X112742363Y-56218559D01*
X112942241Y-56418437D01*
X113177273Y-56575480D01*
X113438426Y-56683653D01*
X113715665Y-56738800D01*
X113998335Y-56738800D01*
X114275574Y-56683653D01*
X114536727Y-56575480D01*
X114771759Y-56418437D01*
X114971637Y-56218559D01*
X115128680Y-55983527D01*
X115236853Y-55722374D01*
X115292000Y-55445135D01*
X115292000Y-55162465D01*
X115236853Y-54885226D01*
X115128680Y-54624073D01*
X114971637Y-54389041D01*
X114771759Y-54189163D01*
X114536727Y-54032120D01*
X114275574Y-53923947D01*
X113998335Y-53868800D01*
X113715665Y-53868800D01*
X113438426Y-53923947D01*
X113177273Y-54032120D01*
X112942241Y-54189163D01*
X112742363Y-54389041D01*
X112585320Y-54624073D01*
X112477147Y-54885226D01*
X112422000Y-55162465D01*
X110272639Y-55162465D01*
X110292000Y-55065135D01*
X110292000Y-54782465D01*
X110236853Y-54505226D01*
X110128680Y-54244073D01*
X109971637Y-54009041D01*
X109771759Y-53809163D01*
X109536727Y-53652120D01*
X109275574Y-53543947D01*
X108998335Y-53488800D01*
X108715665Y-53488800D01*
X108438426Y-53543947D01*
X108177273Y-53652120D01*
X107942241Y-53809163D01*
X107742363Y-54009041D01*
X107585320Y-54244073D01*
X107477147Y-54505226D01*
X107422000Y-54782465D01*
X69658434Y-54782465D01*
X69644530Y-54641296D01*
X69553755Y-54342051D01*
X69406345Y-54066265D01*
X69207963Y-53824537D01*
X68966234Y-53626155D01*
X68690448Y-53478745D01*
X68391203Y-53387970D01*
X68080000Y-53357319D01*
X68045817Y-53360686D01*
X66423796Y-51738665D01*
X66388249Y-51695351D01*
X66215423Y-51553516D01*
X66018247Y-51448124D01*
X65804299Y-51383223D01*
X65637552Y-51366800D01*
X65637551Y-51366800D01*
X65581800Y-51361309D01*
X65526049Y-51366800D01*
X63317248Y-51366800D01*
X63150501Y-51383223D01*
X62936553Y-51448124D01*
X62739377Y-51553516D01*
X62566551Y-51695351D01*
X62424716Y-51868177D01*
X62319324Y-52065353D01*
X62254423Y-52279301D01*
X62232509Y-52501800D01*
X62246228Y-52641097D01*
X59461996Y-49856865D01*
X59426449Y-49813551D01*
X59253623Y-49671716D01*
X59226092Y-49657000D01*
X64264509Y-49657000D01*
X64286423Y-49879499D01*
X64351324Y-50093447D01*
X64456716Y-50290623D01*
X64598551Y-50463449D01*
X64771377Y-50605284D01*
X64968553Y-50710676D01*
X65182501Y-50775577D01*
X65349248Y-50792000D01*
X71681975Y-50792000D01*
X71693388Y-50907882D01*
X71729698Y-51027580D01*
X71788663Y-51137894D01*
X71868015Y-51234585D01*
X71964706Y-51313937D01*
X72075020Y-51372902D01*
X72194718Y-51409212D01*
X72319200Y-51421472D01*
X74119200Y-51421472D01*
X74243682Y-51409212D01*
X74265923Y-51402465D01*
X107422000Y-51402465D01*
X107422000Y-51685135D01*
X107477147Y-51962374D01*
X107585320Y-52223527D01*
X107742363Y-52458559D01*
X107942241Y-52658437D01*
X108177273Y-52815480D01*
X108438426Y-52923653D01*
X108715665Y-52978800D01*
X108998335Y-52978800D01*
X109275574Y-52923653D01*
X109536727Y-52815480D01*
X109771759Y-52658437D01*
X109971637Y-52458559D01*
X110128680Y-52223527D01*
X110236853Y-51962374D01*
X110272639Y-51782465D01*
X112422000Y-51782465D01*
X112422000Y-52065135D01*
X112477147Y-52342374D01*
X112585320Y-52603527D01*
X112742363Y-52838559D01*
X112942241Y-53038437D01*
X113177273Y-53195480D01*
X113438426Y-53303653D01*
X113715665Y-53358800D01*
X113998335Y-53358800D01*
X114275574Y-53303653D01*
X114536727Y-53195480D01*
X114771759Y-53038437D01*
X114773592Y-53036604D01*
X129213009Y-53036604D01*
X133070600Y-56894195D01*
X136928191Y-53036604D01*
X136342476Y-52354384D01*
X135358896Y-51806755D01*
X134287377Y-51461535D01*
X133169099Y-51331992D01*
X132047035Y-51423103D01*
X130964306Y-51731367D01*
X129962521Y-52244937D01*
X129798724Y-52354384D01*
X129213009Y-53036604D01*
X114773592Y-53036604D01*
X114971637Y-52838559D01*
X115128680Y-52603527D01*
X115236853Y-52342374D01*
X115292000Y-52065135D01*
X115292000Y-51782465D01*
X115236853Y-51505226D01*
X115128680Y-51244073D01*
X114971637Y-51009041D01*
X114771759Y-50809163D01*
X114536727Y-50652120D01*
X114275574Y-50543947D01*
X113998335Y-50488800D01*
X113715665Y-50488800D01*
X113438426Y-50543947D01*
X113177273Y-50652120D01*
X112942241Y-50809163D01*
X112742363Y-51009041D01*
X112585320Y-51244073D01*
X112477147Y-51505226D01*
X112422000Y-51782465D01*
X110272639Y-51782465D01*
X110292000Y-51685135D01*
X110292000Y-51402465D01*
X110236853Y-51125226D01*
X110128680Y-50864073D01*
X109971637Y-50629041D01*
X109771759Y-50429163D01*
X109536727Y-50272120D01*
X109275574Y-50163947D01*
X108998335Y-50108800D01*
X108715665Y-50108800D01*
X108438426Y-50163947D01*
X108177273Y-50272120D01*
X107942241Y-50429163D01*
X107742363Y-50629041D01*
X107585320Y-50864073D01*
X107477147Y-51125226D01*
X107422000Y-51402465D01*
X74265923Y-51402465D01*
X74363380Y-51372902D01*
X74473694Y-51313937D01*
X74570385Y-51234585D01*
X74649737Y-51137894D01*
X74708702Y-51027580D01*
X74745012Y-50907882D01*
X74757272Y-50783400D01*
X74757272Y-50135000D01*
X76115716Y-50135000D01*
X76320273Y-50271680D01*
X76581426Y-50379853D01*
X76858665Y-50435000D01*
X77141335Y-50435000D01*
X77418574Y-50379853D01*
X77679727Y-50271680D01*
X77914759Y-50114637D01*
X78114637Y-49914759D01*
X78271680Y-49679727D01*
X78379853Y-49418574D01*
X78435000Y-49141335D01*
X78435000Y-48858665D01*
X103865000Y-48858665D01*
X103865000Y-49141335D01*
X103920147Y-49418574D01*
X104028320Y-49679727D01*
X104185363Y-49914759D01*
X104385241Y-50114637D01*
X104620273Y-50271680D01*
X104881426Y-50379853D01*
X105158665Y-50435000D01*
X105441335Y-50435000D01*
X105718574Y-50379853D01*
X105979727Y-50271680D01*
X106214759Y-50114637D01*
X106414637Y-49914759D01*
X106571680Y-49679727D01*
X106679853Y-49418574D01*
X106688341Y-49375902D01*
X119608303Y-49375902D01*
X119679886Y-49619871D01*
X119935396Y-49740771D01*
X120209584Y-49809500D01*
X120491912Y-49823417D01*
X120771530Y-49781987D01*
X121037692Y-49686803D01*
X121162914Y-49619871D01*
X121234497Y-49375902D01*
X120421400Y-48562805D01*
X119608303Y-49375902D01*
X106688341Y-49375902D01*
X106735000Y-49141335D01*
X106735000Y-48858665D01*
X106679853Y-48581426D01*
X106626953Y-48453712D01*
X118981183Y-48453712D01*
X119022613Y-48733330D01*
X119117797Y-48999492D01*
X119184729Y-49124714D01*
X119428698Y-49196297D01*
X120241795Y-48383200D01*
X120601005Y-48383200D01*
X121414102Y-49196297D01*
X121658071Y-49124714D01*
X121778971Y-48869204D01*
X121847700Y-48595016D01*
X121861617Y-48312688D01*
X121820187Y-48033070D01*
X121725003Y-47766908D01*
X121658071Y-47641686D01*
X121414102Y-47570103D01*
X120601005Y-48383200D01*
X120241795Y-48383200D01*
X119428698Y-47570103D01*
X119184729Y-47641686D01*
X119063829Y-47897196D01*
X118995100Y-48171384D01*
X118981183Y-48453712D01*
X106626953Y-48453712D01*
X106571680Y-48320273D01*
X106414637Y-48085241D01*
X106214759Y-47885363D01*
X105979727Y-47728320D01*
X105718574Y-47620147D01*
X105441335Y-47565000D01*
X105158665Y-47565000D01*
X104881426Y-47620147D01*
X104620273Y-47728320D01*
X104385241Y-47885363D01*
X104185363Y-48085241D01*
X104028320Y-48320273D01*
X103920147Y-48581426D01*
X103865000Y-48858665D01*
X78435000Y-48858665D01*
X78379853Y-48581426D01*
X78271680Y-48320273D01*
X78114637Y-48085241D01*
X77914759Y-47885363D01*
X77679727Y-47728320D01*
X77418574Y-47620147D01*
X77141335Y-47565000D01*
X76858665Y-47565000D01*
X76581426Y-47620147D01*
X76320273Y-47728320D01*
X76115716Y-47865000D01*
X74597291Y-47865000D01*
X74570385Y-47832215D01*
X74473694Y-47752863D01*
X74363380Y-47693898D01*
X74243682Y-47657588D01*
X74119200Y-47645328D01*
X72319200Y-47645328D01*
X72194718Y-47657588D01*
X72075020Y-47693898D01*
X71964706Y-47752863D01*
X71868015Y-47832215D01*
X71788663Y-47928906D01*
X71729698Y-48039220D01*
X71693388Y-48158918D01*
X71681128Y-48283400D01*
X71681128Y-48522000D01*
X65349248Y-48522000D01*
X65182501Y-48538423D01*
X64968553Y-48603324D01*
X64771377Y-48708716D01*
X64598551Y-48850551D01*
X64456716Y-49023377D01*
X64351324Y-49220553D01*
X64286423Y-49434501D01*
X64264509Y-49657000D01*
X59226092Y-49657000D01*
X59056447Y-49566324D01*
X58842499Y-49501423D01*
X58675752Y-49485000D01*
X58675751Y-49485000D01*
X58630164Y-49480510D01*
X58432327Y-49348320D01*
X58171174Y-49240147D01*
X57893935Y-49185000D01*
X57611265Y-49185000D01*
X57334026Y-49240147D01*
X57072873Y-49348320D01*
X56837841Y-49505363D01*
X56637963Y-49705241D01*
X56480920Y-49940273D01*
X56372747Y-50201426D01*
X56317600Y-50478665D01*
X40660000Y-50478665D01*
X40660000Y-46783400D01*
X71681128Y-46783400D01*
X71693388Y-46907882D01*
X71729698Y-47027580D01*
X71788663Y-47137894D01*
X71868015Y-47234585D01*
X71964706Y-47313937D01*
X72075020Y-47372902D01*
X72194718Y-47409212D01*
X72319200Y-47421472D01*
X72933450Y-47418400D01*
X73092200Y-47259650D01*
X73092200Y-45660400D01*
X73346200Y-45660400D01*
X73346200Y-47259650D01*
X73504950Y-47418400D01*
X74119200Y-47421472D01*
X74243682Y-47409212D01*
X74305373Y-47390498D01*
X119608303Y-47390498D01*
X120421400Y-48203595D01*
X121234497Y-47390498D01*
X121162914Y-47146529D01*
X120907404Y-47025629D01*
X120633216Y-46956900D01*
X120350888Y-46942983D01*
X120071270Y-46984413D01*
X119805108Y-47079597D01*
X119679886Y-47146529D01*
X119608303Y-47390498D01*
X74305373Y-47390498D01*
X74363380Y-47372902D01*
X74473694Y-47313937D01*
X74570385Y-47234585D01*
X74649737Y-47137894D01*
X74708702Y-47027580D01*
X74745012Y-46907882D01*
X74757272Y-46783400D01*
X74754200Y-45819150D01*
X74595450Y-45660400D01*
X73346200Y-45660400D01*
X73092200Y-45660400D01*
X71842950Y-45660400D01*
X71684200Y-45819150D01*
X71681128Y-46783400D01*
X40660000Y-46783400D01*
X40660000Y-37283122D01*
X41427400Y-37283122D01*
X41427400Y-38408878D01*
X41647025Y-39513004D01*
X42077833Y-40553067D01*
X42703270Y-41489100D01*
X43499300Y-42285130D01*
X44435333Y-42910567D01*
X45475396Y-43341375D01*
X46579522Y-43561000D01*
X47705278Y-43561000D01*
X48809404Y-43341375D01*
X49849467Y-42910567D01*
X49927143Y-42858665D01*
X56317600Y-42858665D01*
X56317600Y-43141335D01*
X56372747Y-43418574D01*
X56480920Y-43679727D01*
X56637963Y-43914759D01*
X56837841Y-44114637D01*
X57072873Y-44271680D01*
X57334026Y-44379853D01*
X57611265Y-44435000D01*
X57893935Y-44435000D01*
X58171174Y-44379853D01*
X58432327Y-44271680D01*
X58636884Y-44135000D01*
X60129979Y-44135000D01*
X60163098Y-44244180D01*
X60222063Y-44354494D01*
X60301415Y-44451185D01*
X60398106Y-44530537D01*
X60508420Y-44589502D01*
X60628118Y-44625812D01*
X60752600Y-44638072D01*
X62752600Y-44638072D01*
X62877082Y-44625812D01*
X62996780Y-44589502D01*
X63107094Y-44530537D01*
X63203785Y-44451185D01*
X63283137Y-44354494D01*
X63342102Y-44244180D01*
X63375096Y-44135413D01*
X68296792Y-44135413D01*
X68392556Y-44399814D01*
X68682171Y-44540704D01*
X68993708Y-44622384D01*
X69315195Y-44641718D01*
X69634275Y-44597961D01*
X69938688Y-44492795D01*
X70112644Y-44399814D01*
X70154808Y-44283400D01*
X71681128Y-44283400D01*
X71684200Y-45247650D01*
X71842950Y-45406400D01*
X73092200Y-45406400D01*
X73092200Y-43807150D01*
X73346200Y-43807150D01*
X73346200Y-45406400D01*
X74595450Y-45406400D01*
X74754200Y-45247650D01*
X74757272Y-44283400D01*
X74745012Y-44158918D01*
X74708702Y-44039220D01*
X74649737Y-43928906D01*
X74570385Y-43832215D01*
X74509765Y-43782465D01*
X107422000Y-43782465D01*
X107422000Y-44065135D01*
X107477147Y-44342374D01*
X107585320Y-44603527D01*
X107742363Y-44838559D01*
X107942241Y-45038437D01*
X108177273Y-45195480D01*
X108438426Y-45303653D01*
X108715665Y-45358800D01*
X108998335Y-45358800D01*
X109275574Y-45303653D01*
X109536727Y-45195480D01*
X109771759Y-45038437D01*
X109971637Y-44838559D01*
X110095730Y-44652840D01*
X112465091Y-44652840D01*
X112559930Y-44917681D01*
X112704615Y-45158931D01*
X112893586Y-45367319D01*
X113119580Y-45534837D01*
X113373913Y-45655046D01*
X113507961Y-45695704D01*
X113730000Y-45573715D01*
X113730000Y-44430800D01*
X113984000Y-44430800D01*
X113984000Y-45573715D01*
X114206039Y-45695704D01*
X114340087Y-45655046D01*
X114594420Y-45534837D01*
X114820414Y-45367319D01*
X115009385Y-45158931D01*
X115154070Y-44917681D01*
X115248909Y-44652840D01*
X115127624Y-44430800D01*
X113984000Y-44430800D01*
X113730000Y-44430800D01*
X112586376Y-44430800D01*
X112465091Y-44652840D01*
X110095730Y-44652840D01*
X110128680Y-44603527D01*
X110236853Y-44342374D01*
X110292000Y-44065135D01*
X110292000Y-43954760D01*
X112465091Y-43954760D01*
X112586376Y-44176800D01*
X113730000Y-44176800D01*
X113730000Y-43033885D01*
X113984000Y-43033885D01*
X113984000Y-44176800D01*
X115127624Y-44176800D01*
X115248909Y-43954760D01*
X115154070Y-43689919D01*
X115009385Y-43448669D01*
X114820414Y-43240281D01*
X114594420Y-43072763D01*
X114340087Y-42952554D01*
X114206039Y-42911896D01*
X113984000Y-43033885D01*
X113730000Y-43033885D01*
X113507961Y-42911896D01*
X113373913Y-42952554D01*
X113119580Y-43072763D01*
X112893586Y-43240281D01*
X112704615Y-43448669D01*
X112559930Y-43689919D01*
X112465091Y-43954760D01*
X110292000Y-43954760D01*
X110292000Y-43782465D01*
X110236853Y-43505226D01*
X110128680Y-43244073D01*
X109971637Y-43009041D01*
X109771759Y-42809163D01*
X109536727Y-42652120D01*
X109275574Y-42543947D01*
X108998335Y-42488800D01*
X108715665Y-42488800D01*
X108438426Y-42543947D01*
X108177273Y-42652120D01*
X107942241Y-42809163D01*
X107742363Y-43009041D01*
X107585320Y-43244073D01*
X107477147Y-43505226D01*
X107422000Y-43782465D01*
X74509765Y-43782465D01*
X74473694Y-43752863D01*
X74363380Y-43693898D01*
X74243682Y-43657588D01*
X74119200Y-43645328D01*
X73504950Y-43648400D01*
X73346200Y-43807150D01*
X73092200Y-43807150D01*
X72933450Y-43648400D01*
X72319200Y-43645328D01*
X72194718Y-43657588D01*
X72075020Y-43693898D01*
X71964706Y-43752863D01*
X71868015Y-43832215D01*
X71788663Y-43928906D01*
X71729698Y-44039220D01*
X71693388Y-44158918D01*
X71681128Y-44283400D01*
X70154808Y-44283400D01*
X70208408Y-44135413D01*
X69252600Y-43179605D01*
X68296792Y-44135413D01*
X63375096Y-44135413D01*
X63378412Y-44124482D01*
X63390672Y-44000000D01*
X63390672Y-43062595D01*
X67610882Y-43062595D01*
X67654639Y-43381675D01*
X67759805Y-43686088D01*
X67852786Y-43860044D01*
X68117187Y-43955808D01*
X69072995Y-43000000D01*
X69432205Y-43000000D01*
X70388013Y-43955808D01*
X70652414Y-43860044D01*
X70793304Y-43570429D01*
X70874984Y-43258892D01*
X70894318Y-42937405D01*
X70850561Y-42618325D01*
X70745395Y-42313912D01*
X70652414Y-42139956D01*
X70388013Y-42044192D01*
X69432205Y-43000000D01*
X69072995Y-43000000D01*
X68117187Y-42044192D01*
X67852786Y-42139956D01*
X67711896Y-42429571D01*
X67630216Y-42741108D01*
X67610882Y-43062595D01*
X63390672Y-43062595D01*
X63390672Y-42000000D01*
X63378412Y-41875518D01*
X63375097Y-41864587D01*
X68296792Y-41864587D01*
X69252600Y-42820395D01*
X70208408Y-41864587D01*
X70112644Y-41600186D01*
X69823029Y-41459296D01*
X69511492Y-41377616D01*
X69190005Y-41358282D01*
X68870925Y-41402039D01*
X68566512Y-41507205D01*
X68392556Y-41600186D01*
X68296792Y-41864587D01*
X63375097Y-41864587D01*
X63342102Y-41755820D01*
X63283137Y-41645506D01*
X63203785Y-41548815D01*
X63107094Y-41469463D01*
X62996780Y-41410498D01*
X62877082Y-41374188D01*
X62752600Y-41361928D01*
X60752600Y-41361928D01*
X60628118Y-41374188D01*
X60508420Y-41410498D01*
X60398106Y-41469463D01*
X60301415Y-41548815D01*
X60222063Y-41645506D01*
X60163098Y-41755820D01*
X60129979Y-41865000D01*
X58636884Y-41865000D01*
X58432327Y-41728320D01*
X58171174Y-41620147D01*
X57893935Y-41565000D01*
X57611265Y-41565000D01*
X57334026Y-41620147D01*
X57072873Y-41728320D01*
X56837841Y-41885363D01*
X56637963Y-42085241D01*
X56480920Y-42320273D01*
X56372747Y-42581426D01*
X56317600Y-42858665D01*
X49927143Y-42858665D01*
X50785500Y-42285130D01*
X51581530Y-41489100D01*
X52206967Y-40553067D01*
X52637775Y-39513004D01*
X52857400Y-38408878D01*
X52857400Y-37283122D01*
X52827937Y-37135000D01*
X57575361Y-37135000D01*
X57710348Y-37269987D01*
X57978137Y-37448918D01*
X58275688Y-37572168D01*
X58591567Y-37635000D01*
X58913633Y-37635000D01*
X59229512Y-37572168D01*
X59527063Y-37448918D01*
X59794852Y-37269987D01*
X59929839Y-37135000D01*
X63868316Y-37135000D01*
X64072873Y-37271680D01*
X64334026Y-37379853D01*
X64611265Y-37435000D01*
X64893935Y-37435000D01*
X65171174Y-37379853D01*
X65432327Y-37271680D01*
X65667359Y-37114637D01*
X65789294Y-36992702D01*
X68939503Y-36992702D01*
X69011086Y-37236671D01*
X69266596Y-37357571D01*
X69540784Y-37426300D01*
X69823112Y-37440217D01*
X70102730Y-37398787D01*
X70368892Y-37303603D01*
X70494114Y-37236671D01*
X70565697Y-36992702D01*
X70411962Y-36838967D01*
X71365000Y-36838967D01*
X71365000Y-37161033D01*
X71427832Y-37476912D01*
X71551082Y-37774463D01*
X71730013Y-38042252D01*
X71957748Y-38269987D01*
X72225537Y-38448918D01*
X72523088Y-38572168D01*
X72838967Y-38635000D01*
X73161033Y-38635000D01*
X73476912Y-38572168D01*
X73774463Y-38448918D01*
X74042252Y-38269987D01*
X74269987Y-38042252D01*
X74448918Y-37774463D01*
X74572168Y-37476912D01*
X74635000Y-37161033D01*
X74635000Y-36838967D01*
X74572168Y-36523088D01*
X74448918Y-36225537D01*
X74269987Y-35957748D01*
X74137304Y-35825065D01*
X106794400Y-35825065D01*
X106794400Y-36107735D01*
X106849547Y-36384974D01*
X106957720Y-36646127D01*
X107114763Y-36881159D01*
X107314641Y-37081037D01*
X107549673Y-37238080D01*
X107810826Y-37346253D01*
X108052118Y-37394250D01*
X109965057Y-39307188D01*
X109889068Y-39490642D01*
X109832000Y-39777540D01*
X109832000Y-40070060D01*
X109889068Y-40356958D01*
X110001010Y-40627211D01*
X110163525Y-40870432D01*
X110370368Y-41077275D01*
X110613589Y-41239790D01*
X110883842Y-41351732D01*
X111170740Y-41408800D01*
X111463260Y-41408800D01*
X111750158Y-41351732D01*
X112020411Y-41239790D01*
X112263632Y-41077275D01*
X112395487Y-40945420D01*
X112417498Y-41017980D01*
X112476463Y-41128294D01*
X112555815Y-41224985D01*
X112652506Y-41304337D01*
X112762820Y-41363302D01*
X112882518Y-41399612D01*
X113007000Y-41411872D01*
X113739941Y-41411872D01*
X116474409Y-44146341D01*
X116509951Y-44189649D01*
X116682777Y-44331484D01*
X116879953Y-44436876D01*
X117093901Y-44501777D01*
X117260648Y-44518200D01*
X117260657Y-44518200D01*
X117316399Y-44523690D01*
X117372141Y-44518200D01*
X119080443Y-44518200D01*
X119090863Y-44537694D01*
X119170215Y-44634385D01*
X119266906Y-44713737D01*
X119377220Y-44772702D01*
X119496918Y-44809012D01*
X119621400Y-44821272D01*
X121221400Y-44821272D01*
X121345882Y-44809012D01*
X121465580Y-44772702D01*
X121575894Y-44713737D01*
X121672585Y-44634385D01*
X121751937Y-44537694D01*
X121810902Y-44427380D01*
X121847212Y-44307682D01*
X121859472Y-44183200D01*
X121859472Y-42583200D01*
X121847212Y-42458718D01*
X121810902Y-42339020D01*
X121751937Y-42228706D01*
X121672585Y-42132015D01*
X121575894Y-42052663D01*
X121465580Y-41993698D01*
X121345882Y-41957388D01*
X121221400Y-41945128D01*
X119621400Y-41945128D01*
X119496918Y-41957388D01*
X119377220Y-41993698D01*
X119266906Y-42052663D01*
X119170215Y-42132015D01*
X119090863Y-42228706D01*
X119080443Y-42248200D01*
X117786532Y-42248200D01*
X115345072Y-39806741D01*
X115345072Y-39073800D01*
X115332812Y-38949318D01*
X115296502Y-38829620D01*
X115237537Y-38719306D01*
X115158185Y-38622615D01*
X115061494Y-38543263D01*
X114992000Y-38506117D01*
X114992000Y-38428931D01*
X116026682Y-37394250D01*
X116267974Y-37346253D01*
X116529127Y-37238080D01*
X116733684Y-37101400D01*
X120977849Y-37101400D01*
X121033600Y-37106891D01*
X121089351Y-37101400D01*
X121089352Y-37101400D01*
X121256099Y-37084977D01*
X121470047Y-37020076D01*
X121667223Y-36914684D01*
X121840049Y-36772849D01*
X121875596Y-36729536D01*
X121970131Y-36635000D01*
X122161033Y-36635000D01*
X122476912Y-36572168D01*
X122774463Y-36448918D01*
X123042252Y-36269987D01*
X123177239Y-36135000D01*
X127667096Y-36135000D01*
X127575225Y-36356796D01*
X127355600Y-37460922D01*
X127355600Y-38586678D01*
X127575225Y-39690804D01*
X128006033Y-40730867D01*
X128631470Y-41666900D01*
X129427500Y-42462930D01*
X130363533Y-43088367D01*
X131403596Y-43519175D01*
X132507722Y-43738800D01*
X133633478Y-43738800D01*
X134737604Y-43519175D01*
X135777667Y-43088367D01*
X136713700Y-42462930D01*
X137509730Y-41666900D01*
X138135167Y-40730867D01*
X138565975Y-39690804D01*
X138785600Y-38586678D01*
X138785600Y-37460922D01*
X138565975Y-36356796D01*
X138135167Y-35316733D01*
X137509730Y-34380700D01*
X136713700Y-33584670D01*
X135777667Y-32959233D01*
X134737604Y-32528425D01*
X133633478Y-32308800D01*
X132507722Y-32308800D01*
X131403596Y-32528425D01*
X130363533Y-32959233D01*
X129427500Y-33584670D01*
X129147170Y-33865000D01*
X123177239Y-33865000D01*
X123042252Y-33730013D01*
X122774463Y-33551082D01*
X122476912Y-33427832D01*
X122161033Y-33365000D01*
X121838967Y-33365000D01*
X121523088Y-33427832D01*
X121225537Y-33551082D01*
X120957748Y-33730013D01*
X120730013Y-33957748D01*
X120551082Y-34225537D01*
X120427832Y-34523088D01*
X120366505Y-34831400D01*
X116733684Y-34831400D01*
X116529127Y-34694720D01*
X116267974Y-34586547D01*
X115990735Y-34531400D01*
X115708065Y-34531400D01*
X115430826Y-34586547D01*
X115169673Y-34694720D01*
X114934641Y-34851763D01*
X114734763Y-35051641D01*
X114577720Y-35286673D01*
X114469547Y-35547826D01*
X114421550Y-35789118D01*
X113093860Y-37116809D01*
X113050552Y-37152351D01*
X112908717Y-37325177D01*
X112873974Y-37390177D01*
X112803324Y-37522354D01*
X112738423Y-37736302D01*
X112716509Y-37958800D01*
X112722001Y-38014561D01*
X112722001Y-38506117D01*
X112652506Y-38543263D01*
X112555815Y-38622615D01*
X112476463Y-38719306D01*
X112428668Y-38808724D01*
X112370676Y-38617553D01*
X112265284Y-38420377D01*
X112244659Y-38395246D01*
X112123449Y-38247551D01*
X112080141Y-38212009D01*
X109657250Y-35789118D01*
X109609253Y-35547826D01*
X109501080Y-35286673D01*
X109344037Y-35051641D01*
X109144159Y-34851763D01*
X108909127Y-34694720D01*
X108647974Y-34586547D01*
X108370735Y-34531400D01*
X108088065Y-34531400D01*
X107810826Y-34586547D01*
X107549673Y-34694720D01*
X107314641Y-34851763D01*
X107114763Y-35051641D01*
X106957720Y-35286673D01*
X106849547Y-35547826D01*
X106794400Y-35825065D01*
X74137304Y-35825065D01*
X74042252Y-35730013D01*
X73774463Y-35551082D01*
X73476912Y-35427832D01*
X73161033Y-35365000D01*
X72838967Y-35365000D01*
X72523088Y-35427832D01*
X72225537Y-35551082D01*
X71957748Y-35730013D01*
X71730013Y-35957748D01*
X71551082Y-36225537D01*
X71427832Y-36523088D01*
X71365000Y-36838967D01*
X70411962Y-36838967D01*
X69752600Y-36179605D01*
X68939503Y-36992702D01*
X65789294Y-36992702D01*
X65867237Y-36914759D01*
X66024280Y-36679727D01*
X66132453Y-36418574D01*
X66187600Y-36141335D01*
X66187600Y-36070512D01*
X68312383Y-36070512D01*
X68353813Y-36350130D01*
X68448997Y-36616292D01*
X68515929Y-36741514D01*
X68759898Y-36813097D01*
X69572995Y-36000000D01*
X69932205Y-36000000D01*
X70745302Y-36813097D01*
X70989271Y-36741514D01*
X71110171Y-36486004D01*
X71178900Y-36211816D01*
X71192817Y-35929488D01*
X71151387Y-35649870D01*
X71056203Y-35383708D01*
X70989271Y-35258486D01*
X70745302Y-35186903D01*
X69932205Y-36000000D01*
X69572995Y-36000000D01*
X68759898Y-35186903D01*
X68515929Y-35258486D01*
X68395029Y-35513996D01*
X68326300Y-35788184D01*
X68312383Y-36070512D01*
X66187600Y-36070512D01*
X66187600Y-35858665D01*
X66132453Y-35581426D01*
X66024280Y-35320273D01*
X65867237Y-35085241D01*
X65789294Y-35007298D01*
X68939503Y-35007298D01*
X69752600Y-35820395D01*
X70565697Y-35007298D01*
X70494114Y-34763329D01*
X70238604Y-34642429D01*
X69964416Y-34573700D01*
X69682088Y-34559783D01*
X69402470Y-34601213D01*
X69136308Y-34696397D01*
X69011086Y-34763329D01*
X68939503Y-35007298D01*
X65789294Y-35007298D01*
X65667359Y-34885363D01*
X65432327Y-34728320D01*
X65171174Y-34620147D01*
X64893935Y-34565000D01*
X64611265Y-34565000D01*
X64334026Y-34620147D01*
X64072873Y-34728320D01*
X63868316Y-34865000D01*
X59929839Y-34865000D01*
X59794852Y-34730013D01*
X59527063Y-34551082D01*
X59229512Y-34427832D01*
X58913633Y-34365000D01*
X58591567Y-34365000D01*
X58275688Y-34427832D01*
X57978137Y-34551082D01*
X57710348Y-34730013D01*
X57575361Y-34865000D01*
X52023931Y-34865000D01*
X51581530Y-34202900D01*
X50785500Y-33406870D01*
X49849467Y-32781433D01*
X48809404Y-32350625D01*
X47705278Y-32131000D01*
X46579522Y-32131000D01*
X45475396Y-32350625D01*
X44435333Y-32781433D01*
X43499300Y-33406870D01*
X42703270Y-34202900D01*
X42077833Y-35138933D01*
X41647025Y-36178996D01*
X41427400Y-37283122D01*
X40660000Y-37283122D01*
X40660000Y-31660000D01*
X139340000Y-31660000D01*
X139340001Y-98340000D01*
G37*
X139340001Y-98340000D02*
X40660000Y-98340000D01*
X40660000Y-94098665D01*
X46005000Y-94098665D01*
X46005000Y-94381335D01*
X46060147Y-94658574D01*
X46168320Y-94919727D01*
X46325363Y-95154759D01*
X46525241Y-95354637D01*
X46760273Y-95511680D01*
X47021426Y-95619853D01*
X47298665Y-95675000D01*
X47581335Y-95675000D01*
X47858574Y-95619853D01*
X48119727Y-95511680D01*
X48354759Y-95354637D01*
X48554637Y-95154759D01*
X48710000Y-94922241D01*
X48865363Y-95154759D01*
X49065241Y-95354637D01*
X49300273Y-95511680D01*
X49561426Y-95619853D01*
X49838665Y-95675000D01*
X50121335Y-95675000D01*
X50398574Y-95619853D01*
X50659727Y-95511680D01*
X50894759Y-95354637D01*
X51094637Y-95154759D01*
X51250000Y-94922241D01*
X51405363Y-95154759D01*
X51605241Y-95354637D01*
X51840273Y-95511680D01*
X52101426Y-95619853D01*
X52378665Y-95675000D01*
X52661335Y-95675000D01*
X52938574Y-95619853D01*
X53199727Y-95511680D01*
X53434759Y-95354637D01*
X53634637Y-95154759D01*
X53790000Y-94922241D01*
X53945363Y-95154759D01*
X54145241Y-95354637D01*
X54380273Y-95511680D01*
X54641426Y-95619853D01*
X54918665Y-95675000D01*
X55201335Y-95675000D01*
X55478574Y-95619853D01*
X55739727Y-95511680D01*
X55974759Y-95354637D01*
X56174637Y-95154759D01*
X56330000Y-94922241D01*
X56485363Y-95154759D01*
X56685241Y-95354637D01*
X56920273Y-95511680D01*
X57181426Y-95619853D01*
X57458665Y-95675000D01*
X57741335Y-95675000D01*
X58018574Y-95619853D01*
X58279727Y-95511680D01*
X58514759Y-95354637D01*
X58714637Y-95154759D01*
X58870000Y-94922241D01*
X59025363Y-95154759D01*
X59225241Y-95354637D01*
X59460273Y-95511680D01*
X59721426Y-95619853D01*
X59998665Y-95675000D01*
X60281335Y-95675000D01*
X60558574Y-95619853D01*
X60819727Y-95511680D01*
X61054759Y-95354637D01*
X61254637Y-95154759D01*
X61410000Y-94922241D01*
X61565363Y-95154759D01*
X61765241Y-95354637D01*
X62000273Y-95511680D01*
X62261426Y-95619853D01*
X62538665Y-95675000D01*
X62821335Y-95675000D01*
X63098574Y-95619853D01*
X63359727Y-95511680D01*
X63594759Y-95354637D01*
X63794637Y-95154759D01*
X63950000Y-94922241D01*
X64105363Y-95154759D01*
X64305241Y-95354637D01*
X64540273Y-95511680D01*
X64801426Y-95619853D01*
X65078665Y-95675000D01*
X65361335Y-95675000D01*
X65638574Y-95619853D01*
X65899727Y-95511680D01*
X66134759Y-95354637D01*
X66334637Y-95154759D01*
X66490000Y-94922241D01*
X66645363Y-95154759D01*
X66845241Y-95354637D01*
X67080273Y-95511680D01*
X67341426Y-95619853D01*
X67618665Y-95675000D01*
X67901335Y-95675000D01*
X68178574Y-95619853D01*
X68439727Y-95511680D01*
X68674759Y-95354637D01*
X68874637Y-95154759D01*
X69030000Y-94922241D01*
X69185363Y-95154759D01*
X69385241Y-95354637D01*
X69620273Y-95511680D01*
X69881426Y-95619853D01*
X70158665Y-95675000D01*
X70441335Y-95675000D01*
X70718574Y-95619853D01*
X70979727Y-95511680D01*
X71214759Y-95354637D01*
X71414637Y-95154759D01*
X71570000Y-94922241D01*
X71725363Y-95154759D01*
X71925241Y-95354637D01*
X72160273Y-95511680D01*
X72421426Y-95619853D01*
X72698665Y-95675000D01*
X72981335Y-95675000D01*
X73258574Y-95619853D01*
X73519727Y-95511680D01*
X73754759Y-95354637D01*
X73954637Y-95154759D01*
X74110000Y-94922241D01*
X74265363Y-95154759D01*
X74465241Y-95354637D01*
X74700273Y-95511680D01*
X74961426Y-95619853D01*
X75238665Y-95675000D01*
X75521335Y-95675000D01*
X75798574Y-95619853D01*
X76059727Y-95511680D01*
X76294759Y-95354637D01*
X76494637Y-95154759D01*
X76650000Y-94922241D01*
X76805363Y-95154759D01*
X77005241Y-95354637D01*
X77240273Y-95511680D01*
X77501426Y-95619853D01*
X77778665Y-95675000D01*
X78061335Y-95675000D01*
X78338574Y-95619853D01*
X78599727Y-95511680D01*
X78834759Y-95354637D01*
X79034637Y-95154759D01*
X79191680Y-94919727D01*
X79196067Y-94909135D01*
X79307615Y-95095131D01*
X79496586Y-95303519D01*
X79722580Y-95471037D01*
X79976913Y-95591246D01*
X80110961Y-95631904D01*
X80333000Y-95509915D01*
X80333000Y-94367000D01*
X80313000Y-94367000D01*
X80313000Y-94113000D01*
X80333000Y-94113000D01*
X80333000Y-92970085D01*
X80110961Y-92848096D01*
X79976913Y-92888754D01*
X79722580Y-93008963D01*
X79496586Y-93176481D01*
X79307615Y-93384869D01*
X79196067Y-93570865D01*
X79191680Y-93560273D01*
X79034637Y-93325241D01*
X78834759Y-93125363D01*
X78599727Y-92968320D01*
X78338574Y-92860147D01*
X78061335Y-92805000D01*
X77778665Y-92805000D01*
X77501426Y-92860147D01*
X77240273Y-92968320D01*
X77005241Y-93125363D01*
X76805363Y-93325241D01*
X76650000Y-93557759D01*
X76494637Y-93325241D01*
X76294759Y-93125363D01*
X76059727Y-92968320D01*
X75798574Y-92860147D01*
X75521335Y-92805000D01*
X75238665Y-92805000D01*
X74961426Y-92860147D01*
X74700273Y-92968320D01*
X74465241Y-93125363D01*
X74265363Y-93325241D01*
X74110000Y-93557759D01*
X73954637Y-93325241D01*
X73754759Y-93125363D01*
X73519727Y-92968320D01*
X73258574Y-92860147D01*
X72981335Y-92805000D01*
X72698665Y-92805000D01*
X72421426Y-92860147D01*
X72160273Y-92968320D01*
X71925241Y-93125363D01*
X71725363Y-93325241D01*
X71570000Y-93557759D01*
X71414637Y-93325241D01*
X71214759Y-93125363D01*
X70979727Y-92968320D01*
X70718574Y-92860147D01*
X70441335Y-92805000D01*
X70158665Y-92805000D01*
X69881426Y-92860147D01*
X69620273Y-92968320D01*
X69385241Y-93125363D01*
X69185363Y-93325241D01*
X69030000Y-93557759D01*
X68874637Y-93325241D01*
X68674759Y-93125363D01*
X68439727Y-92968320D01*
X68178574Y-92860147D01*
X67901335Y-92805000D01*
X67618665Y-92805000D01*
X67341426Y-92860147D01*
X67080273Y-92968320D01*
X66845241Y-93125363D01*
X66645363Y-93325241D01*
X66490000Y-93557759D01*
X66334637Y-93325241D01*
X66134759Y-93125363D01*
X65899727Y-92968320D01*
X65638574Y-92860147D01*
X65361335Y-92805000D01*
X65078665Y-92805000D01*
X64801426Y-92860147D01*
X64540273Y-92968320D01*
X64305241Y-93125363D01*
X64105363Y-93325241D01*
X63950000Y-93557759D01*
X63794637Y-93325241D01*
X63594759Y-93125363D01*
X63359727Y-92968320D01*
X63098574Y-92860147D01*
X62821335Y-92805000D01*
X62538665Y-92805000D01*
X62261426Y-92860147D01*
X62000273Y-92968320D01*
X61765241Y-93125363D01*
X61565363Y-93325241D01*
X61410000Y-93557759D01*
X61254637Y-93325241D01*
X61054759Y-93125363D01*
X60819727Y-92968320D01*
X60577249Y-92867882D01*
X62089332Y-91355800D01*
X88511928Y-91355800D01*
X88511928Y-92850000D01*
X88524188Y-92974482D01*
X88560498Y-93094180D01*
X88566282Y-93105000D01*
X83884284Y-93105000D01*
X83679727Y-92968320D01*
X83418574Y-92860147D01*
X83141335Y-92805000D01*
X82858665Y-92805000D01*
X82581426Y-92860147D01*
X82320273Y-92968320D01*
X82085241Y-93125363D01*
X81885363Y-93325241D01*
X81728320Y-93560273D01*
X81723933Y-93570865D01*
X81612385Y-93384869D01*
X81423414Y-93176481D01*
X81197420Y-93008963D01*
X80943087Y-92888754D01*
X80809039Y-92848096D01*
X80587000Y-92970085D01*
X80587000Y-94113000D01*
X80607000Y-94113000D01*
X80607000Y-94367000D01*
X80587000Y-94367000D01*
X80587000Y-95509915D01*
X80809039Y-95631904D01*
X80943087Y-95591246D01*
X81197420Y-95471037D01*
X81423414Y-95303519D01*
X81612385Y-95095131D01*
X81723933Y-94909135D01*
X81728320Y-94919727D01*
X81885363Y-95154759D01*
X82085241Y-95354637D01*
X82320273Y-95511680D01*
X82581426Y-95619853D01*
X82858665Y-95675000D01*
X83141335Y-95675000D01*
X83418574Y-95619853D01*
X83679727Y-95511680D01*
X83884284Y-95375000D01*
X88771935Y-95375000D01*
X88846525Y-95486632D01*
X89053368Y-95693475D01*
X89296589Y-95855990D01*
X89566842Y-95967932D01*
X89853740Y-96025000D01*
X90146260Y-96025000D01*
X90433158Y-95967932D01*
X90703411Y-95855990D01*
X90946632Y-95693475D01*
X91153475Y-95486632D01*
X91315990Y-95243411D01*
X91427932Y-94973158D01*
X91485000Y-94686260D01*
X91485000Y-94393740D01*
X91427932Y-94106842D01*
X91315990Y-93836589D01*
X91153475Y-93593368D01*
X91021620Y-93461513D01*
X91094180Y-93439502D01*
X91204494Y-93380537D01*
X91301185Y-93301185D01*
X91380537Y-93204494D01*
X91439502Y-93094180D01*
X91475812Y-92974482D01*
X91488072Y-92850000D01*
X91488072Y-91150000D01*
X91475812Y-91025518D01*
X91439502Y-90905820D01*
X91380537Y-90795506D01*
X91301185Y-90698815D01*
X91204494Y-90619463D01*
X91094180Y-90560498D01*
X90974482Y-90524188D01*
X90850000Y-90511928D01*
X90133201Y-90511928D01*
X90457730Y-90187400D01*
X94924752Y-90187400D01*
X95091499Y-90170977D01*
X95208736Y-90135413D01*
X109044192Y-90135413D01*
X109139956Y-90399814D01*
X109429571Y-90540704D01*
X109741108Y-90622384D01*
X110062595Y-90641718D01*
X110381675Y-90597961D01*
X110686088Y-90492795D01*
X110860044Y-90399814D01*
X110955808Y-90135413D01*
X132044192Y-90135413D01*
X132139956Y-90399814D01*
X132429571Y-90540704D01*
X132741108Y-90622384D01*
X133062595Y-90641718D01*
X133381675Y-90597961D01*
X133686088Y-90492795D01*
X133860044Y-90399814D01*
X133955808Y-90135413D01*
X133000000Y-89179605D01*
X132044192Y-90135413D01*
X110955808Y-90135413D01*
X110000000Y-89179605D01*
X109044192Y-90135413D01*
X95208736Y-90135413D01*
X95305447Y-90106076D01*
X95502623Y-90000684D01*
X95675449Y-89858849D01*
X95817284Y-89686023D01*
X95922676Y-89488847D01*
X95987577Y-89274899D01*
X96008486Y-89062595D01*
X108358282Y-89062595D01*
X108402039Y-89381675D01*
X108507205Y-89686088D01*
X108600186Y-89860044D01*
X108864587Y-89955808D01*
X109820395Y-89000000D01*
X110179605Y-89000000D01*
X111135413Y-89955808D01*
X111399814Y-89860044D01*
X111540704Y-89570429D01*
X111622384Y-89258892D01*
X111634189Y-89062595D01*
X131358282Y-89062595D01*
X131402039Y-89381675D01*
X131507205Y-89686088D01*
X131600186Y-89860044D01*
X131864587Y-89955808D01*
X132820395Y-89000000D01*
X133179605Y-89000000D01*
X134135413Y-89955808D01*
X134399814Y-89860044D01*
X134540704Y-89570429D01*
X134622384Y-89258892D01*
X134641718Y-88937405D01*
X134597961Y-88618325D01*
X134492795Y-88313912D01*
X134399814Y-88139956D01*
X134135413Y-88044192D01*
X133179605Y-89000000D01*
X132820395Y-89000000D01*
X131864587Y-88044192D01*
X131600186Y-88139956D01*
X131459296Y-88429571D01*
X131377616Y-88741108D01*
X131358282Y-89062595D01*
X111634189Y-89062595D01*
X111641718Y-88937405D01*
X111597961Y-88618325D01*
X111492795Y-88313912D01*
X111399814Y-88139956D01*
X111135413Y-88044192D01*
X110179605Y-89000000D01*
X109820395Y-89000000D01*
X108864587Y-88044192D01*
X108600186Y-88139956D01*
X108459296Y-88429571D01*
X108377616Y-88741108D01*
X108358282Y-89062595D01*
X96008486Y-89062595D01*
X96009491Y-89052400D01*
X95987577Y-88829901D01*
X95922676Y-88615953D01*
X95817284Y-88418777D01*
X95675449Y-88245951D01*
X95502623Y-88104116D01*
X95305447Y-87998724D01*
X95091499Y-87933823D01*
X94924752Y-87917400D01*
X90043349Y-87917400D01*
X89987597Y-87911909D01*
X89765098Y-87933823D01*
X89715303Y-87948929D01*
X89551151Y-87998724D01*
X89353975Y-88104116D01*
X89181149Y-88245951D01*
X89145606Y-88289260D01*
X88349067Y-89085800D01*
X86382307Y-89085800D01*
X86397676Y-89057047D01*
X86462577Y-88843099D01*
X86484491Y-88620600D01*
X86462577Y-88398101D01*
X86397676Y-88184153D01*
X86292284Y-87986977D01*
X86191841Y-87864587D01*
X109044192Y-87864587D01*
X110000000Y-88820395D01*
X110955808Y-87864587D01*
X132044192Y-87864587D01*
X133000000Y-88820395D01*
X133955808Y-87864587D01*
X133860044Y-87600186D01*
X133570429Y-87459296D01*
X133258892Y-87377616D01*
X132937405Y-87358282D01*
X132618325Y-87402039D01*
X132313912Y-87507205D01*
X132139956Y-87600186D01*
X132044192Y-87864587D01*
X110955808Y-87864587D01*
X110860044Y-87600186D01*
X110570429Y-87459296D01*
X110258892Y-87377616D01*
X109937405Y-87358282D01*
X109618325Y-87402039D01*
X109313912Y-87507205D01*
X109139956Y-87600186D01*
X109044192Y-87864587D01*
X86191841Y-87864587D01*
X86150449Y-87814151D01*
X85977623Y-87672316D01*
X85780447Y-87566924D01*
X85566499Y-87502023D01*
X85399752Y-87485600D01*
X60735152Y-87485600D01*
X60679400Y-87480109D01*
X60456901Y-87502023D01*
X60242953Y-87566924D01*
X60045777Y-87672316D01*
X59916256Y-87778611D01*
X59916254Y-87778613D01*
X59872951Y-87814151D01*
X59837413Y-87857454D01*
X54882718Y-92812150D01*
X54641426Y-92860147D01*
X54380273Y-92968320D01*
X54145241Y-93125363D01*
X53945363Y-93325241D01*
X53790000Y-93557759D01*
X53634637Y-93325241D01*
X53434759Y-93125363D01*
X53199727Y-92968320D01*
X52938574Y-92860147D01*
X52661335Y-92805000D01*
X52489801Y-92805000D01*
X59089202Y-86205600D01*
X68485889Y-86205600D01*
X68529826Y-86249537D01*
X68699344Y-86362805D01*
X68887702Y-86440826D01*
X69087661Y-86480600D01*
X69291539Y-86480600D01*
X69491498Y-86440826D01*
X69679856Y-86362805D01*
X69849374Y-86249537D01*
X69993537Y-86105374D01*
X70106805Y-85935856D01*
X70184826Y-85747498D01*
X70224600Y-85547539D01*
X70224600Y-85343661D01*
X70184826Y-85143702D01*
X70106805Y-84955344D01*
X69993537Y-84785826D01*
X69849374Y-84641663D01*
X69679856Y-84528395D01*
X69491498Y-84450374D01*
X69291539Y-84410600D01*
X69087661Y-84410600D01*
X68887702Y-84450374D01*
X68699344Y-84528395D01*
X68529826Y-84641663D01*
X68485889Y-84685600D01*
X58811725Y-84685600D01*
X58774400Y-84681924D01*
X58737075Y-84685600D01*
X58737067Y-84685600D01*
X58625414Y-84696597D01*
X58482153Y-84740054D01*
X58350124Y-84810626D01*
X58234399Y-84905599D01*
X58210601Y-84934597D01*
X50303887Y-92841312D01*
X50121335Y-92805000D01*
X49838665Y-92805000D01*
X49561426Y-92860147D01*
X49300273Y-92968320D01*
X49065241Y-93125363D01*
X48865363Y-93325241D01*
X48710000Y-93557759D01*
X48554637Y-93325241D01*
X48354759Y-93125363D01*
X48119727Y-92968320D01*
X47858574Y-92860147D01*
X47581335Y-92805000D01*
X47298665Y-92805000D01*
X47021426Y-92860147D01*
X46760273Y-92968320D01*
X46525241Y-93125363D01*
X46325363Y-93325241D01*
X46168320Y-93560273D01*
X46060147Y-93821426D01*
X46005000Y-94098665D01*
X40660000Y-94098665D01*
X40660000Y-78858665D01*
X46005000Y-78858665D01*
X46005000Y-79141335D01*
X46060147Y-79418574D01*
X46168320Y-79679727D01*
X46325363Y-79914759D01*
X46525241Y-80114637D01*
X46760273Y-80271680D01*
X47021426Y-80379853D01*
X47298665Y-80435000D01*
X47581335Y-80435000D01*
X47858574Y-80379853D01*
X48119727Y-80271680D01*
X48354759Y-80114637D01*
X48554637Y-79914759D01*
X48710000Y-79682241D01*
X48865363Y-79914759D01*
X49065241Y-80114637D01*
X49300273Y-80271680D01*
X49561426Y-80379853D01*
X49838665Y-80435000D01*
X50121335Y-80435000D01*
X50398574Y-80379853D01*
X50659727Y-80271680D01*
X50894759Y-80114637D01*
X51094637Y-79914759D01*
X51250000Y-79682241D01*
X51405363Y-79914759D01*
X51605241Y-80114637D01*
X51840273Y-80271680D01*
X52101426Y-80379853D01*
X52378665Y-80435000D01*
X52661335Y-80435000D01*
X52938574Y-80379853D01*
X53199727Y-80271680D01*
X53434759Y-80114637D01*
X53634637Y-79914759D01*
X53790000Y-79682241D01*
X53945363Y-79914759D01*
X54145241Y-80114637D01*
X54380273Y-80271680D01*
X54641426Y-80379853D01*
X54918665Y-80435000D01*
X55201335Y-80435000D01*
X55478574Y-80379853D01*
X55739727Y-80271680D01*
X55974759Y-80114637D01*
X56174637Y-79914759D01*
X56330000Y-79682241D01*
X56485363Y-79914759D01*
X56685241Y-80114637D01*
X56920273Y-80271680D01*
X57181426Y-80379853D01*
X57458665Y-80435000D01*
X57741335Y-80435000D01*
X58018574Y-80379853D01*
X58279727Y-80271680D01*
X58514759Y-80114637D01*
X58714637Y-79914759D01*
X58870000Y-79682241D01*
X59025363Y-79914759D01*
X59225241Y-80114637D01*
X59460273Y-80271680D01*
X59721426Y-80379853D01*
X59998665Y-80435000D01*
X60281335Y-80435000D01*
X60558574Y-80379853D01*
X60819727Y-80271680D01*
X61054759Y-80114637D01*
X61254637Y-79914759D01*
X61410000Y-79682241D01*
X61565363Y-79914759D01*
X61765241Y-80114637D01*
X62000273Y-80271680D01*
X62261426Y-80379853D01*
X62538665Y-80435000D01*
X62821335Y-80435000D01*
X63098574Y-80379853D01*
X63359727Y-80271680D01*
X63594759Y-80114637D01*
X63794637Y-79914759D01*
X63950000Y-79682241D01*
X64105363Y-79914759D01*
X64305241Y-80114637D01*
X64540273Y-80271680D01*
X64801426Y-80379853D01*
X65078665Y-80435000D01*
X65361335Y-80435000D01*
X65638574Y-80379853D01*
X65899727Y-80271680D01*
X66134759Y-80114637D01*
X66334637Y-79914759D01*
X66490000Y-79682241D01*
X66645363Y-79914759D01*
X66845241Y-80114637D01*
X67080273Y-80271680D01*
X67341426Y-80379853D01*
X67618665Y-80435000D01*
X67901335Y-80435000D01*
X68178574Y-80379853D01*
X68439727Y-80271680D01*
X68674759Y-80114637D01*
X68874637Y-79914759D01*
X69030000Y-79682241D01*
X69185363Y-79914759D01*
X69385241Y-80114637D01*
X69620273Y-80271680D01*
X69881426Y-80379853D01*
X70158665Y-80435000D01*
X70441335Y-80435000D01*
X70718574Y-80379853D01*
X70979727Y-80271680D01*
X71214759Y-80114637D01*
X71414637Y-79914759D01*
X71570000Y-79682241D01*
X71725363Y-79914759D01*
X71925241Y-80114637D01*
X72160273Y-80271680D01*
X72421426Y-80379853D01*
X72698665Y-80435000D01*
X72981335Y-80435000D01*
X73258574Y-80379853D01*
X73519727Y-80271680D01*
X73754759Y-80114637D01*
X73954637Y-79914759D01*
X74111680Y-79679727D01*
X74116067Y-79669135D01*
X74227615Y-79855131D01*
X74416586Y-80063519D01*
X74642580Y-80231037D01*
X74896913Y-80351246D01*
X75030961Y-80391904D01*
X75253000Y-80269915D01*
X75253000Y-79127000D01*
X75233000Y-79127000D01*
X75233000Y-78873000D01*
X75253000Y-78873000D01*
X75253000Y-77730085D01*
X75507000Y-77730085D01*
X75507000Y-78873000D01*
X75527000Y-78873000D01*
X75527000Y-79127000D01*
X75507000Y-79127000D01*
X75507000Y-80269915D01*
X75729039Y-80391904D01*
X75863087Y-80351246D01*
X76117420Y-80231037D01*
X76343414Y-80063519D01*
X76532385Y-79855131D01*
X76643933Y-79669135D01*
X76648320Y-79679727D01*
X76805363Y-79914759D01*
X77005241Y-80114637D01*
X77240273Y-80271680D01*
X77501426Y-80379853D01*
X77778665Y-80435000D01*
X78061335Y-80435000D01*
X78338574Y-80379853D01*
X78599727Y-80271680D01*
X78834759Y-80114637D01*
X79034637Y-79914759D01*
X79190000Y-79682241D01*
X79345363Y-79914759D01*
X79545241Y-80114637D01*
X79780273Y-80271680D01*
X80041426Y-80379853D01*
X80318665Y-80435000D01*
X80601335Y-80435000D01*
X80878574Y-80379853D01*
X81139727Y-80271680D01*
X81374759Y-80114637D01*
X81573357Y-79916039D01*
X81574188Y-79924482D01*
X81610498Y-80044180D01*
X81669463Y-80154494D01*
X81748815Y-80251185D01*
X81845506Y-80330537D01*
X81955820Y-80389502D01*
X82075518Y-80425812D01*
X82200000Y-80438072D01*
X83800000Y-80438072D01*
X83924482Y-80425812D01*
X84044180Y-80389502D01*
X84154494Y-80330537D01*
X84251185Y-80251185D01*
X84330537Y-80154494D01*
X84389502Y-80044180D01*
X84425812Y-79924482D01*
X84438072Y-79800000D01*
X84438072Y-78200000D01*
X84425812Y-78075518D01*
X84389502Y-77955820D01*
X84330537Y-77845506D01*
X84251185Y-77748815D01*
X84154494Y-77669463D01*
X84044180Y-77610498D01*
X83924482Y-77574188D01*
X83800000Y-77561928D01*
X82200000Y-77561928D01*
X82075518Y-77574188D01*
X81955820Y-77610498D01*
X81845506Y-77669463D01*
X81748815Y-77748815D01*
X81669463Y-77845506D01*
X81610498Y-77955820D01*
X81574188Y-78075518D01*
X81573357Y-78083961D01*
X81374759Y-77885363D01*
X81139727Y-77728320D01*
X80878574Y-77620147D01*
X80601335Y-77565000D01*
X80318665Y-77565000D01*
X80041426Y-77620147D01*
X79780273Y-77728320D01*
X79545241Y-77885363D01*
X79345363Y-78085241D01*
X79190000Y-78317759D01*
X79034637Y-78085241D01*
X78834759Y-77885363D01*
X78599727Y-77728320D01*
X78338574Y-77620147D01*
X78061335Y-77565000D01*
X77778665Y-77565000D01*
X77501426Y-77620147D01*
X77240273Y-77728320D01*
X77005241Y-77885363D01*
X76805363Y-78085241D01*
X76648320Y-78320273D01*
X76643933Y-78330865D01*
X76532385Y-78144869D01*
X76343414Y-77936481D01*
X76117420Y-77768963D01*
X75863087Y-77648754D01*
X75729039Y-77608096D01*
X75507000Y-77730085D01*
X75253000Y-77730085D01*
X75030961Y-77608096D01*
X74896913Y-77648754D01*
X74642580Y-77768963D01*
X74416586Y-77936481D01*
X74227615Y-78144869D01*
X74116067Y-78330865D01*
X74111680Y-78320273D01*
X73954637Y-78085241D01*
X73754759Y-77885363D01*
X73519727Y-77728320D01*
X73258574Y-77620147D01*
X72981335Y-77565000D01*
X72698665Y-77565000D01*
X72421426Y-77620147D01*
X72160273Y-77728320D01*
X71925241Y-77885363D01*
X71725363Y-78085241D01*
X71570000Y-78317759D01*
X71414637Y-78085241D01*
X71214759Y-77885363D01*
X70979727Y-77728320D01*
X70718574Y-77620147D01*
X70441335Y-77565000D01*
X70158665Y-77565000D01*
X69881426Y-77620147D01*
X69620273Y-77728320D01*
X69385241Y-77885363D01*
X69185363Y-78085241D01*
X69030000Y-78317759D01*
X68874637Y-78085241D01*
X68674759Y-77885363D01*
X68439727Y-77728320D01*
X68178574Y-77620147D01*
X67901335Y-77565000D01*
X67618665Y-77565000D01*
X67341426Y-77620147D01*
X67080273Y-77728320D01*
X66845241Y-77885363D01*
X66645363Y-78085241D01*
X66490000Y-78317759D01*
X66334637Y-78085241D01*
X66134759Y-77885363D01*
X65899727Y-77728320D01*
X65638574Y-77620147D01*
X65361335Y-77565000D01*
X65078665Y-77565000D01*
X64801426Y-77620147D01*
X64540273Y-77728320D01*
X64305241Y-77885363D01*
X64105363Y-78085241D01*
X63950000Y-78317759D01*
X63794637Y-78085241D01*
X63594759Y-77885363D01*
X63359727Y-77728320D01*
X63098574Y-77620147D01*
X62821335Y-77565000D01*
X62538665Y-77565000D01*
X62261426Y-77620147D01*
X62000273Y-77728320D01*
X61765241Y-77885363D01*
X61565363Y-78085241D01*
X61410000Y-78317759D01*
X61254637Y-78085241D01*
X61054759Y-77885363D01*
X60819727Y-77728320D01*
X60558574Y-77620147D01*
X60281335Y-77565000D01*
X59998665Y-77565000D01*
X59721426Y-77620147D01*
X59460273Y-77728320D01*
X59225241Y-77885363D01*
X59025363Y-78085241D01*
X58870000Y-78317759D01*
X58714637Y-78085241D01*
X58514759Y-77885363D01*
X58279727Y-77728320D01*
X58018574Y-77620147D01*
X57741335Y-77565000D01*
X57458665Y-77565000D01*
X57181426Y-77620147D01*
X56920273Y-77728320D01*
X56685241Y-77885363D01*
X56485363Y-78085241D01*
X56330000Y-78317759D01*
X56174637Y-78085241D01*
X55974759Y-77885363D01*
X55739727Y-77728320D01*
X55478574Y-77620147D01*
X55201335Y-77565000D01*
X54918665Y-77565000D01*
X54641426Y-77620147D01*
X54380273Y-77728320D01*
X54145241Y-77885363D01*
X53945363Y-78085241D01*
X53790000Y-78317759D01*
X53634637Y-78085241D01*
X53434759Y-77885363D01*
X53199727Y-77728320D01*
X52938574Y-77620147D01*
X52661335Y-77565000D01*
X52378665Y-77565000D01*
X52101426Y-77620147D01*
X51840273Y-77728320D01*
X51605241Y-77885363D01*
X51405363Y-78085241D01*
X51250000Y-78317759D01*
X51094637Y-78085241D01*
X50894759Y-77885363D01*
X50659727Y-77728320D01*
X50398574Y-77620147D01*
X50121335Y-77565000D01*
X49838665Y-77565000D01*
X49561426Y-77620147D01*
X49300273Y-77728320D01*
X49065241Y-77885363D01*
X48865363Y-78085241D01*
X48710000Y-78317759D01*
X48554637Y-78085241D01*
X48354759Y-77885363D01*
X48119727Y-77728320D01*
X47858574Y-77620147D01*
X47581335Y-77565000D01*
X47298665Y-77565000D01*
X47021426Y-77620147D01*
X46760273Y-77728320D01*
X46525241Y-77885363D01*
X46325363Y-78085241D01*
X46168320Y-78320273D01*
X46060147Y-78581426D01*
X46005000Y-78858665D01*
X40660000Y-78858665D01*
X40660000Y-73478665D01*
X57565000Y-73478665D01*
X57565000Y-73761335D01*
X57620147Y-74038574D01*
X57728320Y-74299727D01*
X57885363Y-74534759D01*
X58085241Y-74734637D01*
X58320273Y-74891680D01*
X58581426Y-74999853D01*
X58858665Y-75055000D01*
X59141335Y-75055000D01*
X59418574Y-74999853D01*
X59679727Y-74891680D01*
X59914759Y-74734637D01*
X60114637Y-74534759D01*
X60271680Y-74299727D01*
X60339912Y-74135000D01*
X62822761Y-74135000D01*
X62957748Y-74269987D01*
X63225537Y-74448918D01*
X63523088Y-74572168D01*
X63838967Y-74635000D01*
X64161033Y-74635000D01*
X64476912Y-74572168D01*
X64774463Y-74448918D01*
X65042252Y-74269987D01*
X65269987Y-74042252D01*
X65448918Y-73774463D01*
X65572168Y-73476912D01*
X65635000Y-73161033D01*
X65635000Y-72838967D01*
X65572168Y-72523088D01*
X65448918Y-72225537D01*
X65269987Y-71957748D01*
X65042252Y-71730013D01*
X64813552Y-71577200D01*
X78437709Y-71577200D01*
X78459623Y-71799698D01*
X78524524Y-72013646D01*
X78629917Y-72210822D01*
X78736212Y-72340343D01*
X78837804Y-72441935D01*
X78873351Y-72485249D01*
X79046177Y-72627084D01*
X79243353Y-72732476D01*
X79457301Y-72797377D01*
X79624048Y-72813800D01*
X79679799Y-72819291D01*
X79735551Y-72813800D01*
X89946352Y-72813800D01*
X90113099Y-72797377D01*
X90327047Y-72732476D01*
X90524223Y-72627084D01*
X90697049Y-72485249D01*
X90838884Y-72312423D01*
X90944276Y-72115247D01*
X91009177Y-71901299D01*
X91031091Y-71678800D01*
X91009177Y-71456301D01*
X90944276Y-71242353D01*
X90838884Y-71045177D01*
X90697049Y-70872351D01*
X90524223Y-70730516D01*
X90327047Y-70625124D01*
X90113099Y-70560223D01*
X89946352Y-70543800D01*
X80052580Y-70543800D01*
X80014646Y-70523524D01*
X79800698Y-70458623D01*
X79578200Y-70436709D01*
X79355702Y-70458623D01*
X79141754Y-70523524D01*
X78944578Y-70628917D01*
X78771752Y-70770752D01*
X78629917Y-70943578D01*
X78524524Y-71140754D01*
X78459623Y-71354702D01*
X78437709Y-71577200D01*
X64813552Y-71577200D01*
X64774463Y-71551082D01*
X64476912Y-71427832D01*
X64161033Y-71365000D01*
X63838967Y-71365000D01*
X63523088Y-71427832D01*
X63225537Y-71551082D01*
X62957748Y-71730013D01*
X62822761Y-71865000D01*
X59675741Y-71865000D01*
X59619999Y-71859510D01*
X59564257Y-71865000D01*
X59564248Y-71865000D01*
X59397501Y-71881423D01*
X59183553Y-71946324D01*
X58986377Y-72051716D01*
X58813551Y-72193551D01*
X58813136Y-72194056D01*
X58581426Y-72240147D01*
X58320273Y-72348320D01*
X58085241Y-72505363D01*
X57885363Y-72705241D01*
X57728320Y-72940273D01*
X57620147Y-73201426D01*
X57565000Y-73478665D01*
X40660000Y-73478665D01*
X40660000Y-67838967D01*
X83365000Y-67838967D01*
X83365000Y-68161033D01*
X83427832Y-68476912D01*
X83551082Y-68774463D01*
X83730013Y-69042252D01*
X83957748Y-69269987D01*
X84225537Y-69448918D01*
X84523088Y-69572168D01*
X84838967Y-69635000D01*
X85161033Y-69635000D01*
X85476912Y-69572168D01*
X85774463Y-69448918D01*
X86042252Y-69269987D01*
X86269987Y-69042252D01*
X86448918Y-68774463D01*
X86572168Y-68476912D01*
X86635000Y-68161033D01*
X86635000Y-67970131D01*
X87988932Y-66616200D01*
X94128081Y-66616200D01*
X93957748Y-66730013D01*
X93730013Y-66957748D01*
X93551082Y-67225537D01*
X93427832Y-67523088D01*
X93365000Y-67838967D01*
X93365000Y-68161033D01*
X93427832Y-68476912D01*
X93551082Y-68774463D01*
X93730013Y-69042252D01*
X93957748Y-69269987D01*
X94225537Y-69448918D01*
X94523088Y-69572168D01*
X94838967Y-69635000D01*
X95161033Y-69635000D01*
X95476912Y-69572168D01*
X95774463Y-69448918D01*
X96042252Y-69269987D01*
X96232239Y-69080000D01*
X105465752Y-69080000D01*
X105632499Y-69063577D01*
X105846447Y-68998676D01*
X106043623Y-68893284D01*
X106216449Y-68751449D01*
X106358284Y-68578623D01*
X106463676Y-68381447D01*
X106528577Y-68167499D01*
X106550491Y-67945000D01*
X106528577Y-67722501D01*
X106463676Y-67508553D01*
X106358284Y-67311377D01*
X106216449Y-67138551D01*
X106043623Y-66996716D01*
X105846447Y-66891324D01*
X105632499Y-66826423D01*
X105465752Y-66810000D01*
X96122239Y-66810000D01*
X96042252Y-66730013D01*
X95871919Y-66616200D01*
X111561752Y-66616200D01*
X111728499Y-66599777D01*
X111942447Y-66534876D01*
X112139623Y-66429484D01*
X112312449Y-66287649D01*
X112454284Y-66114823D01*
X112559676Y-65917647D01*
X112624577Y-65703699D01*
X112646491Y-65481200D01*
X112624577Y-65258701D01*
X112559676Y-65044753D01*
X112454284Y-64847577D01*
X112312449Y-64674751D01*
X112139623Y-64532916D01*
X111942447Y-64427524D01*
X111728499Y-64362623D01*
X111561752Y-64346200D01*
X87574551Y-64346200D01*
X87518799Y-64340709D01*
X87296300Y-64362623D01*
X87246505Y-64377729D01*
X87082353Y-64427524D01*
X86885177Y-64532916D01*
X86712351Y-64674751D01*
X86676809Y-64718059D01*
X85029869Y-66365000D01*
X84838967Y-66365000D01*
X84523088Y-66427832D01*
X84225537Y-66551082D01*
X83957748Y-66730013D01*
X83730013Y-66957748D01*
X83551082Y-67225537D01*
X83427832Y-67523088D01*
X83365000Y-67838967D01*
X40660000Y-67838967D01*
X40660000Y-65858665D01*
X57565000Y-65858665D01*
X57565000Y-66141335D01*
X57620147Y-66418574D01*
X57728320Y-66679727D01*
X57885363Y-66914759D01*
X58085241Y-67114637D01*
X58320273Y-67271680D01*
X58581426Y-67379853D01*
X58858665Y-67435000D01*
X59141335Y-67435000D01*
X59418574Y-67379853D01*
X59679727Y-67271680D01*
X59914759Y-67114637D01*
X60114637Y-66914759D01*
X60157907Y-66850000D01*
X63511928Y-66850000D01*
X63524188Y-66974482D01*
X63560498Y-67094180D01*
X63619463Y-67204494D01*
X63698815Y-67301185D01*
X63795506Y-67380537D01*
X63905820Y-67439502D01*
X64025518Y-67475812D01*
X64150000Y-67488072D01*
X64714250Y-67485000D01*
X64873000Y-67326250D01*
X64873000Y-66127000D01*
X63673750Y-66127000D01*
X63515000Y-66285750D01*
X63511928Y-66850000D01*
X60157907Y-66850000D01*
X60271680Y-66679727D01*
X60379853Y-66418574D01*
X60435000Y-66141335D01*
X60435000Y-65858665D01*
X60379853Y-65581426D01*
X60271680Y-65320273D01*
X60114637Y-65085241D01*
X59914759Y-64885363D01*
X59679727Y-64728320D01*
X59418574Y-64620147D01*
X59141335Y-64565000D01*
X58858665Y-64565000D01*
X58581426Y-64620147D01*
X58320273Y-64728320D01*
X58085241Y-64885363D01*
X57885363Y-65085241D01*
X57728320Y-65320273D01*
X57620147Y-65581426D01*
X57565000Y-65858665D01*
X40660000Y-65858665D01*
X40660000Y-60933196D01*
X43284809Y-60933196D01*
X43870524Y-61615416D01*
X44854104Y-62163045D01*
X45925623Y-62508265D01*
X47043901Y-62637808D01*
X48165965Y-62546697D01*
X49248694Y-62238433D01*
X50250479Y-61724863D01*
X50414276Y-61615416D01*
X50999991Y-60933196D01*
X47142400Y-57075605D01*
X43284809Y-60933196D01*
X40660000Y-60933196D01*
X40660000Y-56797501D01*
X41400592Y-56797501D01*
X41491703Y-57919565D01*
X41799967Y-59002294D01*
X42313537Y-60004079D01*
X42422984Y-60167876D01*
X43105204Y-60753591D01*
X46962795Y-56896000D01*
X47322005Y-56896000D01*
X51179596Y-60753591D01*
X51766160Y-60250000D01*
X57836928Y-60250000D01*
X57836928Y-61750000D01*
X57849188Y-61874482D01*
X57869326Y-61940867D01*
X57881423Y-62063695D01*
X57946324Y-62277643D01*
X58051717Y-62474819D01*
X58193552Y-62647645D01*
X58236859Y-62683187D01*
X59016818Y-63463146D01*
X59052356Y-63506450D01*
X59095659Y-63541988D01*
X59095661Y-63541990D01*
X59225182Y-63648285D01*
X59422358Y-63753677D01*
X59636306Y-63818578D01*
X59858805Y-63840492D01*
X59914557Y-63835001D01*
X64189872Y-63835001D01*
X64872998Y-64518127D01*
X64872998Y-64673748D01*
X64714250Y-64515000D01*
X64150000Y-64511928D01*
X64025518Y-64524188D01*
X63905820Y-64560498D01*
X63795506Y-64619463D01*
X63698815Y-64698815D01*
X63619463Y-64795506D01*
X63560498Y-64905820D01*
X63524188Y-65025518D01*
X63511928Y-65150000D01*
X63515000Y-65714250D01*
X63673750Y-65873000D01*
X64873000Y-65873000D01*
X64873000Y-65853000D01*
X65127000Y-65853000D01*
X65127000Y-65873000D01*
X65147000Y-65873000D01*
X65147000Y-66127000D01*
X65127000Y-66127000D01*
X65127000Y-67326250D01*
X65285750Y-67485000D01*
X65850000Y-67488072D01*
X65974482Y-67475812D01*
X66094180Y-67439502D01*
X66204494Y-67380537D01*
X66301185Y-67301185D01*
X66380537Y-67204494D01*
X66439502Y-67094180D01*
X66461513Y-67021620D01*
X66593368Y-67153475D01*
X66836589Y-67315990D01*
X67106842Y-67427932D01*
X67393740Y-67485000D01*
X67686260Y-67485000D01*
X67973158Y-67427932D01*
X68243411Y-67315990D01*
X68486632Y-67153475D01*
X68693475Y-66946632D01*
X68810000Y-66772240D01*
X68926525Y-66946632D01*
X69133368Y-67153475D01*
X69376589Y-67315990D01*
X69646842Y-67427932D01*
X69933740Y-67485000D01*
X70226260Y-67485000D01*
X70513158Y-67427932D01*
X70783411Y-67315990D01*
X71026632Y-67153475D01*
X71233475Y-66946632D01*
X71395990Y-66703411D01*
X71507932Y-66433158D01*
X71565000Y-66146260D01*
X71565000Y-65853740D01*
X71507932Y-65566842D01*
X71395990Y-65296589D01*
X71233475Y-65053368D01*
X71026632Y-64846525D01*
X70783411Y-64684010D01*
X70513158Y-64572068D01*
X70226260Y-64515000D01*
X69933740Y-64515000D01*
X69646842Y-64572068D01*
X69376589Y-64684010D01*
X69133368Y-64846525D01*
X68926525Y-65053368D01*
X68810000Y-65227760D01*
X68693475Y-65053368D01*
X68486632Y-64846525D01*
X68260688Y-64695554D01*
X66457974Y-62892840D01*
X107465091Y-62892840D01*
X107559930Y-63157681D01*
X107704615Y-63398931D01*
X107893586Y-63607319D01*
X108119580Y-63774837D01*
X108373913Y-63895046D01*
X108507961Y-63935704D01*
X108730000Y-63813715D01*
X108730000Y-62670800D01*
X108984000Y-62670800D01*
X108984000Y-63813715D01*
X109206039Y-63935704D01*
X109340087Y-63895046D01*
X109594420Y-63774837D01*
X109820414Y-63607319D01*
X110009385Y-63398931D01*
X110154070Y-63157681D01*
X110248909Y-62892840D01*
X110188619Y-62782465D01*
X112422000Y-62782465D01*
X112422000Y-63065135D01*
X112477147Y-63342374D01*
X112585320Y-63603527D01*
X112742363Y-63838559D01*
X112942241Y-64038437D01*
X113177273Y-64195480D01*
X113438426Y-64303653D01*
X113715665Y-64358800D01*
X113998335Y-64358800D01*
X114275574Y-64303653D01*
X114536727Y-64195480D01*
X114771759Y-64038437D01*
X114971637Y-63838559D01*
X115128680Y-63603527D01*
X115236853Y-63342374D01*
X115292000Y-63065135D01*
X115292000Y-62782465D01*
X115236853Y-62505226D01*
X115128680Y-62244073D01*
X114971637Y-62009041D01*
X114771759Y-61809163D01*
X114536727Y-61652120D01*
X114275574Y-61543947D01*
X113998335Y-61488800D01*
X113715665Y-61488800D01*
X113438426Y-61543947D01*
X113177273Y-61652120D01*
X112942241Y-61809163D01*
X112742363Y-62009041D01*
X112585320Y-62244073D01*
X112477147Y-62505226D01*
X112422000Y-62782465D01*
X110188619Y-62782465D01*
X110127624Y-62670800D01*
X108984000Y-62670800D01*
X108730000Y-62670800D01*
X107586376Y-62670800D01*
X107465091Y-62892840D01*
X66457974Y-62892840D01*
X66193646Y-62628513D01*
X66476912Y-62572168D01*
X66774463Y-62448918D01*
X67042252Y-62269987D01*
X67117479Y-62194760D01*
X107465091Y-62194760D01*
X107586376Y-62416800D01*
X108730000Y-62416800D01*
X108730000Y-61273885D01*
X108984000Y-61273885D01*
X108984000Y-62416800D01*
X110127624Y-62416800D01*
X110248909Y-62194760D01*
X110154070Y-61929919D01*
X110009385Y-61688669D01*
X109820414Y-61480281D01*
X109594420Y-61312763D01*
X109340087Y-61192554D01*
X109206039Y-61151896D01*
X108984000Y-61273885D01*
X108730000Y-61273885D01*
X108507961Y-61151896D01*
X108373913Y-61192554D01*
X108119580Y-61312763D01*
X107893586Y-61480281D01*
X107704615Y-61688669D01*
X107559930Y-61929919D01*
X107465091Y-62194760D01*
X67117479Y-62194760D01*
X67269987Y-62042252D01*
X67448918Y-61774463D01*
X67572168Y-61476912D01*
X67635000Y-61161033D01*
X67635000Y-60838967D01*
X67603756Y-60681890D01*
X118979924Y-60681890D01*
X119024575Y-60829099D01*
X119149759Y-61091920D01*
X119323812Y-61325269D01*
X119540045Y-61520178D01*
X119790148Y-61669157D01*
X120064509Y-61766481D01*
X120294400Y-61645814D01*
X120294400Y-60452000D01*
X120548400Y-60452000D01*
X120548400Y-61645814D01*
X120778291Y-61766481D01*
X121052652Y-61669157D01*
X121302755Y-61520178D01*
X121518988Y-61325269D01*
X121678812Y-61110996D01*
X129213009Y-61110996D01*
X129798724Y-61793216D01*
X130782304Y-62340845D01*
X131853823Y-62686065D01*
X132972101Y-62815608D01*
X134094165Y-62724497D01*
X135176894Y-62416233D01*
X136178679Y-61902663D01*
X136342476Y-61793216D01*
X136928191Y-61110996D01*
X133070600Y-57253405D01*
X129213009Y-61110996D01*
X121678812Y-61110996D01*
X121693041Y-61091920D01*
X121818225Y-60829099D01*
X121862876Y-60681890D01*
X121741555Y-60452000D01*
X120548400Y-60452000D01*
X120294400Y-60452000D01*
X119101245Y-60452000D01*
X118979924Y-60681890D01*
X67603756Y-60681890D01*
X67572168Y-60523088D01*
X67448918Y-60225537D01*
X67269987Y-59957748D01*
X67042252Y-59730013D01*
X66774463Y-59551082D01*
X66476912Y-59427832D01*
X66161033Y-59365000D01*
X65838967Y-59365000D01*
X65523088Y-59427832D01*
X65225537Y-59551082D01*
X64957748Y-59730013D01*
X64822761Y-59865000D01*
X62426264Y-59865000D01*
X62302831Y-59763702D01*
X62147134Y-59680480D01*
X61978193Y-59629232D01*
X61802500Y-59611928D01*
X61277500Y-59611928D01*
X61101807Y-59629232D01*
X60932866Y-59680480D01*
X60905000Y-59695375D01*
X60877134Y-59680480D01*
X60708193Y-59629232D01*
X60532500Y-59611928D01*
X60007500Y-59611928D01*
X59831807Y-59629232D01*
X59748959Y-59654364D01*
X59649482Y-59624188D01*
X59525000Y-59611928D01*
X58475000Y-59611928D01*
X58350518Y-59624188D01*
X58230820Y-59660498D01*
X58120506Y-59719463D01*
X58023815Y-59798815D01*
X57944463Y-59895506D01*
X57885498Y-60005820D01*
X57849188Y-60125518D01*
X57836928Y-60250000D01*
X51766160Y-60250000D01*
X51861816Y-60167876D01*
X52409445Y-59184296D01*
X52754665Y-58112777D01*
X52884208Y-56994499D01*
X52879377Y-56935000D01*
X118933328Y-56935000D01*
X118933328Y-58635000D01*
X118945588Y-58759482D01*
X118981898Y-58879180D01*
X119040863Y-58989494D01*
X119120215Y-59086185D01*
X119216906Y-59165537D01*
X119327220Y-59224502D01*
X119407866Y-59248966D01*
X119323812Y-59324731D01*
X119149759Y-59558080D01*
X119024575Y-59820901D01*
X118979924Y-59968110D01*
X119101245Y-60198000D01*
X120294400Y-60198000D01*
X120294400Y-60178000D01*
X120548400Y-60178000D01*
X120548400Y-60198000D01*
X121741555Y-60198000D01*
X121862876Y-59968110D01*
X121818225Y-59820901D01*
X121693041Y-59558080D01*
X121518988Y-59324731D01*
X121434934Y-59248966D01*
X121515580Y-59224502D01*
X121625894Y-59165537D01*
X121722585Y-59086185D01*
X121801937Y-58989494D01*
X121860902Y-58879180D01*
X121897212Y-58759482D01*
X121909472Y-58635000D01*
X121909472Y-56975301D01*
X127328792Y-56975301D01*
X127419903Y-58097365D01*
X127728167Y-59180094D01*
X128241737Y-60181879D01*
X128351184Y-60345676D01*
X129033404Y-60931391D01*
X132890995Y-57073800D01*
X133250205Y-57073800D01*
X137107796Y-60931391D01*
X137790016Y-60345676D01*
X138337645Y-59362096D01*
X138682865Y-58290577D01*
X138812408Y-57172299D01*
X138721297Y-56050235D01*
X138413033Y-54967506D01*
X137899463Y-53965721D01*
X137790016Y-53801924D01*
X137107796Y-53216209D01*
X133250205Y-57073800D01*
X132890995Y-57073800D01*
X129033404Y-53216209D01*
X128351184Y-53801924D01*
X127803555Y-54785504D01*
X127458335Y-55857023D01*
X127328792Y-56975301D01*
X121909472Y-56975301D01*
X121909472Y-56935000D01*
X121897212Y-56810518D01*
X121860902Y-56690820D01*
X121801937Y-56580506D01*
X121722585Y-56483815D01*
X121625894Y-56404463D01*
X121515580Y-56345498D01*
X121395882Y-56309188D01*
X121271400Y-56296928D01*
X119571400Y-56296928D01*
X119446918Y-56309188D01*
X119327220Y-56345498D01*
X119216906Y-56404463D01*
X119120215Y-56483815D01*
X119040863Y-56580506D01*
X118981898Y-56690820D01*
X118945588Y-56810518D01*
X118933328Y-56935000D01*
X52879377Y-56935000D01*
X52793097Y-55872435D01*
X52484833Y-54789706D01*
X51971263Y-53787921D01*
X51861816Y-53624124D01*
X51179596Y-53038409D01*
X47322005Y-56896000D01*
X46962795Y-56896000D01*
X43105204Y-53038409D01*
X42422984Y-53624124D01*
X41875355Y-54607704D01*
X41530135Y-55679223D01*
X41400592Y-56797501D01*
X40660000Y-56797501D01*
X40660000Y-52858804D01*
X43284809Y-52858804D01*
X47142400Y-56716395D01*
X50999991Y-52858804D01*
X50414276Y-52176584D01*
X49430696Y-51628955D01*
X48359177Y-51283735D01*
X47240899Y-51154192D01*
X46118835Y-51245303D01*
X45036106Y-51553567D01*
X44034321Y-52067137D01*
X43870524Y-52176584D01*
X43284809Y-52858804D01*
X40660000Y-52858804D01*
X40660000Y-50478665D01*
X56317600Y-50478665D01*
X56317600Y-50761335D01*
X56372747Y-51038574D01*
X56480920Y-51299727D01*
X56637963Y-51534759D01*
X56837841Y-51734637D01*
X57072873Y-51891680D01*
X57334026Y-51999853D01*
X57611265Y-52055000D01*
X57893935Y-52055000D01*
X58171174Y-51999853D01*
X58329246Y-51934377D01*
X61409428Y-55014560D01*
X61409428Y-56000000D01*
X61421688Y-56124482D01*
X61457998Y-56244180D01*
X61516963Y-56354494D01*
X61596315Y-56451185D01*
X61693006Y-56530537D01*
X61803320Y-56589502D01*
X61923018Y-56625812D01*
X62047500Y-56638072D01*
X63952500Y-56638072D01*
X64076982Y-56625812D01*
X64196680Y-56589502D01*
X64306994Y-56530537D01*
X64403685Y-56451185D01*
X64483037Y-56354494D01*
X64527905Y-56270553D01*
X64653766Y-56373845D01*
X64929552Y-56521255D01*
X65228797Y-56612030D01*
X65540000Y-56642681D01*
X65851204Y-56612030D01*
X66150449Y-56521255D01*
X66426235Y-56373845D01*
X66667963Y-56175463D01*
X66810000Y-56002391D01*
X66952037Y-56175463D01*
X67193766Y-56373845D01*
X67469552Y-56521255D01*
X67768797Y-56612030D01*
X68080000Y-56642681D01*
X68391204Y-56612030D01*
X68690449Y-56521255D01*
X68966235Y-56373845D01*
X69207963Y-56175463D01*
X69406345Y-55933734D01*
X69553755Y-55657948D01*
X69644530Y-55358703D01*
X69667500Y-55125485D01*
X69667500Y-54874514D01*
X69658434Y-54782465D01*
X107422000Y-54782465D01*
X107422000Y-55065135D01*
X107477147Y-55342374D01*
X107585320Y-55603527D01*
X107742363Y-55838559D01*
X107942241Y-56038437D01*
X108177273Y-56195480D01*
X108438426Y-56303653D01*
X108715665Y-56358800D01*
X108998335Y-56358800D01*
X109275574Y-56303653D01*
X109536727Y-56195480D01*
X109771759Y-56038437D01*
X109971637Y-55838559D01*
X110128680Y-55603527D01*
X110236853Y-55342374D01*
X110272639Y-55162465D01*
X112422000Y-55162465D01*
X112422000Y-55445135D01*
X112477147Y-55722374D01*
X112585320Y-55983527D01*
X112742363Y-56218559D01*
X112942241Y-56418437D01*
X113177273Y-56575480D01*
X113438426Y-56683653D01*
X113715665Y-56738800D01*
X113998335Y-56738800D01*
X114275574Y-56683653D01*
X114536727Y-56575480D01*
X114771759Y-56418437D01*
X114971637Y-56218559D01*
X115128680Y-55983527D01*
X115236853Y-55722374D01*
X115292000Y-55445135D01*
X115292000Y-55162465D01*
X115236853Y-54885226D01*
X115128680Y-54624073D01*
X114971637Y-54389041D01*
X114771759Y-54189163D01*
X114536727Y-54032120D01*
X114275574Y-53923947D01*
X113998335Y-53868800D01*
X113715665Y-53868800D01*
X113438426Y-53923947D01*
X113177273Y-54032120D01*
X112942241Y-54189163D01*
X112742363Y-54389041D01*
X112585320Y-54624073D01*
X112477147Y-54885226D01*
X112422000Y-55162465D01*
X110272639Y-55162465D01*
X110292000Y-55065135D01*
X110292000Y-54782465D01*
X110236853Y-54505226D01*
X110128680Y-54244073D01*
X109971637Y-54009041D01*
X109771759Y-53809163D01*
X109536727Y-53652120D01*
X109275574Y-53543947D01*
X108998335Y-53488800D01*
X108715665Y-53488800D01*
X108438426Y-53543947D01*
X108177273Y-53652120D01*
X107942241Y-53809163D01*
X107742363Y-54009041D01*
X107585320Y-54244073D01*
X107477147Y-54505226D01*
X107422000Y-54782465D01*
X69658434Y-54782465D01*
X69644530Y-54641296D01*
X69553755Y-54342051D01*
X69406345Y-54066265D01*
X69207963Y-53824537D01*
X68966234Y-53626155D01*
X68690448Y-53478745D01*
X68391203Y-53387970D01*
X68080000Y-53357319D01*
X68045817Y-53360686D01*
X66423796Y-51738665D01*
X66388249Y-51695351D01*
X66215423Y-51553516D01*
X66018247Y-51448124D01*
X65804299Y-51383223D01*
X65637552Y-51366800D01*
X65637551Y-51366800D01*
X65581800Y-51361309D01*
X65526049Y-51366800D01*
X63317248Y-51366800D01*
X63150501Y-51383223D01*
X62936553Y-51448124D01*
X62739377Y-51553516D01*
X62566551Y-51695351D01*
X62424716Y-51868177D01*
X62319324Y-52065353D01*
X62254423Y-52279301D01*
X62232509Y-52501800D01*
X62246228Y-52641097D01*
X59461996Y-49856865D01*
X59426449Y-49813551D01*
X59253623Y-49671716D01*
X59226092Y-49657000D01*
X64264509Y-49657000D01*
X64286423Y-49879499D01*
X64351324Y-50093447D01*
X64456716Y-50290623D01*
X64598551Y-50463449D01*
X64771377Y-50605284D01*
X64968553Y-50710676D01*
X65182501Y-50775577D01*
X65349248Y-50792000D01*
X71681975Y-50792000D01*
X71693388Y-50907882D01*
X71729698Y-51027580D01*
X71788663Y-51137894D01*
X71868015Y-51234585D01*
X71964706Y-51313937D01*
X72075020Y-51372902D01*
X72194718Y-51409212D01*
X72319200Y-51421472D01*
X74119200Y-51421472D01*
X74243682Y-51409212D01*
X74265923Y-51402465D01*
X107422000Y-51402465D01*
X107422000Y-51685135D01*
X107477147Y-51962374D01*
X107585320Y-52223527D01*
X107742363Y-52458559D01*
X107942241Y-52658437D01*
X108177273Y-52815480D01*
X108438426Y-52923653D01*
X108715665Y-52978800D01*
X108998335Y-52978800D01*
X109275574Y-52923653D01*
X109536727Y-52815480D01*
X109771759Y-52658437D01*
X109971637Y-52458559D01*
X110128680Y-52223527D01*
X110236853Y-51962374D01*
X110272639Y-51782465D01*
X112422000Y-51782465D01*
X112422000Y-52065135D01*
X112477147Y-52342374D01*
X112585320Y-52603527D01*
X112742363Y-52838559D01*
X112942241Y-53038437D01*
X113177273Y-53195480D01*
X113438426Y-53303653D01*
X113715665Y-53358800D01*
X113998335Y-53358800D01*
X114275574Y-53303653D01*
X114536727Y-53195480D01*
X114771759Y-53038437D01*
X114773592Y-53036604D01*
X129213009Y-53036604D01*
X133070600Y-56894195D01*
X136928191Y-53036604D01*
X136342476Y-52354384D01*
X135358896Y-51806755D01*
X134287377Y-51461535D01*
X133169099Y-51331992D01*
X132047035Y-51423103D01*
X130964306Y-51731367D01*
X129962521Y-52244937D01*
X129798724Y-52354384D01*
X129213009Y-53036604D01*
X114773592Y-53036604D01*
X114971637Y-52838559D01*
X115128680Y-52603527D01*
X115236853Y-52342374D01*
X115292000Y-52065135D01*
X115292000Y-51782465D01*
X115236853Y-51505226D01*
X115128680Y-51244073D01*
X114971637Y-51009041D01*
X114771759Y-50809163D01*
X114536727Y-50652120D01*
X114275574Y-50543947D01*
X113998335Y-50488800D01*
X113715665Y-50488800D01*
X113438426Y-50543947D01*
X113177273Y-50652120D01*
X112942241Y-50809163D01*
X112742363Y-51009041D01*
X112585320Y-51244073D01*
X112477147Y-51505226D01*
X112422000Y-51782465D01*
X110272639Y-51782465D01*
X110292000Y-51685135D01*
X110292000Y-51402465D01*
X110236853Y-51125226D01*
X110128680Y-50864073D01*
X109971637Y-50629041D01*
X109771759Y-50429163D01*
X109536727Y-50272120D01*
X109275574Y-50163947D01*
X108998335Y-50108800D01*
X108715665Y-50108800D01*
X108438426Y-50163947D01*
X108177273Y-50272120D01*
X107942241Y-50429163D01*
X107742363Y-50629041D01*
X107585320Y-50864073D01*
X107477147Y-51125226D01*
X107422000Y-51402465D01*
X74265923Y-51402465D01*
X74363380Y-51372902D01*
X74473694Y-51313937D01*
X74570385Y-51234585D01*
X74649737Y-51137894D01*
X74708702Y-51027580D01*
X74745012Y-50907882D01*
X74757272Y-50783400D01*
X74757272Y-50135000D01*
X76115716Y-50135000D01*
X76320273Y-50271680D01*
X76581426Y-50379853D01*
X76858665Y-50435000D01*
X77141335Y-50435000D01*
X77418574Y-50379853D01*
X77679727Y-50271680D01*
X77914759Y-50114637D01*
X78114637Y-49914759D01*
X78271680Y-49679727D01*
X78379853Y-49418574D01*
X78435000Y-49141335D01*
X78435000Y-48858665D01*
X103865000Y-48858665D01*
X103865000Y-49141335D01*
X103920147Y-49418574D01*
X104028320Y-49679727D01*
X104185363Y-49914759D01*
X104385241Y-50114637D01*
X104620273Y-50271680D01*
X104881426Y-50379853D01*
X105158665Y-50435000D01*
X105441335Y-50435000D01*
X105718574Y-50379853D01*
X105979727Y-50271680D01*
X106214759Y-50114637D01*
X106414637Y-49914759D01*
X106571680Y-49679727D01*
X106679853Y-49418574D01*
X106688341Y-49375902D01*
X119608303Y-49375902D01*
X119679886Y-49619871D01*
X119935396Y-49740771D01*
X120209584Y-49809500D01*
X120491912Y-49823417D01*
X120771530Y-49781987D01*
X121037692Y-49686803D01*
X121162914Y-49619871D01*
X121234497Y-49375902D01*
X120421400Y-48562805D01*
X119608303Y-49375902D01*
X106688341Y-49375902D01*
X106735000Y-49141335D01*
X106735000Y-48858665D01*
X106679853Y-48581426D01*
X106626953Y-48453712D01*
X118981183Y-48453712D01*
X119022613Y-48733330D01*
X119117797Y-48999492D01*
X119184729Y-49124714D01*
X119428698Y-49196297D01*
X120241795Y-48383200D01*
X120601005Y-48383200D01*
X121414102Y-49196297D01*
X121658071Y-49124714D01*
X121778971Y-48869204D01*
X121847700Y-48595016D01*
X121861617Y-48312688D01*
X121820187Y-48033070D01*
X121725003Y-47766908D01*
X121658071Y-47641686D01*
X121414102Y-47570103D01*
X120601005Y-48383200D01*
X120241795Y-48383200D01*
X119428698Y-47570103D01*
X119184729Y-47641686D01*
X119063829Y-47897196D01*
X118995100Y-48171384D01*
X118981183Y-48453712D01*
X106626953Y-48453712D01*
X106571680Y-48320273D01*
X106414637Y-48085241D01*
X106214759Y-47885363D01*
X105979727Y-47728320D01*
X105718574Y-47620147D01*
X105441335Y-47565000D01*
X105158665Y-47565000D01*
X104881426Y-47620147D01*
X104620273Y-47728320D01*
X104385241Y-47885363D01*
X104185363Y-48085241D01*
X104028320Y-48320273D01*
X103920147Y-48581426D01*
X103865000Y-48858665D01*
X78435000Y-48858665D01*
X78379853Y-48581426D01*
X78271680Y-48320273D01*
X78114637Y-48085241D01*
X77914759Y-47885363D01*
X77679727Y-47728320D01*
X77418574Y-47620147D01*
X77141335Y-47565000D01*
X76858665Y-47565000D01*
X76581426Y-47620147D01*
X76320273Y-47728320D01*
X76115716Y-47865000D01*
X74597291Y-47865000D01*
X74570385Y-47832215D01*
X74473694Y-47752863D01*
X74363380Y-47693898D01*
X74243682Y-47657588D01*
X74119200Y-47645328D01*
X72319200Y-47645328D01*
X72194718Y-47657588D01*
X72075020Y-47693898D01*
X71964706Y-47752863D01*
X71868015Y-47832215D01*
X71788663Y-47928906D01*
X71729698Y-48039220D01*
X71693388Y-48158918D01*
X71681128Y-48283400D01*
X71681128Y-48522000D01*
X65349248Y-48522000D01*
X65182501Y-48538423D01*
X64968553Y-48603324D01*
X64771377Y-48708716D01*
X64598551Y-48850551D01*
X64456716Y-49023377D01*
X64351324Y-49220553D01*
X64286423Y-49434501D01*
X64264509Y-49657000D01*
X59226092Y-49657000D01*
X59056447Y-49566324D01*
X58842499Y-49501423D01*
X58675752Y-49485000D01*
X58675751Y-49485000D01*
X58630164Y-49480510D01*
X58432327Y-49348320D01*
X58171174Y-49240147D01*
X57893935Y-49185000D01*
X57611265Y-49185000D01*
X57334026Y-49240147D01*
X57072873Y-49348320D01*
X56837841Y-49505363D01*
X56637963Y-49705241D01*
X56480920Y-49940273D01*
X56372747Y-50201426D01*
X56317600Y-50478665D01*
X40660000Y-50478665D01*
X40660000Y-46783400D01*
X71681128Y-46783400D01*
X71693388Y-46907882D01*
X71729698Y-47027580D01*
X71788663Y-47137894D01*
X71868015Y-47234585D01*
X71964706Y-47313937D01*
X72075020Y-47372902D01*
X72194718Y-47409212D01*
X72319200Y-47421472D01*
X72933450Y-47418400D01*
X73092200Y-47259650D01*
X73092200Y-45660400D01*
X73346200Y-45660400D01*
X73346200Y-47259650D01*
X73504950Y-47418400D01*
X74119200Y-47421472D01*
X74243682Y-47409212D01*
X74305373Y-47390498D01*
X119608303Y-47390498D01*
X120421400Y-48203595D01*
X121234497Y-47390498D01*
X121162914Y-47146529D01*
X120907404Y-47025629D01*
X120633216Y-46956900D01*
X120350888Y-46942983D01*
X120071270Y-46984413D01*
X119805108Y-47079597D01*
X119679886Y-47146529D01*
X119608303Y-47390498D01*
X74305373Y-47390498D01*
X74363380Y-47372902D01*
X74473694Y-47313937D01*
X74570385Y-47234585D01*
X74649737Y-47137894D01*
X74708702Y-47027580D01*
X74745012Y-46907882D01*
X74757272Y-46783400D01*
X74754200Y-45819150D01*
X74595450Y-45660400D01*
X73346200Y-45660400D01*
X73092200Y-45660400D01*
X71842950Y-45660400D01*
X71684200Y-45819150D01*
X71681128Y-46783400D01*
X40660000Y-46783400D01*
X40660000Y-37283122D01*
X41427400Y-37283122D01*
X41427400Y-38408878D01*
X41647025Y-39513004D01*
X42077833Y-40553067D01*
X42703270Y-41489100D01*
X43499300Y-42285130D01*
X44435333Y-42910567D01*
X45475396Y-43341375D01*
X46579522Y-43561000D01*
X47705278Y-43561000D01*
X48809404Y-43341375D01*
X49849467Y-42910567D01*
X49927143Y-42858665D01*
X56317600Y-42858665D01*
X56317600Y-43141335D01*
X56372747Y-43418574D01*
X56480920Y-43679727D01*
X56637963Y-43914759D01*
X56837841Y-44114637D01*
X57072873Y-44271680D01*
X57334026Y-44379853D01*
X57611265Y-44435000D01*
X57893935Y-44435000D01*
X58171174Y-44379853D01*
X58432327Y-44271680D01*
X58636884Y-44135000D01*
X60129979Y-44135000D01*
X60163098Y-44244180D01*
X60222063Y-44354494D01*
X60301415Y-44451185D01*
X60398106Y-44530537D01*
X60508420Y-44589502D01*
X60628118Y-44625812D01*
X60752600Y-44638072D01*
X62752600Y-44638072D01*
X62877082Y-44625812D01*
X62996780Y-44589502D01*
X63107094Y-44530537D01*
X63203785Y-44451185D01*
X63283137Y-44354494D01*
X63342102Y-44244180D01*
X63375096Y-44135413D01*
X68296792Y-44135413D01*
X68392556Y-44399814D01*
X68682171Y-44540704D01*
X68993708Y-44622384D01*
X69315195Y-44641718D01*
X69634275Y-44597961D01*
X69938688Y-44492795D01*
X70112644Y-44399814D01*
X70154808Y-44283400D01*
X71681128Y-44283400D01*
X71684200Y-45247650D01*
X71842950Y-45406400D01*
X73092200Y-45406400D01*
X73092200Y-43807150D01*
X73346200Y-43807150D01*
X73346200Y-45406400D01*
X74595450Y-45406400D01*
X74754200Y-45247650D01*
X74757272Y-44283400D01*
X74745012Y-44158918D01*
X74708702Y-44039220D01*
X74649737Y-43928906D01*
X74570385Y-43832215D01*
X74509765Y-43782465D01*
X107422000Y-43782465D01*
X107422000Y-44065135D01*
X107477147Y-44342374D01*
X107585320Y-44603527D01*
X107742363Y-44838559D01*
X107942241Y-45038437D01*
X108177273Y-45195480D01*
X108438426Y-45303653D01*
X108715665Y-45358800D01*
X108998335Y-45358800D01*
X109275574Y-45303653D01*
X109536727Y-45195480D01*
X109771759Y-45038437D01*
X109971637Y-44838559D01*
X110095730Y-44652840D01*
X112465091Y-44652840D01*
X112559930Y-44917681D01*
X112704615Y-45158931D01*
X112893586Y-45367319D01*
X113119580Y-45534837D01*
X113373913Y-45655046D01*
X113507961Y-45695704D01*
X113730000Y-45573715D01*
X113730000Y-44430800D01*
X113984000Y-44430800D01*
X113984000Y-45573715D01*
X114206039Y-45695704D01*
X114340087Y-45655046D01*
X114594420Y-45534837D01*
X114820414Y-45367319D01*
X115009385Y-45158931D01*
X115154070Y-44917681D01*
X115248909Y-44652840D01*
X115127624Y-44430800D01*
X113984000Y-44430800D01*
X113730000Y-44430800D01*
X112586376Y-44430800D01*
X112465091Y-44652840D01*
X110095730Y-44652840D01*
X110128680Y-44603527D01*
X110236853Y-44342374D01*
X110292000Y-44065135D01*
X110292000Y-43954760D01*
X112465091Y-43954760D01*
X112586376Y-44176800D01*
X113730000Y-44176800D01*
X113730000Y-43033885D01*
X113984000Y-43033885D01*
X113984000Y-44176800D01*
X115127624Y-44176800D01*
X115248909Y-43954760D01*
X115154070Y-43689919D01*
X115009385Y-43448669D01*
X114820414Y-43240281D01*
X114594420Y-43072763D01*
X114340087Y-42952554D01*
X114206039Y-42911896D01*
X113984000Y-43033885D01*
X113730000Y-43033885D01*
X113507961Y-42911896D01*
X113373913Y-42952554D01*
X113119580Y-43072763D01*
X112893586Y-43240281D01*
X112704615Y-43448669D01*
X112559930Y-43689919D01*
X112465091Y-43954760D01*
X110292000Y-43954760D01*
X110292000Y-43782465D01*
X110236853Y-43505226D01*
X110128680Y-43244073D01*
X109971637Y-43009041D01*
X109771759Y-42809163D01*
X109536727Y-42652120D01*
X109275574Y-42543947D01*
X108998335Y-42488800D01*
X108715665Y-42488800D01*
X108438426Y-42543947D01*
X108177273Y-42652120D01*
X107942241Y-42809163D01*
X107742363Y-43009041D01*
X107585320Y-43244073D01*
X107477147Y-43505226D01*
X107422000Y-43782465D01*
X74509765Y-43782465D01*
X74473694Y-43752863D01*
X74363380Y-43693898D01*
X74243682Y-43657588D01*
X74119200Y-43645328D01*
X73504950Y-43648400D01*
X73346200Y-43807150D01*
X73092200Y-43807150D01*
X72933450Y-43648400D01*
X72319200Y-43645328D01*
X72194718Y-43657588D01*
X72075020Y-43693898D01*
X71964706Y-43752863D01*
X71868015Y-43832215D01*
X71788663Y-43928906D01*
X71729698Y-44039220D01*
X71693388Y-44158918D01*
X71681128Y-44283400D01*
X70154808Y-44283400D01*
X70208408Y-44135413D01*
X69252600Y-43179605D01*
X68296792Y-44135413D01*
X63375096Y-44135413D01*
X63378412Y-44124482D01*
X63390672Y-44000000D01*
X63390672Y-43062595D01*
X67610882Y-43062595D01*
X67654639Y-43381675D01*
X67759805Y-43686088D01*
X67852786Y-43860044D01*
X68117187Y-43955808D01*
X69072995Y-43000000D01*
X69432205Y-43000000D01*
X70388013Y-43955808D01*
X70652414Y-43860044D01*
X70793304Y-43570429D01*
X70874984Y-43258892D01*
X70894318Y-42937405D01*
X70850561Y-42618325D01*
X70745395Y-42313912D01*
X70652414Y-42139956D01*
X70388013Y-42044192D01*
X69432205Y-43000000D01*
X69072995Y-43000000D01*
X68117187Y-42044192D01*
X67852786Y-42139956D01*
X67711896Y-42429571D01*
X67630216Y-42741108D01*
X67610882Y-43062595D01*
X63390672Y-43062595D01*
X63390672Y-42000000D01*
X63378412Y-41875518D01*
X63375097Y-41864587D01*
X68296792Y-41864587D01*
X69252600Y-42820395D01*
X70208408Y-41864587D01*
X70112644Y-41600186D01*
X69823029Y-41459296D01*
X69511492Y-41377616D01*
X69190005Y-41358282D01*
X68870925Y-41402039D01*
X68566512Y-41507205D01*
X68392556Y-41600186D01*
X68296792Y-41864587D01*
X63375097Y-41864587D01*
X63342102Y-41755820D01*
X63283137Y-41645506D01*
X63203785Y-41548815D01*
X63107094Y-41469463D01*
X62996780Y-41410498D01*
X62877082Y-41374188D01*
X62752600Y-41361928D01*
X60752600Y-41361928D01*
X60628118Y-41374188D01*
X60508420Y-41410498D01*
X60398106Y-41469463D01*
X60301415Y-41548815D01*
X60222063Y-41645506D01*
X60163098Y-41755820D01*
X60129979Y-41865000D01*
X58636884Y-41865000D01*
X58432327Y-41728320D01*
X58171174Y-41620147D01*
X57893935Y-41565000D01*
X57611265Y-41565000D01*
X57334026Y-41620147D01*
X57072873Y-41728320D01*
X56837841Y-41885363D01*
X56637963Y-42085241D01*
X56480920Y-42320273D01*
X56372747Y-42581426D01*
X56317600Y-42858665D01*
X49927143Y-42858665D01*
X50785500Y-42285130D01*
X51581530Y-41489100D01*
X52206967Y-40553067D01*
X52637775Y-39513004D01*
X52857400Y-38408878D01*
X52857400Y-37283122D01*
X52827937Y-37135000D01*
X57575361Y-37135000D01*
X57710348Y-37269987D01*
X57978137Y-37448918D01*
X58275688Y-37572168D01*
X58591567Y-37635000D01*
X58913633Y-37635000D01*
X59229512Y-37572168D01*
X59527063Y-37448918D01*
X59794852Y-37269987D01*
X59929839Y-37135000D01*
X63868316Y-37135000D01*
X64072873Y-37271680D01*
X64334026Y-37379853D01*
X64611265Y-37435000D01*
X64893935Y-37435000D01*
X65171174Y-37379853D01*
X65432327Y-37271680D01*
X65667359Y-37114637D01*
X65789294Y-36992702D01*
X68939503Y-36992702D01*
X69011086Y-37236671D01*
X69266596Y-37357571D01*
X69540784Y-37426300D01*
X69823112Y-37440217D01*
X70102730Y-37398787D01*
X70368892Y-37303603D01*
X70494114Y-37236671D01*
X70565697Y-36992702D01*
X70411962Y-36838967D01*
X71365000Y-36838967D01*
X71365000Y-37161033D01*
X71427832Y-37476912D01*
X71551082Y-37774463D01*
X71730013Y-38042252D01*
X71957748Y-38269987D01*
X72225537Y-38448918D01*
X72523088Y-38572168D01*
X72838967Y-38635000D01*
X73161033Y-38635000D01*
X73476912Y-38572168D01*
X73774463Y-38448918D01*
X74042252Y-38269987D01*
X74269987Y-38042252D01*
X74448918Y-37774463D01*
X74572168Y-37476912D01*
X74635000Y-37161033D01*
X74635000Y-36838967D01*
X74572168Y-36523088D01*
X74448918Y-36225537D01*
X74269987Y-35957748D01*
X74137304Y-35825065D01*
X106794400Y-35825065D01*
X106794400Y-36107735D01*
X106849547Y-36384974D01*
X106957720Y-36646127D01*
X107114763Y-36881159D01*
X107314641Y-37081037D01*
X107549673Y-37238080D01*
X107810826Y-37346253D01*
X108052118Y-37394250D01*
X109965057Y-39307188D01*
X109889068Y-39490642D01*
X109832000Y-39777540D01*
X109832000Y-40070060D01*
X109889068Y-40356958D01*
X110001010Y-40627211D01*
X110163525Y-40870432D01*
X110370368Y-41077275D01*
X110613589Y-41239790D01*
X110883842Y-41351732D01*
X111170740Y-41408800D01*
X111463260Y-41408800D01*
X111750158Y-41351732D01*
X112020411Y-41239790D01*
X112263632Y-41077275D01*
X112395487Y-40945420D01*
X112417498Y-41017980D01*
X112476463Y-41128294D01*
X112555815Y-41224985D01*
X112652506Y-41304337D01*
X112762820Y-41363302D01*
X112882518Y-41399612D01*
X113007000Y-41411872D01*
X113739941Y-41411872D01*
X116474409Y-44146341D01*
X116509951Y-44189649D01*
X116682777Y-44331484D01*
X116879953Y-44436876D01*
X117093901Y-44501777D01*
X117260648Y-44518200D01*
X117260657Y-44518200D01*
X117316399Y-44523690D01*
X117372141Y-44518200D01*
X119080443Y-44518200D01*
X119090863Y-44537694D01*
X119170215Y-44634385D01*
X119266906Y-44713737D01*
X119377220Y-44772702D01*
X119496918Y-44809012D01*
X119621400Y-44821272D01*
X121221400Y-44821272D01*
X121345882Y-44809012D01*
X121465580Y-44772702D01*
X121575894Y-44713737D01*
X121672585Y-44634385D01*
X121751937Y-44537694D01*
X121810902Y-44427380D01*
X121847212Y-44307682D01*
X121859472Y-44183200D01*
X121859472Y-42583200D01*
X121847212Y-42458718D01*
X121810902Y-42339020D01*
X121751937Y-42228706D01*
X121672585Y-42132015D01*
X121575894Y-42052663D01*
X121465580Y-41993698D01*
X121345882Y-41957388D01*
X121221400Y-41945128D01*
X119621400Y-41945128D01*
X119496918Y-41957388D01*
X119377220Y-41993698D01*
X119266906Y-42052663D01*
X119170215Y-42132015D01*
X119090863Y-42228706D01*
X119080443Y-42248200D01*
X117786532Y-42248200D01*
X115345072Y-39806741D01*
X115345072Y-39073800D01*
X115332812Y-38949318D01*
X115296502Y-38829620D01*
X115237537Y-38719306D01*
X115158185Y-38622615D01*
X115061494Y-38543263D01*
X114992000Y-38506117D01*
X114992000Y-38428931D01*
X116026682Y-37394250D01*
X116267974Y-37346253D01*
X116529127Y-37238080D01*
X116733684Y-37101400D01*
X120977849Y-37101400D01*
X121033600Y-37106891D01*
X121089351Y-37101400D01*
X121089352Y-37101400D01*
X121256099Y-37084977D01*
X121470047Y-37020076D01*
X121667223Y-36914684D01*
X121840049Y-36772849D01*
X121875596Y-36729536D01*
X121970131Y-36635000D01*
X122161033Y-36635000D01*
X122476912Y-36572168D01*
X122774463Y-36448918D01*
X123042252Y-36269987D01*
X123177239Y-36135000D01*
X127667096Y-36135000D01*
X127575225Y-36356796D01*
X127355600Y-37460922D01*
X127355600Y-38586678D01*
X127575225Y-39690804D01*
X128006033Y-40730867D01*
X128631470Y-41666900D01*
X129427500Y-42462930D01*
X130363533Y-43088367D01*
X131403596Y-43519175D01*
X132507722Y-43738800D01*
X133633478Y-43738800D01*
X134737604Y-43519175D01*
X135777667Y-43088367D01*
X136713700Y-42462930D01*
X137509730Y-41666900D01*
X138135167Y-40730867D01*
X138565975Y-39690804D01*
X138785600Y-38586678D01*
X138785600Y-37460922D01*
X138565975Y-36356796D01*
X138135167Y-35316733D01*
X137509730Y-34380700D01*
X136713700Y-33584670D01*
X135777667Y-32959233D01*
X134737604Y-32528425D01*
X133633478Y-32308800D01*
X132507722Y-32308800D01*
X131403596Y-32528425D01*
X130363533Y-32959233D01*
X129427500Y-33584670D01*
X129147170Y-33865000D01*
X123177239Y-33865000D01*
X123042252Y-33730013D01*
X122774463Y-33551082D01*
X122476912Y-33427832D01*
X122161033Y-33365000D01*
X121838967Y-33365000D01*
X121523088Y-33427832D01*
X121225537Y-33551082D01*
X120957748Y-33730013D01*
X120730013Y-33957748D01*
X120551082Y-34225537D01*
X120427832Y-34523088D01*
X120366505Y-34831400D01*
X116733684Y-34831400D01*
X116529127Y-34694720D01*
X116267974Y-34586547D01*
X115990735Y-34531400D01*
X115708065Y-34531400D01*
X115430826Y-34586547D01*
X115169673Y-34694720D01*
X114934641Y-34851763D01*
X114734763Y-35051641D01*
X114577720Y-35286673D01*
X114469547Y-35547826D01*
X114421550Y-35789118D01*
X113093860Y-37116809D01*
X113050552Y-37152351D01*
X112908717Y-37325177D01*
X112873974Y-37390177D01*
X112803324Y-37522354D01*
X112738423Y-37736302D01*
X112716509Y-37958800D01*
X112722001Y-38014561D01*
X112722001Y-38506117D01*
X112652506Y-38543263D01*
X112555815Y-38622615D01*
X112476463Y-38719306D01*
X112428668Y-38808724D01*
X112370676Y-38617553D01*
X112265284Y-38420377D01*
X112244659Y-38395246D01*
X112123449Y-38247551D01*
X112080141Y-38212009D01*
X109657250Y-35789118D01*
X109609253Y-35547826D01*
X109501080Y-35286673D01*
X109344037Y-35051641D01*
X109144159Y-34851763D01*
X108909127Y-34694720D01*
X108647974Y-34586547D01*
X108370735Y-34531400D01*
X108088065Y-34531400D01*
X107810826Y-34586547D01*
X107549673Y-34694720D01*
X107314641Y-34851763D01*
X107114763Y-35051641D01*
X106957720Y-35286673D01*
X106849547Y-35547826D01*
X106794400Y-35825065D01*
X74137304Y-35825065D01*
X74042252Y-35730013D01*
X73774463Y-35551082D01*
X73476912Y-35427832D01*
X73161033Y-35365000D01*
X72838967Y-35365000D01*
X72523088Y-35427832D01*
X72225537Y-35551082D01*
X71957748Y-35730013D01*
X71730013Y-35957748D01*
X71551082Y-36225537D01*
X71427832Y-36523088D01*
X71365000Y-36838967D01*
X70411962Y-36838967D01*
X69752600Y-36179605D01*
X68939503Y-36992702D01*
X65789294Y-36992702D01*
X65867237Y-36914759D01*
X66024280Y-36679727D01*
X66132453Y-36418574D01*
X66187600Y-36141335D01*
X66187600Y-36070512D01*
X68312383Y-36070512D01*
X68353813Y-36350130D01*
X68448997Y-36616292D01*
X68515929Y-36741514D01*
X68759898Y-36813097D01*
X69572995Y-36000000D01*
X69932205Y-36000000D01*
X70745302Y-36813097D01*
X70989271Y-36741514D01*
X71110171Y-36486004D01*
X71178900Y-36211816D01*
X71192817Y-35929488D01*
X71151387Y-35649870D01*
X71056203Y-35383708D01*
X70989271Y-35258486D01*
X70745302Y-35186903D01*
X69932205Y-36000000D01*
X69572995Y-36000000D01*
X68759898Y-35186903D01*
X68515929Y-35258486D01*
X68395029Y-35513996D01*
X68326300Y-35788184D01*
X68312383Y-36070512D01*
X66187600Y-36070512D01*
X66187600Y-35858665D01*
X66132453Y-35581426D01*
X66024280Y-35320273D01*
X65867237Y-35085241D01*
X65789294Y-35007298D01*
X68939503Y-35007298D01*
X69752600Y-35820395D01*
X70565697Y-35007298D01*
X70494114Y-34763329D01*
X70238604Y-34642429D01*
X69964416Y-34573700D01*
X69682088Y-34559783D01*
X69402470Y-34601213D01*
X69136308Y-34696397D01*
X69011086Y-34763329D01*
X68939503Y-35007298D01*
X65789294Y-35007298D01*
X65667359Y-34885363D01*
X65432327Y-34728320D01*
X65171174Y-34620147D01*
X64893935Y-34565000D01*
X64611265Y-34565000D01*
X64334026Y-34620147D01*
X64072873Y-34728320D01*
X63868316Y-34865000D01*
X59929839Y-34865000D01*
X59794852Y-34730013D01*
X59527063Y-34551082D01*
X59229512Y-34427832D01*
X58913633Y-34365000D01*
X58591567Y-34365000D01*
X58275688Y-34427832D01*
X57978137Y-34551082D01*
X57710348Y-34730013D01*
X57575361Y-34865000D01*
X52023931Y-34865000D01*
X51581530Y-34202900D01*
X50785500Y-33406870D01*
X49849467Y-32781433D01*
X48809404Y-32350625D01*
X47705278Y-32131000D01*
X46579522Y-32131000D01*
X45475396Y-32350625D01*
X44435333Y-32781433D01*
X43499300Y-33406870D01*
X42703270Y-34202900D01*
X42077833Y-35138933D01*
X41647025Y-36178996D01*
X41427400Y-37283122D01*
X40660000Y-37283122D01*
X40660000Y-31660000D01*
X139340000Y-31660000D01*
X139340001Y-98340000D01*
%TD*%
M02*
