%TF.GenerationSoftware,KiCad,Pcbnew,5.1.6+dfsg1-1*%
%TF.CreationDate,2021-03-07T16:20:00-08:00*%
%TF.ProjectId,Arduino DC-DC Converter Control Board,41726475-696e-46f2-9044-432d44432043,0.1*%
%TF.SameCoordinates,Original*%
%TF.FileFunction,Legend,Top*%
%TF.FilePolarity,Positive*%
%FSLAX46Y46*%
G04 Gerber Fmt 4.6, Leading zero omitted, Abs format (unit mm)*
G04 Created by KiCad (PCBNEW 5.1.6+dfsg1-1) date 2021-03-07 16:20:00*
%MOMM*%
%LPD*%
G01*
G04 APERTURE LIST*
%ADD10C,0.150000*%
%ADD11C,0.500000*%
%ADD12C,0.120000*%
G04 APERTURE END LIST*
D10*
X116643542Y-40457380D02*
X116310209Y-39981190D01*
X116072114Y-40457380D02*
X116072114Y-39457380D01*
X116453066Y-39457380D01*
X116548304Y-39505000D01*
X116595923Y-39552619D01*
X116643542Y-39647857D01*
X116643542Y-39790714D01*
X116595923Y-39885952D01*
X116548304Y-39933571D01*
X116453066Y-39981190D01*
X116072114Y-39981190D01*
X117548304Y-39457380D02*
X117072114Y-39457380D01*
X117024495Y-39933571D01*
X117072114Y-39885952D01*
X117167352Y-39838333D01*
X117405447Y-39838333D01*
X117500685Y-39885952D01*
X117548304Y-39933571D01*
X117595923Y-40028809D01*
X117595923Y-40266904D01*
X117548304Y-40362142D01*
X117500685Y-40409761D01*
X117405447Y-40457380D01*
X117167352Y-40457380D01*
X117072114Y-40409761D01*
X117024495Y-40362142D01*
X119119733Y-39933571D02*
X119262590Y-39981190D01*
X119310209Y-40028809D01*
X119357828Y-40124047D01*
X119357828Y-40266904D01*
X119310209Y-40362142D01*
X119262590Y-40409761D01*
X119167352Y-40457380D01*
X118786400Y-40457380D01*
X118786400Y-39457380D01*
X119119733Y-39457380D01*
X119214971Y-39505000D01*
X119262590Y-39552619D01*
X119310209Y-39647857D01*
X119310209Y-39743095D01*
X119262590Y-39838333D01*
X119214971Y-39885952D01*
X119119733Y-39933571D01*
X118786400Y-39933571D01*
X119691161Y-39790714D02*
X119929257Y-40457380D01*
X120167352Y-39790714D02*
X119929257Y-40457380D01*
X119834019Y-40695476D01*
X119786400Y-40743095D01*
X119691161Y-40790714D01*
X120548304Y-39790714D02*
X120548304Y-40790714D01*
X120548304Y-39838333D02*
X120643542Y-39790714D01*
X120834019Y-39790714D01*
X120929257Y-39838333D01*
X120976876Y-39885952D01*
X121024495Y-39981190D01*
X121024495Y-40266904D01*
X120976876Y-40362142D01*
X120929257Y-40409761D01*
X120834019Y-40457380D01*
X120643542Y-40457380D01*
X120548304Y-40409761D01*
X121881638Y-40457380D02*
X121881638Y-39933571D01*
X121834019Y-39838333D01*
X121738780Y-39790714D01*
X121548304Y-39790714D01*
X121453066Y-39838333D01*
X121881638Y-40409761D02*
X121786400Y-40457380D01*
X121548304Y-40457380D01*
X121453066Y-40409761D01*
X121405447Y-40314523D01*
X121405447Y-40219285D01*
X121453066Y-40124047D01*
X121548304Y-40076428D01*
X121786400Y-40076428D01*
X121881638Y-40028809D01*
X122310209Y-40409761D02*
X122405447Y-40457380D01*
X122595923Y-40457380D01*
X122691161Y-40409761D01*
X122738780Y-40314523D01*
X122738780Y-40266904D01*
X122691161Y-40171666D01*
X122595923Y-40124047D01*
X122453066Y-40124047D01*
X122357828Y-40076428D01*
X122310209Y-39981190D01*
X122310209Y-39933571D01*
X122357828Y-39838333D01*
X122453066Y-39790714D01*
X122595923Y-39790714D01*
X122691161Y-39838333D01*
X123119733Y-40409761D02*
X123214971Y-40457380D01*
X123405447Y-40457380D01*
X123500685Y-40409761D01*
X123548304Y-40314523D01*
X123548304Y-40266904D01*
X123500685Y-40171666D01*
X123405447Y-40124047D01*
X123262590Y-40124047D01*
X123167352Y-40076428D01*
X123119733Y-39981190D01*
X123119733Y-39933571D01*
X123167352Y-39838333D01*
X123262590Y-39790714D01*
X123405447Y-39790714D01*
X123500685Y-39838333D01*
X45113095Y-85952380D02*
X45113095Y-86761904D01*
X45160714Y-86857142D01*
X45208333Y-86904761D01*
X45303571Y-86952380D01*
X45494047Y-86952380D01*
X45589285Y-86904761D01*
X45636904Y-86857142D01*
X45684523Y-86761904D01*
X45684523Y-85952380D01*
X46113095Y-86904761D02*
X46255952Y-86952380D01*
X46494047Y-86952380D01*
X46589285Y-86904761D01*
X46636904Y-86857142D01*
X46684523Y-86761904D01*
X46684523Y-86666666D01*
X46636904Y-86571428D01*
X46589285Y-86523809D01*
X46494047Y-86476190D01*
X46303571Y-86428571D01*
X46208333Y-86380952D01*
X46160714Y-86333333D01*
X46113095Y-86238095D01*
X46113095Y-86142857D01*
X46160714Y-86047619D01*
X46208333Y-86000000D01*
X46303571Y-85952380D01*
X46541666Y-85952380D01*
X46684523Y-86000000D01*
X47446428Y-86428571D02*
X47589285Y-86476190D01*
X47636904Y-86523809D01*
X47684523Y-86619047D01*
X47684523Y-86761904D01*
X47636904Y-86857142D01*
X47589285Y-86904761D01*
X47494047Y-86952380D01*
X47113095Y-86952380D01*
X47113095Y-85952380D01*
X47446428Y-85952380D01*
X47541666Y-86000000D01*
X47589285Y-86047619D01*
X47636904Y-86142857D01*
X47636904Y-86238095D01*
X47589285Y-86333333D01*
X47541666Y-86380952D01*
X47446428Y-86428571D01*
X47113095Y-86428571D01*
X66271428Y-73752380D02*
X66271428Y-72752380D01*
X66509523Y-72752380D01*
X66652380Y-72800000D01*
X66747619Y-72895238D01*
X66795238Y-72990476D01*
X66842857Y-73180952D01*
X66842857Y-73323809D01*
X66795238Y-73514285D01*
X66747619Y-73609523D01*
X66652380Y-73704761D01*
X66509523Y-73752380D01*
X66271428Y-73752380D01*
X67319047Y-73752380D02*
X67509523Y-73752380D01*
X67604761Y-73704761D01*
X67652380Y-73657142D01*
X67747619Y-73514285D01*
X67795238Y-73323809D01*
X67795238Y-72942857D01*
X67747619Y-72847619D01*
X67700000Y-72800000D01*
X67604761Y-72752380D01*
X67414285Y-72752380D01*
X67319047Y-72800000D01*
X67271428Y-72847619D01*
X67223809Y-72942857D01*
X67223809Y-73180952D01*
X67271428Y-73276190D01*
X67319047Y-73323809D01*
X67414285Y-73371428D01*
X67604761Y-73371428D01*
X67700000Y-73323809D01*
X67747619Y-73276190D01*
X67795238Y-73180952D01*
X69271428Y-74133333D02*
X69223809Y-74085714D01*
X69128571Y-73942857D01*
X69080952Y-73847619D01*
X69033333Y-73704761D01*
X68985714Y-73466666D01*
X68985714Y-73276190D01*
X69033333Y-73038095D01*
X69080952Y-72895238D01*
X69128571Y-72800000D01*
X69223809Y-72657142D01*
X69271428Y-72609523D01*
X69652380Y-73752380D02*
X69652380Y-72752380D01*
X70033333Y-72752380D01*
X70128571Y-72800000D01*
X70176190Y-72847619D01*
X70223809Y-72942857D01*
X70223809Y-73085714D01*
X70176190Y-73180952D01*
X70128571Y-73228571D01*
X70033333Y-73276190D01*
X69652380Y-73276190D01*
X70557142Y-72752380D02*
X70795238Y-73752380D01*
X70985714Y-73038095D01*
X71176190Y-73752380D01*
X71414285Y-72752380D01*
X71795238Y-73752380D02*
X71795238Y-72752380D01*
X72128571Y-73466666D01*
X72461904Y-72752380D01*
X72461904Y-73752380D01*
X72842857Y-74133333D02*
X72890476Y-74085714D01*
X72985714Y-73942857D01*
X73033333Y-73847619D01*
X73080952Y-73704761D01*
X73128571Y-73466666D01*
X73128571Y-73276190D01*
X73080952Y-73038095D01*
X73033333Y-72895238D01*
X72985714Y-72800000D01*
X72890476Y-72657142D01*
X72842857Y-72609523D01*
X119796428Y-89860714D02*
X120034523Y-90527380D01*
X120272619Y-89860714D01*
X120844047Y-89527380D02*
X120939285Y-89527380D01*
X121034523Y-89575000D01*
X121082142Y-89622619D01*
X121129761Y-89717857D01*
X121177380Y-89908333D01*
X121177380Y-90146428D01*
X121129761Y-90336904D01*
X121082142Y-90432142D01*
X121034523Y-90479761D01*
X120939285Y-90527380D01*
X120844047Y-90527380D01*
X120748809Y-90479761D01*
X120701190Y-90432142D01*
X120653571Y-90336904D01*
X120605952Y-90146428D01*
X120605952Y-89908333D01*
X120653571Y-89717857D01*
X120701190Y-89622619D01*
X120748809Y-89575000D01*
X120844047Y-89527380D01*
X121605952Y-90432142D02*
X121653571Y-90479761D01*
X121605952Y-90527380D01*
X121558333Y-90479761D01*
X121605952Y-90432142D01*
X121605952Y-90527380D01*
X122605952Y-90527380D02*
X122034523Y-90527380D01*
X122320238Y-90527380D02*
X122320238Y-89527380D01*
X122225000Y-89670238D01*
X122129761Y-89765476D01*
X122034523Y-89813095D01*
X116058333Y-91653571D02*
X115725000Y-91653571D01*
X115725000Y-92177380D02*
X115725000Y-91177380D01*
X116201190Y-91177380D01*
X116963095Y-92129761D02*
X116867857Y-92177380D01*
X116677380Y-92177380D01*
X116582142Y-92129761D01*
X116534523Y-92034523D01*
X116534523Y-91653571D01*
X116582142Y-91558333D01*
X116677380Y-91510714D01*
X116867857Y-91510714D01*
X116963095Y-91558333D01*
X117010714Y-91653571D01*
X117010714Y-91748809D01*
X116534523Y-91844047D01*
X117439285Y-92177380D02*
X117439285Y-91177380D01*
X117439285Y-91558333D02*
X117534523Y-91510714D01*
X117725000Y-91510714D01*
X117820238Y-91558333D01*
X117867857Y-91605952D01*
X117915476Y-91701190D01*
X117915476Y-91986904D01*
X117867857Y-92082142D01*
X117820238Y-92129761D01*
X117725000Y-92177380D01*
X117534523Y-92177380D01*
X117439285Y-92129761D01*
X118344047Y-92177380D02*
X118344047Y-91510714D01*
X118344047Y-91701190D02*
X118391666Y-91605952D01*
X118439285Y-91558333D01*
X118534523Y-91510714D01*
X118629761Y-91510714D01*
X119391666Y-91510714D02*
X119391666Y-92177380D01*
X118963095Y-91510714D02*
X118963095Y-92034523D01*
X119010714Y-92129761D01*
X119105952Y-92177380D01*
X119248809Y-92177380D01*
X119344047Y-92129761D01*
X119391666Y-92082142D01*
X120296428Y-92177380D02*
X120296428Y-91653571D01*
X120248809Y-91558333D01*
X120153571Y-91510714D01*
X119963095Y-91510714D01*
X119867857Y-91558333D01*
X120296428Y-92129761D02*
X120201190Y-92177380D01*
X119963095Y-92177380D01*
X119867857Y-92129761D01*
X119820238Y-92034523D01*
X119820238Y-91939285D01*
X119867857Y-91844047D01*
X119963095Y-91796428D01*
X120201190Y-91796428D01*
X120296428Y-91748809D01*
X120772619Y-92177380D02*
X120772619Y-91510714D01*
X120772619Y-91701190D02*
X120820238Y-91605952D01*
X120867857Y-91558333D01*
X120963095Y-91510714D01*
X121058333Y-91510714D01*
X121296428Y-91510714D02*
X121534523Y-92177380D01*
X121772619Y-91510714D02*
X121534523Y-92177380D01*
X121439285Y-92415476D01*
X121391666Y-92463095D01*
X121296428Y-92510714D01*
X122201190Y-92129761D02*
X122201190Y-92177380D01*
X122153571Y-92272619D01*
X122105952Y-92320238D01*
X123344047Y-91272619D02*
X123391666Y-91225000D01*
X123486904Y-91177380D01*
X123725000Y-91177380D01*
X123820238Y-91225000D01*
X123867857Y-91272619D01*
X123915476Y-91367857D01*
X123915476Y-91463095D01*
X123867857Y-91605952D01*
X123296428Y-92177380D01*
X123915476Y-92177380D01*
X124534523Y-91177380D02*
X124629761Y-91177380D01*
X124725000Y-91225000D01*
X124772619Y-91272619D01*
X124820238Y-91367857D01*
X124867857Y-91558333D01*
X124867857Y-91796428D01*
X124820238Y-91986904D01*
X124772619Y-92082142D01*
X124725000Y-92129761D01*
X124629761Y-92177380D01*
X124534523Y-92177380D01*
X124439285Y-92129761D01*
X124391666Y-92082142D01*
X124344047Y-91986904D01*
X124296428Y-91796428D01*
X124296428Y-91558333D01*
X124344047Y-91367857D01*
X124391666Y-91272619D01*
X124439285Y-91225000D01*
X124534523Y-91177380D01*
X125248809Y-91272619D02*
X125296428Y-91225000D01*
X125391666Y-91177380D01*
X125629761Y-91177380D01*
X125725000Y-91225000D01*
X125772619Y-91272619D01*
X125820238Y-91367857D01*
X125820238Y-91463095D01*
X125772619Y-91605952D01*
X125201190Y-92177380D01*
X125820238Y-92177380D01*
X126772619Y-92177380D02*
X126201190Y-92177380D01*
X126486904Y-92177380D02*
X126486904Y-91177380D01*
X126391666Y-91320238D01*
X126296428Y-91415476D01*
X126201190Y-91463095D01*
X112963095Y-92827380D02*
X113201190Y-93827380D01*
X113391666Y-93113095D01*
X113582142Y-93827380D01*
X113820238Y-92827380D01*
X114629761Y-93827380D02*
X114629761Y-93303571D01*
X114582142Y-93208333D01*
X114486904Y-93160714D01*
X114296428Y-93160714D01*
X114201190Y-93208333D01*
X114629761Y-93779761D02*
X114534523Y-93827380D01*
X114296428Y-93827380D01*
X114201190Y-93779761D01*
X114153571Y-93684523D01*
X114153571Y-93589285D01*
X114201190Y-93494047D01*
X114296428Y-93446428D01*
X114534523Y-93446428D01*
X114629761Y-93398809D01*
X115248809Y-93827380D02*
X115153571Y-93779761D01*
X115105952Y-93684523D01*
X115105952Y-92827380D01*
X115772619Y-93827380D02*
X115677380Y-93779761D01*
X115629761Y-93684523D01*
X115629761Y-92827380D01*
X116582142Y-93827380D02*
X116582142Y-93303571D01*
X116534523Y-93208333D01*
X116439285Y-93160714D01*
X116248809Y-93160714D01*
X116153571Y-93208333D01*
X116582142Y-93779761D02*
X116486904Y-93827380D01*
X116248809Y-93827380D01*
X116153571Y-93779761D01*
X116105952Y-93684523D01*
X116105952Y-93589285D01*
X116153571Y-93494047D01*
X116248809Y-93446428D01*
X116486904Y-93446428D01*
X116582142Y-93398809D01*
X117725000Y-92827380D02*
X117963095Y-93827380D01*
X118153571Y-93113095D01*
X118344047Y-93827380D01*
X118582142Y-92827380D01*
X119391666Y-93827380D02*
X119391666Y-93303571D01*
X119344047Y-93208333D01*
X119248809Y-93160714D01*
X119058333Y-93160714D01*
X118963095Y-93208333D01*
X119391666Y-93779761D02*
X119296428Y-93827380D01*
X119058333Y-93827380D01*
X118963095Y-93779761D01*
X118915476Y-93684523D01*
X118915476Y-93589285D01*
X118963095Y-93494047D01*
X119058333Y-93446428D01*
X119296428Y-93446428D01*
X119391666Y-93398809D01*
X120010714Y-93827380D02*
X119915476Y-93779761D01*
X119867857Y-93684523D01*
X119867857Y-92827380D01*
X120534523Y-93827380D02*
X120439285Y-93779761D01*
X120391666Y-93684523D01*
X120391666Y-92827380D01*
X121344047Y-93827380D02*
X121344047Y-93303571D01*
X121296428Y-93208333D01*
X121201190Y-93160714D01*
X121010714Y-93160714D01*
X120915476Y-93208333D01*
X121344047Y-93779761D02*
X121248809Y-93827380D01*
X121010714Y-93827380D01*
X120915476Y-93779761D01*
X120867857Y-93684523D01*
X120867857Y-93589285D01*
X120915476Y-93494047D01*
X121010714Y-93446428D01*
X121248809Y-93446428D01*
X121344047Y-93398809D01*
X122582142Y-92827380D02*
X122582142Y-93636904D01*
X122629761Y-93732142D01*
X122677380Y-93779761D01*
X122772619Y-93827380D01*
X122963095Y-93827380D01*
X123058333Y-93779761D01*
X123105952Y-93732142D01*
X123153571Y-93636904D01*
X123153571Y-92827380D01*
X123629761Y-93160714D02*
X123629761Y-93827380D01*
X123629761Y-93255952D02*
X123677380Y-93208333D01*
X123772619Y-93160714D01*
X123915476Y-93160714D01*
X124010714Y-93208333D01*
X124058333Y-93303571D01*
X124058333Y-93827380D01*
X124534523Y-93827380D02*
X124534523Y-93160714D01*
X124534523Y-92827380D02*
X124486904Y-92875000D01*
X124534523Y-92922619D01*
X124582142Y-92875000D01*
X124534523Y-92827380D01*
X124534523Y-92922619D01*
X124915476Y-93160714D02*
X125153571Y-93827380D01*
X125391666Y-93160714D01*
X126153571Y-93779761D02*
X126058333Y-93827380D01*
X125867857Y-93827380D01*
X125772619Y-93779761D01*
X125724999Y-93684523D01*
X125724999Y-93303571D01*
X125772619Y-93208333D01*
X125867857Y-93160714D01*
X126058333Y-93160714D01*
X126153571Y-93208333D01*
X126201190Y-93303571D01*
X126201190Y-93398809D01*
X125724999Y-93494047D01*
X126629761Y-93827380D02*
X126629761Y-93160714D01*
X126629761Y-93351190D02*
X126677380Y-93255952D01*
X126724999Y-93208333D01*
X126820238Y-93160714D01*
X126915476Y-93160714D01*
X127201190Y-93779761D02*
X127296428Y-93827380D01*
X127486904Y-93827380D01*
X127582142Y-93779761D01*
X127629761Y-93684523D01*
X127629761Y-93636904D01*
X127582142Y-93541666D01*
X127486904Y-93494047D01*
X127344047Y-93494047D01*
X127248809Y-93446428D01*
X127201190Y-93351190D01*
X127201190Y-93303571D01*
X127248809Y-93208333D01*
X127344047Y-93160714D01*
X127486904Y-93160714D01*
X127582142Y-93208333D01*
X128058333Y-93827380D02*
X128058333Y-93160714D01*
X128058333Y-92827380D02*
X128010714Y-92875000D01*
X128058333Y-92922619D01*
X128105952Y-92875000D01*
X128058333Y-92827380D01*
X128058333Y-92922619D01*
X128391666Y-93160714D02*
X128772619Y-93160714D01*
X128534523Y-92827380D02*
X128534523Y-93684523D01*
X128582142Y-93779761D01*
X128677380Y-93827380D01*
X128772619Y-93827380D01*
X129010714Y-93160714D02*
X129248809Y-93827380D01*
X129486904Y-93160714D02*
X129248809Y-93827380D01*
X129153571Y-94065476D01*
X129105952Y-94113095D01*
X129010714Y-94160714D01*
X113034523Y-95429761D02*
X113177380Y-95477380D01*
X113415476Y-95477380D01*
X113510714Y-95429761D01*
X113558333Y-95382142D01*
X113605952Y-95286904D01*
X113605952Y-95191666D01*
X113558333Y-95096428D01*
X113510714Y-95048809D01*
X113415476Y-95001190D01*
X113225000Y-94953571D01*
X113129761Y-94905952D01*
X113082142Y-94858333D01*
X113034523Y-94763095D01*
X113034523Y-94667857D01*
X113082142Y-94572619D01*
X113129761Y-94525000D01*
X113225000Y-94477380D01*
X113463095Y-94477380D01*
X113605952Y-94525000D01*
X114463095Y-95429761D02*
X114367857Y-95477380D01*
X114177380Y-95477380D01*
X114082142Y-95429761D01*
X114034523Y-95382142D01*
X113986904Y-95286904D01*
X113986904Y-95001190D01*
X114034523Y-94905952D01*
X114082142Y-94858333D01*
X114177380Y-94810714D01*
X114367857Y-94810714D01*
X114463095Y-94858333D01*
X114891666Y-95477380D02*
X114891666Y-94477380D01*
X115320238Y-95477380D02*
X115320238Y-94953571D01*
X115272619Y-94858333D01*
X115177380Y-94810714D01*
X115034523Y-94810714D01*
X114939285Y-94858333D01*
X114891666Y-94905952D01*
X115939285Y-95477380D02*
X115844047Y-95429761D01*
X115796428Y-95382142D01*
X115748809Y-95286904D01*
X115748809Y-95001190D01*
X115796428Y-94905952D01*
X115844047Y-94858333D01*
X115939285Y-94810714D01*
X116082142Y-94810714D01*
X116177380Y-94858333D01*
X116224999Y-94905952D01*
X116272619Y-95001190D01*
X116272619Y-95286904D01*
X116224999Y-95382142D01*
X116177380Y-95429761D01*
X116082142Y-95477380D01*
X115939285Y-95477380D01*
X116844047Y-95477380D02*
X116748809Y-95429761D01*
X116701190Y-95382142D01*
X116653571Y-95286904D01*
X116653571Y-95001190D01*
X116701190Y-94905952D01*
X116748809Y-94858333D01*
X116844047Y-94810714D01*
X116986904Y-94810714D01*
X117082142Y-94858333D01*
X117129761Y-94905952D01*
X117177380Y-95001190D01*
X117177380Y-95286904D01*
X117129761Y-95382142D01*
X117082142Y-95429761D01*
X116986904Y-95477380D01*
X116844047Y-95477380D01*
X117748809Y-95477380D02*
X117653571Y-95429761D01*
X117605952Y-95334523D01*
X117605952Y-94477380D01*
X119034523Y-95477380D02*
X118939285Y-95429761D01*
X118891666Y-95382142D01*
X118844047Y-95286904D01*
X118844047Y-95001190D01*
X118891666Y-94905952D01*
X118939285Y-94858333D01*
X119034523Y-94810714D01*
X119177380Y-94810714D01*
X119272619Y-94858333D01*
X119320238Y-94905952D01*
X119367857Y-95001190D01*
X119367857Y-95286904D01*
X119320238Y-95382142D01*
X119272619Y-95429761D01*
X119177380Y-95477380D01*
X119034523Y-95477380D01*
X119653571Y-94810714D02*
X120034523Y-94810714D01*
X119796428Y-95477380D02*
X119796428Y-94620238D01*
X119844047Y-94525000D01*
X119939285Y-94477380D01*
X120034523Y-94477380D01*
X121129761Y-94953571D02*
X121463095Y-94953571D01*
X121605952Y-95477380D02*
X121129761Y-95477380D01*
X121129761Y-94477380D01*
X121605952Y-94477380D01*
X122034523Y-94810714D02*
X122034523Y-95477380D01*
X122034523Y-94905952D02*
X122082142Y-94858333D01*
X122177380Y-94810714D01*
X122320238Y-94810714D01*
X122415476Y-94858333D01*
X122463095Y-94953571D01*
X122463095Y-95477380D01*
X123367857Y-94810714D02*
X123367857Y-95620238D01*
X123320238Y-95715476D01*
X123272619Y-95763095D01*
X123177380Y-95810714D01*
X123034523Y-95810714D01*
X122939285Y-95763095D01*
X123367857Y-95429761D02*
X123272619Y-95477380D01*
X123082142Y-95477380D01*
X122986904Y-95429761D01*
X122939285Y-95382142D01*
X122891666Y-95286904D01*
X122891666Y-95001190D01*
X122939285Y-94905952D01*
X122986904Y-94858333D01*
X123082142Y-94810714D01*
X123272619Y-94810714D01*
X123367857Y-94858333D01*
X123844047Y-95477380D02*
X123844047Y-94810714D01*
X123844047Y-94477380D02*
X123796428Y-94525000D01*
X123844047Y-94572619D01*
X123891666Y-94525000D01*
X123844047Y-94477380D01*
X123844047Y-94572619D01*
X124320238Y-94810714D02*
X124320238Y-95477380D01*
X124320238Y-94905952D02*
X124367857Y-94858333D01*
X124463095Y-94810714D01*
X124605952Y-94810714D01*
X124701190Y-94858333D01*
X124748809Y-94953571D01*
X124748809Y-95477380D01*
X125605952Y-95429761D02*
X125510714Y-95477380D01*
X125320238Y-95477380D01*
X125225000Y-95429761D01*
X125177380Y-95334523D01*
X125177380Y-94953571D01*
X125225000Y-94858333D01*
X125320238Y-94810714D01*
X125510714Y-94810714D01*
X125605952Y-94858333D01*
X125653571Y-94953571D01*
X125653571Y-95048809D01*
X125177380Y-95144047D01*
X126463095Y-95429761D02*
X126367857Y-95477380D01*
X126177380Y-95477380D01*
X126082142Y-95429761D01*
X126034523Y-95334523D01*
X126034523Y-94953571D01*
X126082142Y-94858333D01*
X126177380Y-94810714D01*
X126367857Y-94810714D01*
X126463095Y-94858333D01*
X126510714Y-94953571D01*
X126510714Y-95048809D01*
X126034523Y-95144047D01*
X126939285Y-95477380D02*
X126939285Y-94810714D01*
X126939285Y-95001190D02*
X126986904Y-94905952D01*
X127034523Y-94858333D01*
X127129761Y-94810714D01*
X127224999Y-94810714D01*
X127558333Y-95477380D02*
X127558333Y-94810714D01*
X127558333Y-94477380D02*
X127510714Y-94525000D01*
X127558333Y-94572619D01*
X127605952Y-94525000D01*
X127558333Y-94477380D01*
X127558333Y-94572619D01*
X128034523Y-94810714D02*
X128034523Y-95477380D01*
X128034523Y-94905952D02*
X128082142Y-94858333D01*
X128177380Y-94810714D01*
X128320238Y-94810714D01*
X128415476Y-94858333D01*
X128463095Y-94953571D01*
X128463095Y-95477380D01*
X129367857Y-94810714D02*
X129367857Y-95620238D01*
X129320238Y-95715476D01*
X129272619Y-95763095D01*
X129177380Y-95810714D01*
X129034523Y-95810714D01*
X128939285Y-95763095D01*
X129367857Y-95429761D02*
X129272619Y-95477380D01*
X129082142Y-95477380D01*
X128986904Y-95429761D01*
X128939285Y-95382142D01*
X128891666Y-95286904D01*
X128891666Y-95001190D01*
X128939285Y-94905952D01*
X128986904Y-94858333D01*
X129082142Y-94810714D01*
X129272619Y-94810714D01*
X129367857Y-94858333D01*
D11*
X100744047Y-69841666D02*
X102648809Y-69841666D01*
X100363095Y-70984523D02*
X101696428Y-66984523D01*
X103029761Y-70984523D01*
X104363095Y-70984523D02*
X104363095Y-68317857D01*
X104363095Y-69079761D02*
X104553571Y-68698809D01*
X104744047Y-68508333D01*
X105125000Y-68317857D01*
X105505952Y-68317857D01*
X108553571Y-70984523D02*
X108553571Y-66984523D01*
X108553571Y-70794047D02*
X108172619Y-70984523D01*
X107410714Y-70984523D01*
X107029761Y-70794047D01*
X106839285Y-70603571D01*
X106648809Y-70222619D01*
X106648809Y-69079761D01*
X106839285Y-68698809D01*
X107029761Y-68508333D01*
X107410714Y-68317857D01*
X108172619Y-68317857D01*
X108553571Y-68508333D01*
X112172619Y-68317857D02*
X112172619Y-70984523D01*
X110458333Y-68317857D02*
X110458333Y-70413095D01*
X110648809Y-70794047D01*
X111029761Y-70984523D01*
X111601190Y-70984523D01*
X111982142Y-70794047D01*
X112172619Y-70603571D01*
X114077380Y-70984523D02*
X114077380Y-68317857D01*
X114077380Y-66984523D02*
X113886904Y-67175000D01*
X114077380Y-67365476D01*
X114267857Y-67175000D01*
X114077380Y-66984523D01*
X114077380Y-67365476D01*
X115982142Y-68317857D02*
X115982142Y-70984523D01*
X115982142Y-68698809D02*
X116172619Y-68508333D01*
X116553571Y-68317857D01*
X117125000Y-68317857D01*
X117505952Y-68508333D01*
X117696428Y-68889285D01*
X117696428Y-70984523D01*
X120172619Y-70984523D02*
X119791666Y-70794047D01*
X119601190Y-70603571D01*
X119410714Y-70222619D01*
X119410714Y-69079761D01*
X119601190Y-68698809D01*
X119791666Y-68508333D01*
X120172619Y-68317857D01*
X120744047Y-68317857D01*
X121125000Y-68508333D01*
X121315476Y-68698809D01*
X121505952Y-69079761D01*
X121505952Y-70222619D01*
X121315476Y-70603571D01*
X121125000Y-70794047D01*
X120744047Y-70984523D01*
X120172619Y-70984523D01*
X92934523Y-77484523D02*
X92934523Y-73484523D01*
X93886904Y-73484523D01*
X94458333Y-73675000D01*
X94839285Y-74055952D01*
X95029761Y-74436904D01*
X95220238Y-75198809D01*
X95220238Y-75770238D01*
X95029761Y-76532142D01*
X94839285Y-76913095D01*
X94458333Y-77294047D01*
X93886904Y-77484523D01*
X92934523Y-77484523D01*
X99220238Y-77103571D02*
X99029761Y-77294047D01*
X98458333Y-77484523D01*
X98077380Y-77484523D01*
X97505952Y-77294047D01*
X97125000Y-76913095D01*
X96934523Y-76532142D01*
X96744047Y-75770238D01*
X96744047Y-75198809D01*
X96934523Y-74436904D01*
X97125000Y-74055952D01*
X97505952Y-73675000D01*
X98077380Y-73484523D01*
X98458333Y-73484523D01*
X99029761Y-73675000D01*
X99220238Y-73865476D01*
X100934523Y-75960714D02*
X103982142Y-75960714D01*
X105886904Y-77484523D02*
X105886904Y-73484523D01*
X106839285Y-73484523D01*
X107410714Y-73675000D01*
X107791666Y-74055952D01*
X107982142Y-74436904D01*
X108172619Y-75198809D01*
X108172619Y-75770238D01*
X107982142Y-76532142D01*
X107791666Y-76913095D01*
X107410714Y-77294047D01*
X106839285Y-77484523D01*
X105886904Y-77484523D01*
X112172619Y-77103571D02*
X111982142Y-77294047D01*
X111410714Y-77484523D01*
X111029761Y-77484523D01*
X110458333Y-77294047D01*
X110077380Y-76913095D01*
X109886904Y-76532142D01*
X109696428Y-75770238D01*
X109696428Y-75198809D01*
X109886904Y-74436904D01*
X110077380Y-74055952D01*
X110458333Y-73675000D01*
X111029761Y-73484523D01*
X111410714Y-73484523D01*
X111982142Y-73675000D01*
X112172619Y-73865476D01*
X118267857Y-75389285D02*
X118839285Y-75579761D01*
X119029761Y-75770238D01*
X119220238Y-76151190D01*
X119220238Y-76722619D01*
X119029761Y-77103571D01*
X118839285Y-77294047D01*
X118458333Y-77484523D01*
X116934523Y-77484523D01*
X116934523Y-73484523D01*
X118267857Y-73484523D01*
X118648809Y-73675000D01*
X118839285Y-73865476D01*
X119029761Y-74246428D01*
X119029761Y-74627380D01*
X118839285Y-75008333D01*
X118648809Y-75198809D01*
X118267857Y-75389285D01*
X116934523Y-75389285D01*
X122648809Y-74817857D02*
X122648809Y-77484523D01*
X120934523Y-74817857D02*
X120934523Y-76913095D01*
X121125000Y-77294047D01*
X121505952Y-77484523D01*
X122077380Y-77484523D01*
X122458333Y-77294047D01*
X122648809Y-77103571D01*
X126267857Y-77294047D02*
X125886904Y-77484523D01*
X125125000Y-77484523D01*
X124744047Y-77294047D01*
X124553571Y-77103571D01*
X124363095Y-76722619D01*
X124363095Y-75579761D01*
X124553571Y-75198809D01*
X124744047Y-75008333D01*
X125125000Y-74817857D01*
X125886904Y-74817857D01*
X126267857Y-75008333D01*
X127982142Y-77484523D02*
X127982142Y-73484523D01*
X128363095Y-75960714D02*
X129505952Y-77484523D01*
X129505952Y-74817857D02*
X127982142Y-76341666D01*
X99505952Y-83603571D02*
X99315476Y-83794047D01*
X98744047Y-83984523D01*
X98363095Y-83984523D01*
X97791666Y-83794047D01*
X97410714Y-83413095D01*
X97220238Y-83032142D01*
X97029761Y-82270238D01*
X97029761Y-81698809D01*
X97220238Y-80936904D01*
X97410714Y-80555952D01*
X97791666Y-80175000D01*
X98363095Y-79984523D01*
X98744047Y-79984523D01*
X99315476Y-80175000D01*
X99505952Y-80365476D01*
X101791666Y-83984523D02*
X101410714Y-83794047D01*
X101220238Y-83603571D01*
X101029761Y-83222619D01*
X101029761Y-82079761D01*
X101220238Y-81698809D01*
X101410714Y-81508333D01*
X101791666Y-81317857D01*
X102363095Y-81317857D01*
X102744047Y-81508333D01*
X102934523Y-81698809D01*
X103125000Y-82079761D01*
X103125000Y-83222619D01*
X102934523Y-83603571D01*
X102744047Y-83794047D01*
X102363095Y-83984523D01*
X101791666Y-83984523D01*
X104839285Y-81317857D02*
X104839285Y-83984523D01*
X104839285Y-81698809D02*
X105029761Y-81508333D01*
X105410714Y-81317857D01*
X105982142Y-81317857D01*
X106363095Y-81508333D01*
X106553571Y-81889285D01*
X106553571Y-83984523D01*
X107886904Y-81317857D02*
X109410714Y-81317857D01*
X108458333Y-79984523D02*
X108458333Y-83413095D01*
X108648809Y-83794047D01*
X109029761Y-83984523D01*
X109410714Y-83984523D01*
X110744047Y-83984523D02*
X110744047Y-81317857D01*
X110744047Y-82079761D02*
X110934523Y-81698809D01*
X111125000Y-81508333D01*
X111505952Y-81317857D01*
X111886904Y-81317857D01*
X113791666Y-83984523D02*
X113410714Y-83794047D01*
X113220238Y-83603571D01*
X113029761Y-83222619D01*
X113029761Y-82079761D01*
X113220238Y-81698809D01*
X113410714Y-81508333D01*
X113791666Y-81317857D01*
X114363095Y-81317857D01*
X114744047Y-81508333D01*
X114934523Y-81698809D01*
X115125000Y-82079761D01*
X115125000Y-83222619D01*
X114934523Y-83603571D01*
X114744047Y-83794047D01*
X114363095Y-83984523D01*
X113791666Y-83984523D01*
X117410714Y-83984523D02*
X117029761Y-83794047D01*
X116839285Y-83413095D01*
X116839285Y-79984523D01*
X119505952Y-83984523D02*
X119125000Y-83794047D01*
X118934523Y-83413095D01*
X118934523Y-79984523D01*
X122553571Y-83794047D02*
X122172619Y-83984523D01*
X121410714Y-83984523D01*
X121029761Y-83794047D01*
X120839285Y-83413095D01*
X120839285Y-81889285D01*
X121029761Y-81508333D01*
X121410714Y-81317857D01*
X122172619Y-81317857D01*
X122553571Y-81508333D01*
X122744047Y-81889285D01*
X122744047Y-82270238D01*
X120839285Y-82651190D01*
X124458333Y-83984523D02*
X124458333Y-81317857D01*
X124458333Y-82079761D02*
X124648809Y-81698809D01*
X124839285Y-81508333D01*
X125220238Y-81317857D01*
X125601190Y-81317857D01*
D10*
X123398809Y-59952380D02*
X123065476Y-59476190D01*
X122827380Y-59952380D02*
X122827380Y-58952380D01*
X123208333Y-58952380D01*
X123303571Y-59000000D01*
X123351190Y-59047619D01*
X123398809Y-59142857D01*
X123398809Y-59285714D01*
X123351190Y-59380952D01*
X123303571Y-59428571D01*
X123208333Y-59476190D01*
X122827380Y-59476190D01*
X123589285Y-60047619D02*
X124351190Y-60047619D01*
X125065476Y-59952380D02*
X124589285Y-59952380D01*
X124589285Y-58952380D01*
X121834542Y-31888180D02*
X122167876Y-32888180D01*
X122501209Y-31888180D01*
X122596447Y-32983419D02*
X123358352Y-32983419D01*
X123786923Y-31888180D02*
X123977400Y-31888180D01*
X124072638Y-31935800D01*
X124167876Y-32031038D01*
X124215495Y-32221514D01*
X124215495Y-32554847D01*
X124167876Y-32745323D01*
X124072638Y-32840561D01*
X123977400Y-32888180D01*
X123786923Y-32888180D01*
X123691685Y-32840561D01*
X123596447Y-32745323D01*
X123548828Y-32554847D01*
X123548828Y-32221514D01*
X123596447Y-32031038D01*
X123691685Y-31935800D01*
X123786923Y-31888180D01*
X124644066Y-31888180D02*
X124644066Y-32697704D01*
X124691685Y-32792942D01*
X124739304Y-32840561D01*
X124834542Y-32888180D01*
X125025019Y-32888180D01*
X125120257Y-32840561D01*
X125167876Y-32792942D01*
X125215495Y-32697704D01*
X125215495Y-31888180D01*
X125548828Y-31888180D02*
X126120257Y-31888180D01*
X125834542Y-32888180D02*
X125834542Y-31888180D01*
X54556209Y-33208980D02*
X54889542Y-34208980D01*
X55222876Y-33208980D01*
X55318114Y-34304219D02*
X56080019Y-34304219D01*
X56318114Y-34208980D02*
X56318114Y-33208980D01*
X56794304Y-34208980D02*
X56794304Y-33208980D01*
X57365733Y-34208980D01*
X57365733Y-33208980D01*
X68628571Y-61482142D02*
X68580952Y-61529761D01*
X68438095Y-61577380D01*
X68342857Y-61577380D01*
X68200000Y-61529761D01*
X68104761Y-61434523D01*
X68057142Y-61339285D01*
X68009523Y-61148809D01*
X68009523Y-61005952D01*
X68057142Y-60815476D01*
X68104761Y-60720238D01*
X68200000Y-60625000D01*
X68342857Y-60577380D01*
X68438095Y-60577380D01*
X68580952Y-60625000D01*
X68628571Y-60672619D01*
X69200000Y-61577380D02*
X69104761Y-61529761D01*
X69057142Y-61482142D01*
X69009523Y-61386904D01*
X69009523Y-61101190D01*
X69057142Y-61005952D01*
X69104761Y-60958333D01*
X69200000Y-60910714D01*
X69342857Y-60910714D01*
X69438095Y-60958333D01*
X69485714Y-61005952D01*
X69533333Y-61101190D01*
X69533333Y-61386904D01*
X69485714Y-61482142D01*
X69438095Y-61529761D01*
X69342857Y-61577380D01*
X69200000Y-61577380D01*
X70104761Y-61577380D02*
X70009523Y-61529761D01*
X69961904Y-61434523D01*
X69961904Y-60577380D01*
X70628571Y-61577380D02*
X70533333Y-61529761D01*
X70485714Y-61434523D01*
X70485714Y-60577380D01*
X71390476Y-61529761D02*
X71295238Y-61577380D01*
X71104761Y-61577380D01*
X71009523Y-61529761D01*
X70961904Y-61434523D01*
X70961904Y-61053571D01*
X71009523Y-60958333D01*
X71104761Y-60910714D01*
X71295238Y-60910714D01*
X71390476Y-60958333D01*
X71438095Y-61053571D01*
X71438095Y-61148809D01*
X70961904Y-61244047D01*
X72295238Y-61529761D02*
X72200000Y-61577380D01*
X72009523Y-61577380D01*
X71914285Y-61529761D01*
X71866666Y-61482142D01*
X71819047Y-61386904D01*
X71819047Y-61101190D01*
X71866666Y-61005952D01*
X71914285Y-60958333D01*
X72009523Y-60910714D01*
X72200000Y-60910714D01*
X72295238Y-60958333D01*
X72580952Y-60910714D02*
X72961904Y-60910714D01*
X72723809Y-60577380D02*
X72723809Y-61434523D01*
X72771428Y-61529761D01*
X72866666Y-61577380D01*
X72961904Y-61577380D01*
X73438095Y-61577380D02*
X73342857Y-61529761D01*
X73295238Y-61482142D01*
X73247619Y-61386904D01*
X73247619Y-61101190D01*
X73295238Y-61005952D01*
X73342857Y-60958333D01*
X73438095Y-60910714D01*
X73580952Y-60910714D01*
X73676190Y-60958333D01*
X73723809Y-61005952D01*
X73771428Y-61101190D01*
X73771428Y-61386904D01*
X73723809Y-61482142D01*
X73676190Y-61529761D01*
X73580952Y-61577380D01*
X73438095Y-61577380D01*
X74199999Y-61577380D02*
X74199999Y-60910714D01*
X74199999Y-61101190D02*
X74247619Y-61005952D01*
X74295238Y-60958333D01*
X74390476Y-60910714D01*
X74485714Y-60910714D01*
X70560714Y-39852380D02*
X70560714Y-38852380D01*
X70798809Y-38852380D01*
X70941666Y-38900000D01*
X71036904Y-38995238D01*
X71084523Y-39090476D01*
X71132142Y-39280952D01*
X71132142Y-39423809D01*
X71084523Y-39614285D01*
X71036904Y-39709523D01*
X70941666Y-39804761D01*
X70798809Y-39852380D01*
X70560714Y-39852380D01*
X71560714Y-39852380D02*
X71560714Y-39185714D01*
X71560714Y-39376190D02*
X71608333Y-39280952D01*
X71655952Y-39233333D01*
X71751190Y-39185714D01*
X71846428Y-39185714D01*
X72608333Y-39852380D02*
X72608333Y-39328571D01*
X72560714Y-39233333D01*
X72465476Y-39185714D01*
X72275000Y-39185714D01*
X72179761Y-39233333D01*
X72608333Y-39804761D02*
X72513095Y-39852380D01*
X72275000Y-39852380D01*
X72179761Y-39804761D01*
X72132142Y-39709523D01*
X72132142Y-39614285D01*
X72179761Y-39519047D01*
X72275000Y-39471428D01*
X72513095Y-39471428D01*
X72608333Y-39423809D01*
X73084523Y-39852380D02*
X73084523Y-39185714D01*
X73084523Y-38852380D02*
X73036904Y-38900000D01*
X73084523Y-38947619D01*
X73132142Y-38900000D01*
X73084523Y-38852380D01*
X73084523Y-38947619D01*
X73560714Y-39185714D02*
X73560714Y-39852380D01*
X73560714Y-39280952D02*
X73608333Y-39233333D01*
X73703571Y-39185714D01*
X73846428Y-39185714D01*
X73941666Y-39233333D01*
X73989285Y-39328571D01*
X73989285Y-39852380D01*
X62888095Y-67700000D02*
X62792857Y-67652380D01*
X62650000Y-67652380D01*
X62507142Y-67700000D01*
X62411904Y-67795238D01*
X62364285Y-67890476D01*
X62316666Y-68080952D01*
X62316666Y-68223809D01*
X62364285Y-68414285D01*
X62411904Y-68509523D01*
X62507142Y-68604761D01*
X62650000Y-68652380D01*
X62745238Y-68652380D01*
X62888095Y-68604761D01*
X62935714Y-68557142D01*
X62935714Y-68223809D01*
X62745238Y-68223809D01*
X63364285Y-68652380D02*
X63364285Y-67652380D01*
X63935714Y-68652380D01*
X63935714Y-67652380D01*
X64411904Y-68652380D02*
X64411904Y-67652380D01*
X64650000Y-67652380D01*
X64792857Y-67700000D01*
X64888095Y-67795238D01*
X64935714Y-67890476D01*
X64983333Y-68080952D01*
X64983333Y-68223809D01*
X64935714Y-68414285D01*
X64888095Y-68509523D01*
X64792857Y-68604761D01*
X64650000Y-68652380D01*
X64411904Y-68652380D01*
X69498809Y-67702380D02*
X70117857Y-67702380D01*
X69784523Y-68083333D01*
X69927380Y-68083333D01*
X70022619Y-68130952D01*
X70070238Y-68178571D01*
X70117857Y-68273809D01*
X70117857Y-68511904D01*
X70070238Y-68607142D01*
X70022619Y-68654761D01*
X69927380Y-68702380D01*
X69641666Y-68702380D01*
X69546428Y-68654761D01*
X69498809Y-68607142D01*
X70546428Y-68607142D02*
X70594047Y-68654761D01*
X70546428Y-68702380D01*
X70498809Y-68654761D01*
X70546428Y-68607142D01*
X70546428Y-68702380D01*
X70927380Y-67702380D02*
X71546428Y-67702380D01*
X71213095Y-68083333D01*
X71355952Y-68083333D01*
X71451190Y-68130952D01*
X71498809Y-68178571D01*
X71546428Y-68273809D01*
X71546428Y-68511904D01*
X71498809Y-68607142D01*
X71451190Y-68654761D01*
X71355952Y-68702380D01*
X71070238Y-68702380D01*
X70975000Y-68654761D01*
X70927380Y-68607142D01*
X71832142Y-67702380D02*
X72165476Y-68702380D01*
X72498809Y-67702380D01*
X94285714Y-70666666D02*
X94761904Y-70666666D01*
X94190476Y-70952380D02*
X94523809Y-69952380D01*
X94857142Y-70952380D01*
X95714285Y-70952380D02*
X95142857Y-70952380D01*
X95428571Y-70952380D02*
X95428571Y-69952380D01*
X95333333Y-70095238D01*
X95238095Y-70190476D01*
X95142857Y-70238095D01*
X84285714Y-70666666D02*
X84761904Y-70666666D01*
X84190476Y-70952380D02*
X84523809Y-69952380D01*
X84857142Y-70952380D01*
X85380952Y-69952380D02*
X85476190Y-69952380D01*
X85571428Y-70000000D01*
X85619047Y-70047619D01*
X85666666Y-70142857D01*
X85714285Y-70333333D01*
X85714285Y-70571428D01*
X85666666Y-70761904D01*
X85619047Y-70857142D01*
X85571428Y-70904761D01*
X85476190Y-70952380D01*
X85380952Y-70952380D01*
X85285714Y-70904761D01*
X85238095Y-70857142D01*
X85190476Y-70761904D01*
X85142857Y-70571428D01*
X85142857Y-70333333D01*
X85190476Y-70142857D01*
X85238095Y-70047619D01*
X85285714Y-70000000D01*
X85380952Y-69952380D01*
X93642857Y-91802380D02*
X93309523Y-91326190D01*
X93071428Y-91802380D02*
X93071428Y-90802380D01*
X93452380Y-90802380D01*
X93547619Y-90850000D01*
X93595238Y-90897619D01*
X93642857Y-90992857D01*
X93642857Y-91135714D01*
X93595238Y-91230952D01*
X93547619Y-91278571D01*
X93452380Y-91326190D01*
X93071428Y-91326190D01*
X94452380Y-91754761D02*
X94357142Y-91802380D01*
X94166666Y-91802380D01*
X94071428Y-91754761D01*
X94023809Y-91659523D01*
X94023809Y-91278571D01*
X94071428Y-91183333D01*
X94166666Y-91135714D01*
X94357142Y-91135714D01*
X94452380Y-91183333D01*
X94500000Y-91278571D01*
X94500000Y-91373809D01*
X94023809Y-91469047D01*
X94928571Y-91802380D02*
X94928571Y-91135714D01*
X94928571Y-91230952D02*
X94976190Y-91183333D01*
X95071428Y-91135714D01*
X95214285Y-91135714D01*
X95309523Y-91183333D01*
X95357142Y-91278571D01*
X95357142Y-91802380D01*
X95357142Y-91278571D02*
X95404761Y-91183333D01*
X95500000Y-91135714D01*
X95642857Y-91135714D01*
X95738095Y-91183333D01*
X95785714Y-91278571D01*
X95785714Y-91802380D01*
X96404761Y-91802380D02*
X96309523Y-91754761D01*
X96261904Y-91707142D01*
X96214285Y-91611904D01*
X96214285Y-91326190D01*
X96261904Y-91230952D01*
X96309523Y-91183333D01*
X96404761Y-91135714D01*
X96547619Y-91135714D01*
X96642857Y-91183333D01*
X96690476Y-91230952D01*
X96738095Y-91326190D01*
X96738095Y-91611904D01*
X96690476Y-91707142D01*
X96642857Y-91754761D01*
X96547619Y-91802380D01*
X96404761Y-91802380D01*
X97071428Y-91135714D02*
X97309523Y-91802380D01*
X97547619Y-91135714D01*
X98309523Y-91754761D02*
X98214285Y-91802380D01*
X98023809Y-91802380D01*
X97928571Y-91754761D01*
X97880952Y-91659523D01*
X97880952Y-91278571D01*
X97928571Y-91183333D01*
X98023809Y-91135714D01*
X98214285Y-91135714D01*
X98309523Y-91183333D01*
X98357142Y-91278571D01*
X98357142Y-91373809D01*
X97880952Y-91469047D01*
X99547619Y-91135714D02*
X99547619Y-91992857D01*
X99500000Y-92088095D01*
X99404761Y-92135714D01*
X99357142Y-92135714D01*
X99547619Y-90802380D02*
X99500000Y-90850000D01*
X99547619Y-90897619D01*
X99595238Y-90850000D01*
X99547619Y-90802380D01*
X99547619Y-90897619D01*
X100452380Y-91135714D02*
X100452380Y-91802380D01*
X100023809Y-91135714D02*
X100023809Y-91659523D01*
X100071428Y-91754761D01*
X100166666Y-91802380D01*
X100309523Y-91802380D01*
X100404761Y-91754761D01*
X100452380Y-91707142D01*
X100928571Y-91802380D02*
X100928571Y-91135714D01*
X100928571Y-91230952D02*
X100976190Y-91183333D01*
X101071428Y-91135714D01*
X101214285Y-91135714D01*
X101309523Y-91183333D01*
X101357142Y-91278571D01*
X101357142Y-91802380D01*
X101357142Y-91278571D02*
X101404761Y-91183333D01*
X101500000Y-91135714D01*
X101642857Y-91135714D01*
X101738095Y-91183333D01*
X101785714Y-91278571D01*
X101785714Y-91802380D01*
X102261904Y-91135714D02*
X102261904Y-92135714D01*
X102261904Y-91183333D02*
X102357142Y-91135714D01*
X102547619Y-91135714D01*
X102642857Y-91183333D01*
X102690476Y-91230952D01*
X102738095Y-91326190D01*
X102738095Y-91611904D01*
X102690476Y-91707142D01*
X102642857Y-91754761D01*
X102547619Y-91802380D01*
X102357142Y-91802380D01*
X102261904Y-91754761D01*
X103547619Y-91754761D02*
X103452380Y-91802380D01*
X103261904Y-91802380D01*
X103166666Y-91754761D01*
X103119047Y-91659523D01*
X103119047Y-91278571D01*
X103166666Y-91183333D01*
X103261904Y-91135714D01*
X103452380Y-91135714D01*
X103547619Y-91183333D01*
X103595238Y-91278571D01*
X103595238Y-91373809D01*
X103119047Y-91469047D01*
X104023809Y-91802380D02*
X104023809Y-91135714D01*
X104023809Y-91326190D02*
X104071428Y-91230952D01*
X104119047Y-91183333D01*
X104214285Y-91135714D01*
X104309523Y-91135714D01*
X92714285Y-92785714D02*
X92904761Y-93452380D01*
X93095238Y-92976190D01*
X93285714Y-93452380D01*
X93476190Y-92785714D01*
X93857142Y-93452380D02*
X93857142Y-92452380D01*
X94285714Y-93452380D02*
X94285714Y-92928571D01*
X94238095Y-92833333D01*
X94142857Y-92785714D01*
X94000000Y-92785714D01*
X93904761Y-92833333D01*
X93857142Y-92880952D01*
X95142857Y-93404761D02*
X95047619Y-93452380D01*
X94857142Y-93452380D01*
X94761904Y-93404761D01*
X94714285Y-93309523D01*
X94714285Y-92928571D01*
X94761904Y-92833333D01*
X94857142Y-92785714D01*
X95047619Y-92785714D01*
X95142857Y-92833333D01*
X95190476Y-92928571D01*
X95190476Y-93023809D01*
X94714285Y-93119047D01*
X95619047Y-92785714D02*
X95619047Y-93452380D01*
X95619047Y-92880952D02*
X95666666Y-92833333D01*
X95761904Y-92785714D01*
X95904761Y-92785714D01*
X96000000Y-92833333D01*
X96047619Y-92928571D01*
X96047619Y-93452380D01*
X97238095Y-93166666D02*
X97714285Y-93166666D01*
X97142857Y-93452380D02*
X97476190Y-92452380D01*
X97809523Y-93452380D01*
X98142857Y-93452380D02*
X98142857Y-92785714D01*
X98142857Y-92976190D02*
X98190476Y-92880952D01*
X98238095Y-92833333D01*
X98333333Y-92785714D01*
X98428571Y-92785714D01*
X99190476Y-93452380D02*
X99190476Y-92452380D01*
X99190476Y-93404761D02*
X99095238Y-93452380D01*
X98904761Y-93452380D01*
X98809523Y-93404761D01*
X98761904Y-93357142D01*
X98714285Y-93261904D01*
X98714285Y-92976190D01*
X98761904Y-92880952D01*
X98809523Y-92833333D01*
X98904761Y-92785714D01*
X99095238Y-92785714D01*
X99190476Y-92833333D01*
X100095238Y-92785714D02*
X100095238Y-93452380D01*
X99666666Y-92785714D02*
X99666666Y-93309523D01*
X99714285Y-93404761D01*
X99809523Y-93452380D01*
X99952380Y-93452380D01*
X100047619Y-93404761D01*
X100095238Y-93357142D01*
X100571428Y-93452380D02*
X100571428Y-92785714D01*
X100571428Y-92452380D02*
X100523809Y-92500000D01*
X100571428Y-92547619D01*
X100619047Y-92500000D01*
X100571428Y-92452380D01*
X100571428Y-92547619D01*
X101047619Y-92785714D02*
X101047619Y-93452380D01*
X101047619Y-92880952D02*
X101095238Y-92833333D01*
X101190476Y-92785714D01*
X101333333Y-92785714D01*
X101428571Y-92833333D01*
X101476190Y-92928571D01*
X101476190Y-93452380D01*
X102095238Y-93452380D02*
X102000000Y-93404761D01*
X101952380Y-93357142D01*
X101904761Y-93261904D01*
X101904761Y-92976190D01*
X101952380Y-92880952D01*
X102000000Y-92833333D01*
X102095238Y-92785714D01*
X102238095Y-92785714D01*
X102333333Y-92833333D01*
X102380952Y-92880952D01*
X102428571Y-92976190D01*
X102428571Y-93261904D01*
X102380952Y-93357142D01*
X102333333Y-93404761D01*
X102238095Y-93452380D01*
X102095238Y-93452380D01*
X103619047Y-93452380D02*
X103619047Y-92785714D01*
X103619047Y-92452380D02*
X103571428Y-92500000D01*
X103619047Y-92547619D01*
X103666666Y-92500000D01*
X103619047Y-92452380D01*
X103619047Y-92547619D01*
X104047619Y-93404761D02*
X104142857Y-93452380D01*
X104333333Y-93452380D01*
X104428571Y-93404761D01*
X104476190Y-93309523D01*
X104476190Y-93261904D01*
X104428571Y-93166666D01*
X104333333Y-93119047D01*
X104190476Y-93119047D01*
X104095238Y-93071428D01*
X104047619Y-92976190D01*
X104047619Y-92928571D01*
X104095238Y-92833333D01*
X104190476Y-92785714D01*
X104333333Y-92785714D01*
X104428571Y-92833333D01*
X92857142Y-94435714D02*
X92857142Y-95435714D01*
X92857142Y-94483333D02*
X92952380Y-94435714D01*
X93142857Y-94435714D01*
X93238095Y-94483333D01*
X93285714Y-94530952D01*
X93333333Y-94626190D01*
X93333333Y-94911904D01*
X93285714Y-95007142D01*
X93238095Y-95054761D01*
X93142857Y-95102380D01*
X92952380Y-95102380D01*
X92857142Y-95054761D01*
X93904761Y-95102380D02*
X93809523Y-95054761D01*
X93761904Y-95007142D01*
X93714285Y-94911904D01*
X93714285Y-94626190D01*
X93761904Y-94530952D01*
X93809523Y-94483333D01*
X93904761Y-94435714D01*
X94047619Y-94435714D01*
X94142857Y-94483333D01*
X94190476Y-94530952D01*
X94238095Y-94626190D01*
X94238095Y-94911904D01*
X94190476Y-95007142D01*
X94142857Y-95054761D01*
X94047619Y-95102380D01*
X93904761Y-95102380D01*
X94571428Y-94435714D02*
X94761904Y-95102380D01*
X94952380Y-94626190D01*
X95142857Y-95102380D01*
X95333333Y-94435714D01*
X96095238Y-95054761D02*
X96000000Y-95102380D01*
X95809523Y-95102380D01*
X95714285Y-95054761D01*
X95666666Y-94959523D01*
X95666666Y-94578571D01*
X95714285Y-94483333D01*
X95809523Y-94435714D01*
X96000000Y-94435714D01*
X96095238Y-94483333D01*
X96142857Y-94578571D01*
X96142857Y-94673809D01*
X95666666Y-94769047D01*
X96571428Y-95102380D02*
X96571428Y-94435714D01*
X96571428Y-94626190D02*
X96619047Y-94530952D01*
X96666666Y-94483333D01*
X96761904Y-94435714D01*
X96857142Y-94435714D01*
X97571428Y-95054761D02*
X97476190Y-95102380D01*
X97285714Y-95102380D01*
X97190476Y-95054761D01*
X97142857Y-94959523D01*
X97142857Y-94578571D01*
X97190476Y-94483333D01*
X97285714Y-94435714D01*
X97476190Y-94435714D01*
X97571428Y-94483333D01*
X97619047Y-94578571D01*
X97619047Y-94673809D01*
X97142857Y-94769047D01*
X98476190Y-95102380D02*
X98476190Y-94102380D01*
X98476190Y-95054761D02*
X98380952Y-95102380D01*
X98190476Y-95102380D01*
X98095238Y-95054761D01*
X98047619Y-95007142D01*
X98000000Y-94911904D01*
X98000000Y-94626190D01*
X98047619Y-94530952D01*
X98095238Y-94483333D01*
X98190476Y-94435714D01*
X98380952Y-94435714D01*
X98476190Y-94483333D01*
X99714285Y-95102380D02*
X99714285Y-94102380D01*
X99714285Y-94483333D02*
X99809523Y-94435714D01*
X100000000Y-94435714D01*
X100095238Y-94483333D01*
X100142857Y-94530952D01*
X100190476Y-94626190D01*
X100190476Y-94911904D01*
X100142857Y-95007142D01*
X100095238Y-95054761D01*
X100000000Y-95102380D01*
X99809523Y-95102380D01*
X99714285Y-95054761D01*
X100523809Y-94435714D02*
X100761904Y-95102380D01*
X101000000Y-94435714D02*
X100761904Y-95102380D01*
X100666666Y-95340476D01*
X100619047Y-95388095D01*
X100523809Y-95435714D01*
X102142857Y-94102380D02*
X102142857Y-94911904D01*
X102190476Y-95007142D01*
X102238095Y-95054761D01*
X102333333Y-95102380D01*
X102523809Y-95102380D01*
X102619047Y-95054761D01*
X102666666Y-95007142D01*
X102714285Y-94911904D01*
X102714285Y-94102380D01*
X103142857Y-95054761D02*
X103285714Y-95102380D01*
X103523809Y-95102380D01*
X103619047Y-95054761D01*
X103666666Y-95007142D01*
X103714285Y-94911904D01*
X103714285Y-94816666D01*
X103666666Y-94721428D01*
X103619047Y-94673809D01*
X103523809Y-94626190D01*
X103333333Y-94578571D01*
X103238095Y-94530952D01*
X103190476Y-94483333D01*
X103142857Y-94388095D01*
X103142857Y-94292857D01*
X103190476Y-94197619D01*
X103238095Y-94150000D01*
X103333333Y-94102380D01*
X103571428Y-94102380D01*
X103714285Y-94150000D01*
X104476190Y-94578571D02*
X104619047Y-94626190D01*
X104666666Y-94673809D01*
X104714285Y-94769047D01*
X104714285Y-94911904D01*
X104666666Y-95007142D01*
X104619047Y-95054761D01*
X104523809Y-95102380D01*
X104142857Y-95102380D01*
X104142857Y-94102380D01*
X104476190Y-94102380D01*
X104571428Y-94150000D01*
X104619047Y-94197619D01*
X104666666Y-94292857D01*
X104666666Y-94388095D01*
X104619047Y-94483333D01*
X104571428Y-94530952D01*
X104476190Y-94578571D01*
X104142857Y-94578571D01*
X105142857Y-95007142D02*
X105190476Y-95054761D01*
X105142857Y-95102380D01*
X105095238Y-95054761D01*
X105142857Y-95007142D01*
X105142857Y-95102380D01*
X57142857Y-82516666D02*
X57619047Y-82516666D01*
X57047619Y-82802380D02*
X57380952Y-81802380D01*
X57714285Y-82802380D01*
X58047619Y-82802380D02*
X58047619Y-82135714D01*
X58047619Y-82326190D02*
X58095238Y-82230952D01*
X58142857Y-82183333D01*
X58238095Y-82135714D01*
X58333333Y-82135714D01*
X59095238Y-82802380D02*
X59095238Y-81802380D01*
X59095238Y-82754761D02*
X59000000Y-82802380D01*
X58809523Y-82802380D01*
X58714285Y-82754761D01*
X58666666Y-82707142D01*
X58619047Y-82611904D01*
X58619047Y-82326190D01*
X58666666Y-82230952D01*
X58714285Y-82183333D01*
X58809523Y-82135714D01*
X59000000Y-82135714D01*
X59095238Y-82183333D01*
X60000000Y-82135714D02*
X60000000Y-82802380D01*
X59571428Y-82135714D02*
X59571428Y-82659523D01*
X59619047Y-82754761D01*
X59714285Y-82802380D01*
X59857142Y-82802380D01*
X59952380Y-82754761D01*
X60000000Y-82707142D01*
X60476190Y-82802380D02*
X60476190Y-82135714D01*
X60476190Y-81802380D02*
X60428571Y-81850000D01*
X60476190Y-81897619D01*
X60523809Y-81850000D01*
X60476190Y-81802380D01*
X60476190Y-81897619D01*
X60952380Y-82135714D02*
X60952380Y-82802380D01*
X60952380Y-82230952D02*
X61000000Y-82183333D01*
X61095238Y-82135714D01*
X61238095Y-82135714D01*
X61333333Y-82183333D01*
X61380952Y-82278571D01*
X61380952Y-82802380D01*
X62000000Y-82802380D02*
X61904761Y-82754761D01*
X61857142Y-82707142D01*
X61809523Y-82611904D01*
X61809523Y-82326190D01*
X61857142Y-82230952D01*
X61904761Y-82183333D01*
X62000000Y-82135714D01*
X62142857Y-82135714D01*
X62238095Y-82183333D01*
X62285714Y-82230952D01*
X62333333Y-82326190D01*
X62333333Y-82611904D01*
X62285714Y-82707142D01*
X62238095Y-82754761D01*
X62142857Y-82802380D01*
X62000000Y-82802380D01*
X63523809Y-82802380D02*
X63523809Y-81802380D01*
X64095238Y-82802380D01*
X64095238Y-81802380D01*
X65000000Y-82802380D02*
X65000000Y-82278571D01*
X64952380Y-82183333D01*
X64857142Y-82135714D01*
X64666666Y-82135714D01*
X64571428Y-82183333D01*
X65000000Y-82754761D02*
X64904761Y-82802380D01*
X64666666Y-82802380D01*
X64571428Y-82754761D01*
X64523809Y-82659523D01*
X64523809Y-82564285D01*
X64571428Y-82469047D01*
X64666666Y-82421428D01*
X64904761Y-82421428D01*
X65000000Y-82373809D01*
X65476190Y-82135714D02*
X65476190Y-82802380D01*
X65476190Y-82230952D02*
X65523809Y-82183333D01*
X65619047Y-82135714D01*
X65761904Y-82135714D01*
X65857142Y-82183333D01*
X65904761Y-82278571D01*
X65904761Y-82802380D01*
X66523809Y-82802380D02*
X66428571Y-82754761D01*
X66380952Y-82707142D01*
X66333333Y-82611904D01*
X66333333Y-82326190D01*
X66380952Y-82230952D01*
X66428571Y-82183333D01*
X66523809Y-82135714D01*
X66666666Y-82135714D01*
X66761904Y-82183333D01*
X66809523Y-82230952D01*
X66857142Y-82326190D01*
X66857142Y-82611904D01*
X66809523Y-82707142D01*
X66761904Y-82754761D01*
X66666666Y-82802380D01*
X66523809Y-82802380D01*
X55761904Y-85435714D02*
X55000000Y-85721428D01*
X55761904Y-86007142D01*
X56238095Y-85721428D02*
X57000000Y-85721428D01*
X57476190Y-85721428D02*
X58238095Y-85721428D01*
X59476190Y-85102380D02*
X59476190Y-85911904D01*
X59523809Y-86007142D01*
X59571428Y-86054761D01*
X59666666Y-86102380D01*
X59857142Y-86102380D01*
X59952380Y-86054761D01*
X60000000Y-86007142D01*
X60047619Y-85911904D01*
X60047619Y-85102380D01*
X60476190Y-86054761D02*
X60619047Y-86102380D01*
X60857142Y-86102380D01*
X60952380Y-86054761D01*
X61000000Y-86007142D01*
X61047619Y-85911904D01*
X61047619Y-85816666D01*
X61000000Y-85721428D01*
X60952380Y-85673809D01*
X60857142Y-85626190D01*
X60666666Y-85578571D01*
X60571428Y-85530952D01*
X60523809Y-85483333D01*
X60476190Y-85388095D01*
X60476190Y-85292857D01*
X60523809Y-85197619D01*
X60571428Y-85150000D01*
X60666666Y-85102380D01*
X60904761Y-85102380D01*
X61047619Y-85150000D01*
X61809523Y-85578571D02*
X61952380Y-85626190D01*
X62000000Y-85673809D01*
X62047619Y-85769047D01*
X62047619Y-85911904D01*
X62000000Y-86007142D01*
X61952380Y-86054761D01*
X61857142Y-86102380D01*
X61476190Y-86102380D01*
X61476190Y-85102380D01*
X61809523Y-85102380D01*
X61904761Y-85150000D01*
X61952380Y-85197619D01*
X62000000Y-85292857D01*
X62000000Y-85388095D01*
X61952380Y-85483333D01*
X61904761Y-85530952D01*
X61809523Y-85578571D01*
X61476190Y-85578571D01*
X63095238Y-85435714D02*
X63476190Y-85435714D01*
X63238095Y-85102380D02*
X63238095Y-85959523D01*
X63285714Y-86054761D01*
X63380952Y-86102380D01*
X63476190Y-86102380D01*
X63809523Y-86102380D02*
X63809523Y-85102380D01*
X64238095Y-86102380D02*
X64238095Y-85578571D01*
X64190476Y-85483333D01*
X64095238Y-85435714D01*
X63952380Y-85435714D01*
X63857142Y-85483333D01*
X63809523Y-85530952D01*
X64714285Y-86102380D02*
X64714285Y-85435714D01*
X64714285Y-85102380D02*
X64666666Y-85150000D01*
X64714285Y-85197619D01*
X64761904Y-85150000D01*
X64714285Y-85102380D01*
X64714285Y-85197619D01*
X65142857Y-86054761D02*
X65238095Y-86102380D01*
X65428571Y-86102380D01*
X65523809Y-86054761D01*
X65571428Y-85959523D01*
X65571428Y-85911904D01*
X65523809Y-85816666D01*
X65428571Y-85769047D01*
X65285714Y-85769047D01*
X65190476Y-85721428D01*
X65142857Y-85626190D01*
X65142857Y-85578571D01*
X65190476Y-85483333D01*
X65285714Y-85435714D01*
X65428571Y-85435714D01*
X65523809Y-85483333D01*
X66666666Y-85435714D02*
X66857142Y-86102380D01*
X67047619Y-85626190D01*
X67238095Y-86102380D01*
X67428571Y-85435714D01*
X68238095Y-86102380D02*
X68238095Y-85578571D01*
X68190476Y-85483333D01*
X68095238Y-85435714D01*
X67904761Y-85435714D01*
X67809523Y-85483333D01*
X68238095Y-86054761D02*
X68142857Y-86102380D01*
X67904761Y-86102380D01*
X67809523Y-86054761D01*
X67761904Y-85959523D01*
X67761904Y-85864285D01*
X67809523Y-85769047D01*
X67904761Y-85721428D01*
X68142857Y-85721428D01*
X68238095Y-85673809D01*
X68619047Y-85435714D02*
X68857142Y-86102380D01*
X69095238Y-85435714D02*
X68857142Y-86102380D01*
X68761904Y-86340476D01*
X68714285Y-86388095D01*
X68619047Y-86435714D01*
D12*
X41000000Y-90000000D02*
X41000000Y-83000000D01*
X51000000Y-90000000D02*
X41000000Y-90000000D01*
X51000000Y-83000000D02*
X51000000Y-90000000D01*
X41000000Y-83000000D02*
X51000000Y-83000000D01*
%TO.C,J7*%
X119091400Y-59055000D02*
X121751400Y-59055000D01*
X119091400Y-59055000D02*
X119091400Y-61655000D01*
X119091400Y-61655000D02*
X121751400Y-61655000D01*
X121751400Y-59055000D02*
X121751400Y-61655000D01*
X121751400Y-56455000D02*
X121751400Y-57785000D01*
X120421400Y-56455000D02*
X121751400Y-56455000D01*
%TO.C,D1*%
X71569200Y-50933400D02*
X74869200Y-50933400D01*
X74869200Y-50933400D02*
X74869200Y-45533400D01*
X71569200Y-50933400D02*
X71569200Y-45533400D01*
%TO.C,C3*%
X124541400Y-45883200D02*
G75*
G03*
X124541400Y-45883200I-4120000J0D01*
G01*
X124501400Y-45883200D02*
X116341400Y-45883200D01*
X124501400Y-45923200D02*
X116341400Y-45923200D01*
X124501400Y-45963200D02*
X116341400Y-45963200D01*
X124500400Y-46003200D02*
X116342400Y-46003200D01*
X124498400Y-46043200D02*
X116344400Y-46043200D01*
X124497400Y-46083200D02*
X116345400Y-46083200D01*
X124495400Y-46123200D02*
X116347400Y-46123200D01*
X124492400Y-46163200D02*
X116350400Y-46163200D01*
X124489400Y-46203200D02*
X116353400Y-46203200D01*
X124486400Y-46243200D02*
X116356400Y-46243200D01*
X124482400Y-46283200D02*
X116360400Y-46283200D01*
X124478400Y-46323200D02*
X116364400Y-46323200D01*
X124473400Y-46363200D02*
X116369400Y-46363200D01*
X124469400Y-46403200D02*
X116373400Y-46403200D01*
X124463400Y-46443200D02*
X116379400Y-46443200D01*
X124458400Y-46483200D02*
X116384400Y-46483200D01*
X124451400Y-46523200D02*
X116391400Y-46523200D01*
X124445400Y-46563200D02*
X116397400Y-46563200D01*
X124438400Y-46604200D02*
X116404400Y-46604200D01*
X124431400Y-46644200D02*
X116411400Y-46644200D01*
X124423400Y-46684200D02*
X116419400Y-46684200D01*
X124415400Y-46724200D02*
X116427400Y-46724200D01*
X124406400Y-46764200D02*
X116436400Y-46764200D01*
X124397400Y-46804200D02*
X116445400Y-46804200D01*
X124388400Y-46844200D02*
X116454400Y-46844200D01*
X124378400Y-46884200D02*
X116464400Y-46884200D01*
X124368400Y-46924200D02*
X116474400Y-46924200D01*
X124357400Y-46964200D02*
X116485400Y-46964200D01*
X124346400Y-47004200D02*
X116496400Y-47004200D01*
X124335400Y-47044200D02*
X116507400Y-47044200D01*
X124323400Y-47084200D02*
X116519400Y-47084200D01*
X124310400Y-47124200D02*
X116532400Y-47124200D01*
X124298400Y-47164200D02*
X116544400Y-47164200D01*
X124284400Y-47204200D02*
X116558400Y-47204200D01*
X124271400Y-47244200D02*
X116571400Y-47244200D01*
X124256400Y-47284200D02*
X116586400Y-47284200D01*
X124242400Y-47324200D02*
X116600400Y-47324200D01*
X124226400Y-47364200D02*
X121461400Y-47364200D01*
X119381400Y-47364200D02*
X116616400Y-47364200D01*
X124211400Y-47404200D02*
X121461400Y-47404200D01*
X119381400Y-47404200D02*
X116631400Y-47404200D01*
X124195400Y-47444200D02*
X121461400Y-47444200D01*
X119381400Y-47444200D02*
X116647400Y-47444200D01*
X124178400Y-47484200D02*
X121461400Y-47484200D01*
X119381400Y-47484200D02*
X116664400Y-47484200D01*
X124161400Y-47524200D02*
X121461400Y-47524200D01*
X119381400Y-47524200D02*
X116681400Y-47524200D01*
X124143400Y-47564200D02*
X121461400Y-47564200D01*
X119381400Y-47564200D02*
X116699400Y-47564200D01*
X124125400Y-47604200D02*
X121461400Y-47604200D01*
X119381400Y-47604200D02*
X116717400Y-47604200D01*
X124107400Y-47644200D02*
X121461400Y-47644200D01*
X119381400Y-47644200D02*
X116735400Y-47644200D01*
X124087400Y-47684200D02*
X121461400Y-47684200D01*
X119381400Y-47684200D02*
X116755400Y-47684200D01*
X124068400Y-47724200D02*
X121461400Y-47724200D01*
X119381400Y-47724200D02*
X116774400Y-47724200D01*
X124048400Y-47764200D02*
X121461400Y-47764200D01*
X119381400Y-47764200D02*
X116794400Y-47764200D01*
X124027400Y-47804200D02*
X121461400Y-47804200D01*
X119381400Y-47804200D02*
X116815400Y-47804200D01*
X124005400Y-47844200D02*
X121461400Y-47844200D01*
X119381400Y-47844200D02*
X116837400Y-47844200D01*
X123983400Y-47884200D02*
X121461400Y-47884200D01*
X119381400Y-47884200D02*
X116859400Y-47884200D01*
X123961400Y-47924200D02*
X121461400Y-47924200D01*
X119381400Y-47924200D02*
X116881400Y-47924200D01*
X123938400Y-47964200D02*
X121461400Y-47964200D01*
X119381400Y-47964200D02*
X116904400Y-47964200D01*
X123914400Y-48004200D02*
X121461400Y-48004200D01*
X119381400Y-48004200D02*
X116928400Y-48004200D01*
X123890400Y-48044200D02*
X121461400Y-48044200D01*
X119381400Y-48044200D02*
X116952400Y-48044200D01*
X123865400Y-48084200D02*
X121461400Y-48084200D01*
X119381400Y-48084200D02*
X116977400Y-48084200D01*
X123839400Y-48124200D02*
X121461400Y-48124200D01*
X119381400Y-48124200D02*
X117003400Y-48124200D01*
X123813400Y-48164200D02*
X121461400Y-48164200D01*
X119381400Y-48164200D02*
X117029400Y-48164200D01*
X123786400Y-48204200D02*
X121461400Y-48204200D01*
X119381400Y-48204200D02*
X117056400Y-48204200D01*
X123759400Y-48244200D02*
X121461400Y-48244200D01*
X119381400Y-48244200D02*
X117083400Y-48244200D01*
X123730400Y-48284200D02*
X121461400Y-48284200D01*
X119381400Y-48284200D02*
X117112400Y-48284200D01*
X123701400Y-48324200D02*
X121461400Y-48324200D01*
X119381400Y-48324200D02*
X117141400Y-48324200D01*
X123671400Y-48364200D02*
X121461400Y-48364200D01*
X119381400Y-48364200D02*
X117171400Y-48364200D01*
X123641400Y-48404200D02*
X121461400Y-48404200D01*
X119381400Y-48404200D02*
X117201400Y-48404200D01*
X123610400Y-48444200D02*
X121461400Y-48444200D01*
X119381400Y-48444200D02*
X117232400Y-48444200D01*
X123577400Y-48484200D02*
X121461400Y-48484200D01*
X119381400Y-48484200D02*
X117265400Y-48484200D01*
X123545400Y-48524200D02*
X121461400Y-48524200D01*
X119381400Y-48524200D02*
X117297400Y-48524200D01*
X123511400Y-48564200D02*
X121461400Y-48564200D01*
X119381400Y-48564200D02*
X117331400Y-48564200D01*
X123476400Y-48604200D02*
X121461400Y-48604200D01*
X119381400Y-48604200D02*
X117366400Y-48604200D01*
X123440400Y-48644200D02*
X121461400Y-48644200D01*
X119381400Y-48644200D02*
X117402400Y-48644200D01*
X123404400Y-48684200D02*
X121461400Y-48684200D01*
X119381400Y-48684200D02*
X117438400Y-48684200D01*
X123366400Y-48724200D02*
X121461400Y-48724200D01*
X119381400Y-48724200D02*
X117476400Y-48724200D01*
X123328400Y-48764200D02*
X121461400Y-48764200D01*
X119381400Y-48764200D02*
X117514400Y-48764200D01*
X123288400Y-48804200D02*
X121461400Y-48804200D01*
X119381400Y-48804200D02*
X117554400Y-48804200D01*
X123247400Y-48844200D02*
X121461400Y-48844200D01*
X119381400Y-48844200D02*
X117595400Y-48844200D01*
X123205400Y-48884200D02*
X121461400Y-48884200D01*
X119381400Y-48884200D02*
X117637400Y-48884200D01*
X123162400Y-48924200D02*
X121461400Y-48924200D01*
X119381400Y-48924200D02*
X117680400Y-48924200D01*
X123118400Y-48964200D02*
X121461400Y-48964200D01*
X119381400Y-48964200D02*
X117724400Y-48964200D01*
X123072400Y-49004200D02*
X121461400Y-49004200D01*
X119381400Y-49004200D02*
X117770400Y-49004200D01*
X123025400Y-49044200D02*
X121461400Y-49044200D01*
X119381400Y-49044200D02*
X117817400Y-49044200D01*
X122977400Y-49084200D02*
X121461400Y-49084200D01*
X119381400Y-49084200D02*
X117865400Y-49084200D01*
X122926400Y-49124200D02*
X121461400Y-49124200D01*
X119381400Y-49124200D02*
X117916400Y-49124200D01*
X122875400Y-49164200D02*
X121461400Y-49164200D01*
X119381400Y-49164200D02*
X117967400Y-49164200D01*
X122821400Y-49204200D02*
X121461400Y-49204200D01*
X119381400Y-49204200D02*
X118021400Y-49204200D01*
X122766400Y-49244200D02*
X121461400Y-49244200D01*
X119381400Y-49244200D02*
X118076400Y-49244200D01*
X122708400Y-49284200D02*
X121461400Y-49284200D01*
X119381400Y-49284200D02*
X118134400Y-49284200D01*
X122649400Y-49324200D02*
X121461400Y-49324200D01*
X119381400Y-49324200D02*
X118193400Y-49324200D01*
X122587400Y-49364200D02*
X121461400Y-49364200D01*
X119381400Y-49364200D02*
X118255400Y-49364200D01*
X122523400Y-49404200D02*
X121461400Y-49404200D01*
X119381400Y-49404200D02*
X118319400Y-49404200D01*
X122455400Y-49444200D02*
X118387400Y-49444200D01*
X122385400Y-49484200D02*
X118457400Y-49484200D01*
X122311400Y-49524200D02*
X118531400Y-49524200D01*
X122234400Y-49564200D02*
X118608400Y-49564200D01*
X122152400Y-49604200D02*
X118690400Y-49604200D01*
X122066400Y-49644200D02*
X118776400Y-49644200D01*
X121973400Y-49684200D02*
X118869400Y-49684200D01*
X121874400Y-49724200D02*
X118968400Y-49724200D01*
X121767400Y-49764200D02*
X119075400Y-49764200D01*
X121650400Y-49804200D02*
X119192400Y-49804200D01*
X121519400Y-49844200D02*
X119323400Y-49844200D01*
X121369400Y-49884200D02*
X119473400Y-49884200D01*
X121189400Y-49924200D02*
X119653400Y-49924200D01*
X120954400Y-49964200D02*
X119888400Y-49964200D01*
X122736400Y-41473502D02*
X122736400Y-42273502D01*
X123136400Y-41873502D02*
X122336400Y-41873502D01*
%TO.C,V_OUT1*%
X138320600Y-57073800D02*
X138320600Y-38023800D01*
X127842334Y-38158913D02*
X127820600Y-57073800D01*
X127842333Y-38158913D02*
G75*
G02*
X138320599Y-38013801I5238267J135113D01*
G01*
X127820600Y-57073800D02*
G75*
G03*
X138320600Y-57073800I5250000J0D01*
G01*
%TO.C,V_IN1*%
X52392400Y-56896000D02*
X52392400Y-37846000D01*
X41914134Y-37981113D02*
X41892400Y-56896000D01*
X41914133Y-37981113D02*
G75*
G02*
X52392399Y-37836001I5238267J135113D01*
G01*
X41892400Y-56896000D02*
G75*
G03*
X52392400Y-56896000I5250000J0D01*
G01*
%TO.C,A1*%
X81730000Y-80270000D02*
X84270000Y-80270000D01*
X84270000Y-80270000D02*
X84270000Y-77600000D01*
X81730000Y-77600000D02*
X43500000Y-77600000D01*
X86940000Y-77600000D02*
X84270000Y-77600000D01*
X84270000Y-92970000D02*
X84270000Y-95640000D01*
X84270000Y-92970000D02*
X46170000Y-92970000D01*
X46170000Y-92970000D02*
X46170000Y-95640000D01*
X81730000Y-80270000D02*
X81730000Y-77600000D01*
X81730000Y-80270000D02*
X46170000Y-80270000D01*
X46170000Y-80270000D02*
X46170000Y-77600000D01*
X43500000Y-77600000D02*
X43500000Y-95640000D01*
X43500000Y-95640000D02*
X86940000Y-95640000D01*
X86940000Y-95640000D02*
X86940000Y-77600000D01*
%TO.C,C1*%
X59802600Y-42250000D02*
X59802600Y-43750000D01*
X59052600Y-43000000D02*
X60552600Y-43000000D01*
X70583600Y-42721000D02*
X70583600Y-43279000D01*
X70543600Y-42328000D02*
X70543600Y-43672000D01*
X70503600Y-42087000D02*
X70503600Y-43913000D01*
X70463600Y-41896000D02*
X70463600Y-44104000D01*
X70423600Y-44181000D02*
X70423600Y-44265000D01*
X70423600Y-41735000D02*
X70423600Y-41819000D01*
X70383600Y-44181000D02*
X70383600Y-44407000D01*
X70383600Y-41593000D02*
X70383600Y-41819000D01*
X70343600Y-44181000D02*
X70343600Y-44536000D01*
X70343600Y-41464000D02*
X70343600Y-41819000D01*
X70303600Y-44181000D02*
X70303600Y-44654000D01*
X70303600Y-41346000D02*
X70303600Y-41819000D01*
X70263600Y-44181000D02*
X70263600Y-44763000D01*
X70263600Y-41237000D02*
X70263600Y-41819000D01*
X70223600Y-44181000D02*
X70223600Y-44866000D01*
X70223600Y-41134000D02*
X70223600Y-41819000D01*
X70183600Y-44181000D02*
X70183600Y-44962000D01*
X70183600Y-41038000D02*
X70183600Y-41819000D01*
X70143600Y-44181000D02*
X70143600Y-45053000D01*
X70143600Y-40947000D02*
X70143600Y-41819000D01*
X70103600Y-44181000D02*
X70103600Y-45140000D01*
X70103600Y-40860000D02*
X70103600Y-41819000D01*
X70063600Y-44181000D02*
X70063600Y-45222000D01*
X70063600Y-40778000D02*
X70063600Y-41819000D01*
X70023600Y-44181000D02*
X70023600Y-45301000D01*
X70023600Y-40699000D02*
X70023600Y-41819000D01*
X69983600Y-44181000D02*
X69983600Y-45377000D01*
X69983600Y-40623000D02*
X69983600Y-41819000D01*
X69943600Y-44181000D02*
X69943600Y-45449000D01*
X69943600Y-40551000D02*
X69943600Y-41819000D01*
X69903600Y-44181000D02*
X69903600Y-45519000D01*
X69903600Y-40481000D02*
X69903600Y-41819000D01*
X69863600Y-44181000D02*
X69863600Y-45587000D01*
X69863600Y-40413000D02*
X69863600Y-41819000D01*
X69823600Y-44181000D02*
X69823600Y-45652000D01*
X69823600Y-40348000D02*
X69823600Y-41819000D01*
X69783600Y-44181000D02*
X69783600Y-45715000D01*
X69783600Y-40285000D02*
X69783600Y-41819000D01*
X69743600Y-44181000D02*
X69743600Y-45777000D01*
X69743600Y-40223000D02*
X69743600Y-41819000D01*
X69703600Y-44181000D02*
X69703600Y-45836000D01*
X69703600Y-40164000D02*
X69703600Y-41819000D01*
X69663600Y-44181000D02*
X69663600Y-45894000D01*
X69663600Y-40106000D02*
X69663600Y-41819000D01*
X69623600Y-44181000D02*
X69623600Y-45949000D01*
X69623600Y-40051000D02*
X69623600Y-41819000D01*
X69583600Y-44181000D02*
X69583600Y-46004000D01*
X69583600Y-39996000D02*
X69583600Y-41819000D01*
X69543600Y-44181000D02*
X69543600Y-46057000D01*
X69543600Y-39943000D02*
X69543600Y-41819000D01*
X69503600Y-44181000D02*
X69503600Y-46108000D01*
X69503600Y-39892000D02*
X69503600Y-41819000D01*
X69463600Y-44181000D02*
X69463600Y-46158000D01*
X69463600Y-39842000D02*
X69463600Y-41819000D01*
X69423600Y-44181000D02*
X69423600Y-46207000D01*
X69423600Y-39793000D02*
X69423600Y-41819000D01*
X69383600Y-44181000D02*
X69383600Y-46255000D01*
X69383600Y-39745000D02*
X69383600Y-41819000D01*
X69343600Y-44181000D02*
X69343600Y-46302000D01*
X69343600Y-39698000D02*
X69343600Y-41819000D01*
X69303600Y-44181000D02*
X69303600Y-46347000D01*
X69303600Y-39653000D02*
X69303600Y-41819000D01*
X69263600Y-44181000D02*
X69263600Y-46391000D01*
X69263600Y-39609000D02*
X69263600Y-41819000D01*
X69223600Y-44181000D02*
X69223600Y-46435000D01*
X69223600Y-39565000D02*
X69223600Y-41819000D01*
X69183600Y-44181000D02*
X69183600Y-46477000D01*
X69183600Y-39523000D02*
X69183600Y-41819000D01*
X69143600Y-44181000D02*
X69143600Y-46518000D01*
X69143600Y-39482000D02*
X69143600Y-41819000D01*
X69103600Y-44181000D02*
X69103600Y-46559000D01*
X69103600Y-39441000D02*
X69103600Y-41819000D01*
X69063600Y-44181000D02*
X69063600Y-46598000D01*
X69063600Y-39402000D02*
X69063600Y-41819000D01*
X69023600Y-44181000D02*
X69023600Y-46637000D01*
X69023600Y-39363000D02*
X69023600Y-41819000D01*
X68983600Y-44181000D02*
X68983600Y-46675000D01*
X68983600Y-39325000D02*
X68983600Y-41819000D01*
X68943600Y-44181000D02*
X68943600Y-46712000D01*
X68943600Y-39288000D02*
X68943600Y-41819000D01*
X68903600Y-44181000D02*
X68903600Y-46748000D01*
X68903600Y-39252000D02*
X68903600Y-41819000D01*
X68863600Y-44181000D02*
X68863600Y-46784000D01*
X68863600Y-39216000D02*
X68863600Y-41819000D01*
X68823600Y-44181000D02*
X68823600Y-46819000D01*
X68823600Y-39181000D02*
X68823600Y-41819000D01*
X68783600Y-44181000D02*
X68783600Y-46853000D01*
X68783600Y-39147000D02*
X68783600Y-41819000D01*
X68743600Y-44181000D02*
X68743600Y-46886000D01*
X68743600Y-39114000D02*
X68743600Y-41819000D01*
X68703600Y-44181000D02*
X68703600Y-46919000D01*
X68703600Y-39081000D02*
X68703600Y-41819000D01*
X68663600Y-44181000D02*
X68663600Y-46951000D01*
X68663600Y-39049000D02*
X68663600Y-41819000D01*
X68623600Y-44181000D02*
X68623600Y-46982000D01*
X68623600Y-39018000D02*
X68623600Y-41819000D01*
X68583600Y-44181000D02*
X68583600Y-47013000D01*
X68583600Y-38987000D02*
X68583600Y-41819000D01*
X68543600Y-44181000D02*
X68543600Y-47043000D01*
X68543600Y-38957000D02*
X68543600Y-41819000D01*
X68503600Y-44181000D02*
X68503600Y-47072000D01*
X68503600Y-38928000D02*
X68503600Y-41819000D01*
X68463600Y-44181000D02*
X68463600Y-47101000D01*
X68463600Y-38899000D02*
X68463600Y-41819000D01*
X68423600Y-44181000D02*
X68423600Y-47130000D01*
X68423600Y-38870000D02*
X68423600Y-41819000D01*
X68383600Y-44181000D02*
X68383600Y-47157000D01*
X68383600Y-38843000D02*
X68383600Y-41819000D01*
X68343600Y-44181000D02*
X68343600Y-47185000D01*
X68343600Y-38815000D02*
X68343600Y-41819000D01*
X68303600Y-44181000D02*
X68303600Y-47211000D01*
X68303600Y-38789000D02*
X68303600Y-41819000D01*
X68263600Y-44181000D02*
X68263600Y-47237000D01*
X68263600Y-38763000D02*
X68263600Y-41819000D01*
X68223600Y-44181000D02*
X68223600Y-47263000D01*
X68223600Y-38737000D02*
X68223600Y-41819000D01*
X68183600Y-44181000D02*
X68183600Y-47288000D01*
X68183600Y-38712000D02*
X68183600Y-41819000D01*
X68143600Y-44181000D02*
X68143600Y-47312000D01*
X68143600Y-38688000D02*
X68143600Y-41819000D01*
X68103600Y-44181000D02*
X68103600Y-47336000D01*
X68103600Y-38664000D02*
X68103600Y-41819000D01*
X68063600Y-38640000D02*
X68063600Y-47360000D01*
X68023600Y-38617000D02*
X68023600Y-47383000D01*
X67983600Y-38595000D02*
X67983600Y-47405000D01*
X67943600Y-38572000D02*
X67943600Y-47428000D01*
X67903600Y-38551000D02*
X67903600Y-47449000D01*
X67863600Y-38530000D02*
X67863600Y-47470000D01*
X67823600Y-38509000D02*
X67823600Y-47491000D01*
X67783600Y-38489000D02*
X67783600Y-47511000D01*
X67743600Y-38469000D02*
X67743600Y-47531000D01*
X67703600Y-38450000D02*
X67703600Y-47550000D01*
X67663600Y-38431000D02*
X67663600Y-47569000D01*
X67623600Y-38412000D02*
X67623600Y-47588000D01*
X67583600Y-38394000D02*
X67583600Y-47606000D01*
X67543600Y-38376000D02*
X67543600Y-47624000D01*
X67503600Y-38359000D02*
X67503600Y-47641000D01*
X67463600Y-38342000D02*
X67463600Y-47658000D01*
X67423600Y-38326000D02*
X67423600Y-47674000D01*
X67383600Y-38309000D02*
X67383600Y-47691000D01*
X67343600Y-38294000D02*
X67343600Y-47706000D01*
X67303600Y-38278000D02*
X67303600Y-47722000D01*
X67263600Y-38263000D02*
X67263600Y-47737000D01*
X67223600Y-38249000D02*
X67223600Y-47751000D01*
X67183600Y-38235000D02*
X67183600Y-47765000D01*
X67143600Y-38221000D02*
X67143600Y-47779000D01*
X67103600Y-38208000D02*
X67103600Y-47792000D01*
X67063600Y-38194000D02*
X67063600Y-47806000D01*
X67023600Y-38182000D02*
X67023600Y-47818000D01*
X66983600Y-38169000D02*
X66983600Y-47831000D01*
X66943600Y-38157000D02*
X66943600Y-47843000D01*
X66903600Y-38146000D02*
X66903600Y-47854000D01*
X66863600Y-38135000D02*
X66863600Y-47865000D01*
X66823600Y-38124000D02*
X66823600Y-47876000D01*
X66783600Y-38113000D02*
X66783600Y-47887000D01*
X66743600Y-38103000D02*
X66743600Y-47897000D01*
X66703600Y-38093000D02*
X66703600Y-47907000D01*
X66663600Y-38083000D02*
X66663600Y-47917000D01*
X66623600Y-38074000D02*
X66623600Y-47926000D01*
X66583600Y-38065000D02*
X66583600Y-47935000D01*
X66543600Y-38057000D02*
X66543600Y-47943000D01*
X66503600Y-38049000D02*
X66503600Y-47951000D01*
X66463600Y-38041000D02*
X66463600Y-47959000D01*
X66423600Y-38033000D02*
X66423600Y-47967000D01*
X66383600Y-38026000D02*
X66383600Y-47974000D01*
X66343600Y-38019000D02*
X66343600Y-47981000D01*
X66303600Y-38013000D02*
X66303600Y-47987000D01*
X66263600Y-38007000D02*
X66263600Y-47993000D01*
X66223600Y-38001000D02*
X66223600Y-47999000D01*
X66182600Y-37995000D02*
X66182600Y-48005000D01*
X66142600Y-37990000D02*
X66142600Y-48010000D01*
X66102600Y-37985000D02*
X66102600Y-48015000D01*
X66062600Y-37980000D02*
X66062600Y-48020000D01*
X66022600Y-37976000D02*
X66022600Y-48024000D01*
X65982600Y-37972000D02*
X65982600Y-48028000D01*
X65942600Y-37969000D02*
X65942600Y-48031000D01*
X65902600Y-37965000D02*
X65902600Y-48035000D01*
X65862600Y-37962000D02*
X65862600Y-48038000D01*
X65822600Y-37960000D02*
X65822600Y-48040000D01*
X65782600Y-37957000D02*
X65782600Y-48043000D01*
X65742600Y-37955000D02*
X65742600Y-48045000D01*
X65702600Y-37953000D02*
X65702600Y-48047000D01*
X65662600Y-37952000D02*
X65662600Y-48048000D01*
X65622600Y-37951000D02*
X65622600Y-48049000D01*
X65582600Y-37950000D02*
X65582600Y-48050000D01*
X65542600Y-37950000D02*
X65542600Y-48050000D01*
X65502600Y-37950000D02*
X65502600Y-48050000D01*
X70401037Y-41616736D02*
G75*
G03*
X60603243Y-41620000I-4898437J-1383264D01*
G01*
X70401037Y-44383264D02*
G75*
G02*
X60603243Y-44380000I-4898437J1383264D01*
G01*
X70401037Y-44383264D02*
G75*
G03*
X70401957Y-41620000I-4898437J1383264D01*
G01*
D10*
%TO.C,TP9*%
X123400000Y-35000000D02*
G75*
G03*
X123400000Y-35000000I-1400000J0D01*
G01*
%TO.C,TP8*%
X86400000Y-68000000D02*
G75*
G03*
X86400000Y-68000000I-1400000J0D01*
G01*
%TO.C,TP7*%
X96400000Y-68000000D02*
G75*
G03*
X96400000Y-68000000I-1400000J0D01*
G01*
%TO.C,GND2*%
X134400000Y-89000000D02*
G75*
G03*
X134400000Y-89000000I-1400000J0D01*
G01*
%TO.C,TP5*%
X74400000Y-37000000D02*
G75*
G03*
X74400000Y-37000000I-1400000J0D01*
G01*
%TO.C,GND1*%
X111400000Y-89000000D02*
G75*
G03*
X111400000Y-89000000I-1400000J0D01*
G01*
%TO.C,TP3*%
X65400000Y-73000000D02*
G75*
G03*
X65400000Y-73000000I-1400000J0D01*
G01*
%TO.C,TP2*%
X67400000Y-61000000D02*
G75*
G03*
X67400000Y-61000000I-1400000J0D01*
G01*
%TO.C,TP1*%
X60152600Y-36000000D02*
G75*
G03*
X60152600Y-36000000I-1400000J0D01*
G01*
D12*
%TO.C,R2*%
X60040000Y-66540000D02*
X60370000Y-66540000D01*
X60370000Y-66540000D02*
X60370000Y-73080000D01*
X60370000Y-73080000D02*
X60040000Y-73080000D01*
X57960000Y-66540000D02*
X57630000Y-66540000D01*
X57630000Y-66540000D02*
X57630000Y-73080000D01*
X57630000Y-73080000D02*
X57960000Y-73080000D01*
%TO.C,J5*%
X71410000Y-67330000D02*
X71410000Y-64670000D01*
X66270000Y-67330000D02*
X71410000Y-67330000D01*
X66270000Y-64670000D02*
X71410000Y-64670000D01*
X66270000Y-67330000D02*
X66270000Y-64670000D01*
X65000000Y-67330000D02*
X63670000Y-67330000D01*
X63670000Y-67330000D02*
X63670000Y-66000000D01*
%TO.C,C2*%
X70912600Y-34690000D02*
X70912600Y-37310000D01*
X63592600Y-34690000D02*
X63592600Y-37310000D01*
X63592600Y-37310000D02*
X70912600Y-37310000D01*
X63592600Y-34690000D02*
X70912600Y-34690000D01*
%TO.C,R7*%
X112817000Y-51383800D02*
X112487000Y-51383800D01*
X112487000Y-51383800D02*
X112487000Y-44843800D01*
X112487000Y-44843800D02*
X112817000Y-44843800D01*
X114897000Y-51383800D02*
X115227000Y-51383800D01*
X115227000Y-51383800D02*
X115227000Y-44843800D01*
X115227000Y-44843800D02*
X114897000Y-44843800D01*
%TO.C,R6*%
X112817000Y-62383800D02*
X112487000Y-62383800D01*
X112487000Y-62383800D02*
X112487000Y-55843800D01*
X112487000Y-55843800D02*
X112817000Y-55843800D01*
X114897000Y-62383800D02*
X115227000Y-62383800D01*
X115227000Y-62383800D02*
X115227000Y-55843800D01*
X115227000Y-55843800D02*
X114897000Y-55843800D01*
%TO.C,R5*%
X115309400Y-37006400D02*
X115309400Y-37336400D01*
X115309400Y-37336400D02*
X108769400Y-37336400D01*
X108769400Y-37336400D02*
X108769400Y-37006400D01*
X115309400Y-34926400D02*
X115309400Y-34596400D01*
X115309400Y-34596400D02*
X108769400Y-34596400D01*
X108769400Y-34596400D02*
X108769400Y-34926400D01*
%TO.C,R4*%
X109897000Y-55463800D02*
X110227000Y-55463800D01*
X110227000Y-55463800D02*
X110227000Y-62003800D01*
X110227000Y-62003800D02*
X109897000Y-62003800D01*
X107817000Y-55463800D02*
X107487000Y-55463800D01*
X107487000Y-55463800D02*
X107487000Y-62003800D01*
X107487000Y-62003800D02*
X107817000Y-62003800D01*
%TO.C,R3*%
X109897000Y-44463800D02*
X110227000Y-44463800D01*
X110227000Y-44463800D02*
X110227000Y-51003800D01*
X110227000Y-51003800D02*
X109897000Y-51003800D01*
X107817000Y-44463800D02*
X107487000Y-44463800D01*
X107487000Y-44463800D02*
X107487000Y-51003800D01*
X107487000Y-51003800D02*
X107817000Y-51003800D01*
%TO.C,R1*%
X58792600Y-43540000D02*
X59122600Y-43540000D01*
X59122600Y-43540000D02*
X59122600Y-50080000D01*
X59122600Y-50080000D02*
X58792600Y-50080000D01*
X56712600Y-43540000D02*
X56382600Y-43540000D01*
X56382600Y-43540000D02*
X56382600Y-50080000D01*
X56382600Y-50080000D02*
X56712600Y-50080000D01*
%TO.C,Q2*%
X58250000Y-62700000D02*
X62100000Y-62700000D01*
X62138611Y-62690122D02*
G75*
G03*
X58250000Y-62700000I-1948611J1690122D01*
G01*
%TO.C,Q1*%
X60290000Y-51832000D02*
X70790000Y-51832000D01*
X60290000Y-56773000D02*
X70790000Y-56773000D01*
X60290000Y-51832000D02*
X60290000Y-56773000D01*
X70790000Y-51832000D02*
X70790000Y-56773000D01*
X60290000Y-54592000D02*
X61897000Y-54592000D01*
X64103000Y-54592000D02*
X64438000Y-54592000D01*
X66643000Y-54592000D02*
X66978000Y-54592000D01*
X69183000Y-54592000D02*
X70790000Y-54592000D01*
X63690000Y-51832000D02*
X63690000Y-53850000D01*
X67391000Y-51832000D02*
X67391000Y-53850000D01*
%TO.C,L1*%
X93580000Y-49000000D02*
G75*
G03*
X93580000Y-49000000I-2430000J0D01*
G01*
X106132550Y-50060000D02*
G75*
G02*
X76167450Y-50060000I-14982550J1060000D01*
G01*
X106132550Y-47940000D02*
G75*
G03*
X76167450Y-47940000I-14982550J-1060000D01*
G01*
%TO.C,BP1*%
X109987000Y-38593800D02*
X109987000Y-41253800D01*
X112587000Y-38593800D02*
X109987000Y-38593800D01*
X112587000Y-41253800D02*
X109987000Y-41253800D01*
X112587000Y-38593800D02*
X112587000Y-41253800D01*
X113857000Y-38593800D02*
X115187000Y-38593800D01*
X115187000Y-38593800D02*
X115187000Y-39923800D01*
%TO.C,J3*%
X88670000Y-95870000D02*
X91330000Y-95870000D01*
X88670000Y-93270000D02*
X88670000Y-95870000D01*
X91330000Y-93270000D02*
X91330000Y-95870000D01*
X88670000Y-93270000D02*
X91330000Y-93270000D01*
X88670000Y-92000000D02*
X88670000Y-90670000D01*
X88670000Y-90670000D02*
X90000000Y-90670000D01*
%TO.C,J7*%
D10*
X120088066Y-54467380D02*
X120088066Y-55181666D01*
X120040447Y-55324523D01*
X119945209Y-55419761D01*
X119802352Y-55467380D01*
X119707114Y-55467380D01*
X120469019Y-54467380D02*
X121135685Y-54467380D01*
X120707114Y-55467380D01*
%TO.C,D1*%
X69981104Y-47985780D02*
X69981104Y-46985780D01*
X70219200Y-46985780D01*
X70362057Y-47033400D01*
X70457295Y-47128638D01*
X70504914Y-47223876D01*
X70552533Y-47414352D01*
X70552533Y-47557209D01*
X70504914Y-47747685D01*
X70457295Y-47842923D01*
X70362057Y-47938161D01*
X70219200Y-47985780D01*
X69981104Y-47985780D01*
X71504914Y-47985780D02*
X70933485Y-47985780D01*
X71219200Y-47985780D02*
X71219200Y-46985780D01*
X71123961Y-47128638D01*
X71028723Y-47223876D01*
X70933485Y-47271495D01*
%TO.C,C3*%
X123829733Y-50190342D02*
X123782114Y-50237961D01*
X123639257Y-50285580D01*
X123544019Y-50285580D01*
X123401161Y-50237961D01*
X123305923Y-50142723D01*
X123258304Y-50047485D01*
X123210685Y-49857009D01*
X123210685Y-49714152D01*
X123258304Y-49523676D01*
X123305923Y-49428438D01*
X123401161Y-49333200D01*
X123544019Y-49285580D01*
X123639257Y-49285580D01*
X123782114Y-49333200D01*
X123829733Y-49380819D01*
X124163066Y-49285580D02*
X124782114Y-49285580D01*
X124448780Y-49666533D01*
X124591638Y-49666533D01*
X124686876Y-49714152D01*
X124734495Y-49761771D01*
X124782114Y-49857009D01*
X124782114Y-50095104D01*
X124734495Y-50190342D01*
X124686876Y-50237961D01*
X124591638Y-50285580D01*
X124305923Y-50285580D01*
X124210685Y-50237961D01*
X124163066Y-50190342D01*
%TO.C,V_OUT1*%
X126282980Y-49807847D02*
X127282980Y-49474514D01*
X126282980Y-49141180D01*
X127378219Y-49045942D02*
X127378219Y-48284038D01*
X126282980Y-47855466D02*
X126282980Y-47664990D01*
X126330600Y-47569752D01*
X126425838Y-47474514D01*
X126616314Y-47426895D01*
X126949647Y-47426895D01*
X127140123Y-47474514D01*
X127235361Y-47569752D01*
X127282980Y-47664990D01*
X127282980Y-47855466D01*
X127235361Y-47950704D01*
X127140123Y-48045942D01*
X126949647Y-48093561D01*
X126616314Y-48093561D01*
X126425838Y-48045942D01*
X126330600Y-47950704D01*
X126282980Y-47855466D01*
X126282980Y-46998323D02*
X127092504Y-46998323D01*
X127187742Y-46950704D01*
X127235361Y-46903085D01*
X127282980Y-46807847D01*
X127282980Y-46617371D01*
X127235361Y-46522133D01*
X127187742Y-46474514D01*
X127092504Y-46426895D01*
X126282980Y-46426895D01*
X126282980Y-46093561D02*
X126282980Y-45522133D01*
X127282980Y-45807847D02*
X126282980Y-45807847D01*
X127282980Y-44664990D02*
X127282980Y-45236419D01*
X127282980Y-44950704D02*
X126282980Y-44950704D01*
X126425838Y-45045942D01*
X126521076Y-45141180D01*
X126568695Y-45236419D01*
%TO.C,V_IN1*%
X40354780Y-48963380D02*
X41354780Y-48630047D01*
X40354780Y-48296714D01*
X41450019Y-48201476D02*
X41450019Y-47439571D01*
X41354780Y-47201476D02*
X40354780Y-47201476D01*
X41354780Y-46725285D02*
X40354780Y-46725285D01*
X41354780Y-46153857D01*
X40354780Y-46153857D01*
X41354780Y-45153857D02*
X41354780Y-45725285D01*
X41354780Y-45439571D02*
X40354780Y-45439571D01*
X40497638Y-45534809D01*
X40592876Y-45630047D01*
X40640495Y-45725285D01*
%TO.C,A1*%
X57110714Y-91716666D02*
X57586904Y-91716666D01*
X57015476Y-92002380D02*
X57348809Y-91002380D01*
X57682142Y-92002380D01*
X58539285Y-92002380D02*
X57967857Y-92002380D01*
X58253571Y-92002380D02*
X58253571Y-91002380D01*
X58158333Y-91145238D01*
X58063095Y-91240476D01*
X57967857Y-91288095D01*
%TO.C,C1*%
X71810933Y-42657142D02*
X71763314Y-42704761D01*
X71620457Y-42752380D01*
X71525219Y-42752380D01*
X71382361Y-42704761D01*
X71287123Y-42609523D01*
X71239504Y-42514285D01*
X71191885Y-42323809D01*
X71191885Y-42180952D01*
X71239504Y-41990476D01*
X71287123Y-41895238D01*
X71382361Y-41800000D01*
X71525219Y-41752380D01*
X71620457Y-41752380D01*
X71763314Y-41800000D01*
X71810933Y-41847619D01*
X72763314Y-42752380D02*
X72191885Y-42752380D01*
X72477600Y-42752380D02*
X72477600Y-41752380D01*
X72382361Y-41895238D01*
X72287123Y-41990476D01*
X72191885Y-42038095D01*
%TO.C,TP9*%
X117406895Y-32777180D02*
X117978323Y-32777180D01*
X117692609Y-33777180D02*
X117692609Y-32777180D01*
X118311657Y-33777180D02*
X118311657Y-32777180D01*
X118692609Y-32777180D01*
X118787847Y-32824800D01*
X118835466Y-32872419D01*
X118883085Y-32967657D01*
X118883085Y-33110514D01*
X118835466Y-33205752D01*
X118787847Y-33253371D01*
X118692609Y-33300990D01*
X118311657Y-33300990D01*
X119359276Y-33777180D02*
X119549752Y-33777180D01*
X119644990Y-33729561D01*
X119692609Y-33681942D01*
X119787847Y-33539085D01*
X119835466Y-33348609D01*
X119835466Y-32967657D01*
X119787847Y-32872419D01*
X119740228Y-32824800D01*
X119644990Y-32777180D01*
X119454514Y-32777180D01*
X119359276Y-32824800D01*
X119311657Y-32872419D01*
X119264038Y-32967657D01*
X119264038Y-33205752D01*
X119311657Y-33300990D01*
X119359276Y-33348609D01*
X119454514Y-33396228D01*
X119644990Y-33396228D01*
X119740228Y-33348609D01*
X119787847Y-33300990D01*
X119835466Y-33205752D01*
%TO.C,TP8*%
X83738095Y-64952380D02*
X84309523Y-64952380D01*
X84023809Y-65952380D02*
X84023809Y-64952380D01*
X84642857Y-65952380D02*
X84642857Y-64952380D01*
X85023809Y-64952380D01*
X85119047Y-65000000D01*
X85166666Y-65047619D01*
X85214285Y-65142857D01*
X85214285Y-65285714D01*
X85166666Y-65380952D01*
X85119047Y-65428571D01*
X85023809Y-65476190D01*
X84642857Y-65476190D01*
X85785714Y-65380952D02*
X85690476Y-65333333D01*
X85642857Y-65285714D01*
X85595238Y-65190476D01*
X85595238Y-65142857D01*
X85642857Y-65047619D01*
X85690476Y-65000000D01*
X85785714Y-64952380D01*
X85976190Y-64952380D01*
X86071428Y-65000000D01*
X86119047Y-65047619D01*
X86166666Y-65142857D01*
X86166666Y-65190476D01*
X86119047Y-65285714D01*
X86071428Y-65333333D01*
X85976190Y-65380952D01*
X85785714Y-65380952D01*
X85690476Y-65428571D01*
X85642857Y-65476190D01*
X85595238Y-65571428D01*
X85595238Y-65761904D01*
X85642857Y-65857142D01*
X85690476Y-65904761D01*
X85785714Y-65952380D01*
X85976190Y-65952380D01*
X86071428Y-65904761D01*
X86119047Y-65857142D01*
X86166666Y-65761904D01*
X86166666Y-65571428D01*
X86119047Y-65476190D01*
X86071428Y-65428571D01*
X85976190Y-65380952D01*
%TO.C,TP7*%
X93738095Y-64952380D02*
X94309523Y-64952380D01*
X94023809Y-65952380D02*
X94023809Y-64952380D01*
X94642857Y-65952380D02*
X94642857Y-64952380D01*
X95023809Y-64952380D01*
X95119047Y-65000000D01*
X95166666Y-65047619D01*
X95214285Y-65142857D01*
X95214285Y-65285714D01*
X95166666Y-65380952D01*
X95119047Y-65428571D01*
X95023809Y-65476190D01*
X94642857Y-65476190D01*
X95547619Y-64952380D02*
X96214285Y-64952380D01*
X95785714Y-65952380D01*
%TO.C,GND2*%
X131761904Y-86000000D02*
X131666666Y-85952380D01*
X131523809Y-85952380D01*
X131380952Y-86000000D01*
X131285714Y-86095238D01*
X131238095Y-86190476D01*
X131190476Y-86380952D01*
X131190476Y-86523809D01*
X131238095Y-86714285D01*
X131285714Y-86809523D01*
X131380952Y-86904761D01*
X131523809Y-86952380D01*
X131619047Y-86952380D01*
X131761904Y-86904761D01*
X131809523Y-86857142D01*
X131809523Y-86523809D01*
X131619047Y-86523809D01*
X132238095Y-86952380D02*
X132238095Y-85952380D01*
X132809523Y-86952380D01*
X132809523Y-85952380D01*
X133285714Y-86952380D02*
X133285714Y-85952380D01*
X133523809Y-85952380D01*
X133666666Y-86000000D01*
X133761904Y-86095238D01*
X133809523Y-86190476D01*
X133857142Y-86380952D01*
X133857142Y-86523809D01*
X133809523Y-86714285D01*
X133761904Y-86809523D01*
X133666666Y-86904761D01*
X133523809Y-86952380D01*
X133285714Y-86952380D01*
X134238095Y-86047619D02*
X134285714Y-86000000D01*
X134380952Y-85952380D01*
X134619047Y-85952380D01*
X134714285Y-86000000D01*
X134761904Y-86047619D01*
X134809523Y-86142857D01*
X134809523Y-86238095D01*
X134761904Y-86380952D01*
X134190476Y-86952380D01*
X134809523Y-86952380D01*
%TO.C,TP5*%
X71738095Y-33952380D02*
X72309523Y-33952380D01*
X72023809Y-34952380D02*
X72023809Y-33952380D01*
X72642857Y-34952380D02*
X72642857Y-33952380D01*
X73023809Y-33952380D01*
X73119047Y-34000000D01*
X73166666Y-34047619D01*
X73214285Y-34142857D01*
X73214285Y-34285714D01*
X73166666Y-34380952D01*
X73119047Y-34428571D01*
X73023809Y-34476190D01*
X72642857Y-34476190D01*
X74119047Y-33952380D02*
X73642857Y-33952380D01*
X73595238Y-34428571D01*
X73642857Y-34380952D01*
X73738095Y-34333333D01*
X73976190Y-34333333D01*
X74071428Y-34380952D01*
X74119047Y-34428571D01*
X74166666Y-34523809D01*
X74166666Y-34761904D01*
X74119047Y-34857142D01*
X74071428Y-34904761D01*
X73976190Y-34952380D01*
X73738095Y-34952380D01*
X73642857Y-34904761D01*
X73595238Y-34857142D01*
%TO.C,GND1*%
X108761904Y-86000000D02*
X108666666Y-85952380D01*
X108523809Y-85952380D01*
X108380952Y-86000000D01*
X108285714Y-86095238D01*
X108238095Y-86190476D01*
X108190476Y-86380952D01*
X108190476Y-86523809D01*
X108238095Y-86714285D01*
X108285714Y-86809523D01*
X108380952Y-86904761D01*
X108523809Y-86952380D01*
X108619047Y-86952380D01*
X108761904Y-86904761D01*
X108809523Y-86857142D01*
X108809523Y-86523809D01*
X108619047Y-86523809D01*
X109238095Y-86952380D02*
X109238095Y-85952380D01*
X109809523Y-86952380D01*
X109809523Y-85952380D01*
X110285714Y-86952380D02*
X110285714Y-85952380D01*
X110523809Y-85952380D01*
X110666666Y-86000000D01*
X110761904Y-86095238D01*
X110809523Y-86190476D01*
X110857142Y-86380952D01*
X110857142Y-86523809D01*
X110809523Y-86714285D01*
X110761904Y-86809523D01*
X110666666Y-86904761D01*
X110523809Y-86952380D01*
X110285714Y-86952380D01*
X111809523Y-86952380D02*
X111238095Y-86952380D01*
X111523809Y-86952380D02*
X111523809Y-85952380D01*
X111428571Y-86095238D01*
X111333333Y-86190476D01*
X111238095Y-86238095D01*
%TO.C,TP3*%
X62738095Y-69952380D02*
X63309523Y-69952380D01*
X63023809Y-70952380D02*
X63023809Y-69952380D01*
X63642857Y-70952380D02*
X63642857Y-69952380D01*
X64023809Y-69952380D01*
X64119047Y-70000000D01*
X64166666Y-70047619D01*
X64214285Y-70142857D01*
X64214285Y-70285714D01*
X64166666Y-70380952D01*
X64119047Y-70428571D01*
X64023809Y-70476190D01*
X63642857Y-70476190D01*
X64547619Y-69952380D02*
X65166666Y-69952380D01*
X64833333Y-70333333D01*
X64976190Y-70333333D01*
X65071428Y-70380952D01*
X65119047Y-70428571D01*
X65166666Y-70523809D01*
X65166666Y-70761904D01*
X65119047Y-70857142D01*
X65071428Y-70904761D01*
X64976190Y-70952380D01*
X64690476Y-70952380D01*
X64595238Y-70904761D01*
X64547619Y-70857142D01*
%TO.C,TP2*%
X64738095Y-57952380D02*
X65309523Y-57952380D01*
X65023809Y-58952380D02*
X65023809Y-57952380D01*
X65642857Y-58952380D02*
X65642857Y-57952380D01*
X66023809Y-57952380D01*
X66119047Y-58000000D01*
X66166666Y-58047619D01*
X66214285Y-58142857D01*
X66214285Y-58285714D01*
X66166666Y-58380952D01*
X66119047Y-58428571D01*
X66023809Y-58476190D01*
X65642857Y-58476190D01*
X66595238Y-58047619D02*
X66642857Y-58000000D01*
X66738095Y-57952380D01*
X66976190Y-57952380D01*
X67071428Y-58000000D01*
X67119047Y-58047619D01*
X67166666Y-58142857D01*
X67166666Y-58238095D01*
X67119047Y-58380952D01*
X66547619Y-58952380D01*
X67166666Y-58952380D01*
%TO.C,TP1*%
X59190095Y-33031180D02*
X59761523Y-33031180D01*
X59475809Y-34031180D02*
X59475809Y-33031180D01*
X60094857Y-34031180D02*
X60094857Y-33031180D01*
X60475809Y-33031180D01*
X60571047Y-33078800D01*
X60618666Y-33126419D01*
X60666285Y-33221657D01*
X60666285Y-33364514D01*
X60618666Y-33459752D01*
X60571047Y-33507371D01*
X60475809Y-33554990D01*
X60094857Y-33554990D01*
X61618666Y-34031180D02*
X61047238Y-34031180D01*
X61332952Y-34031180D02*
X61332952Y-33031180D01*
X61237714Y-33174038D01*
X61142476Y-33269276D01*
X61047238Y-33316895D01*
%TO.C,R2*%
X55808333Y-70202380D02*
X55475000Y-69726190D01*
X55236904Y-70202380D02*
X55236904Y-69202380D01*
X55617857Y-69202380D01*
X55713095Y-69250000D01*
X55760714Y-69297619D01*
X55808333Y-69392857D01*
X55808333Y-69535714D01*
X55760714Y-69630952D01*
X55713095Y-69678571D01*
X55617857Y-69726190D01*
X55236904Y-69726190D01*
X56189285Y-69297619D02*
X56236904Y-69250000D01*
X56332142Y-69202380D01*
X56570238Y-69202380D01*
X56665476Y-69250000D01*
X56713095Y-69297619D01*
X56760714Y-69392857D01*
X56760714Y-69488095D01*
X56713095Y-69630952D01*
X56141666Y-70202380D01*
X56760714Y-70202380D01*
%TO.C,J5*%
X68191666Y-62702380D02*
X68191666Y-63416666D01*
X68144047Y-63559523D01*
X68048809Y-63654761D01*
X67905952Y-63702380D01*
X67810714Y-63702380D01*
X69144047Y-62702380D02*
X68667857Y-62702380D01*
X68620238Y-63178571D01*
X68667857Y-63130952D01*
X68763095Y-63083333D01*
X69001190Y-63083333D01*
X69096428Y-63130952D01*
X69144047Y-63178571D01*
X69191666Y-63273809D01*
X69191666Y-63511904D01*
X69144047Y-63607142D01*
X69096428Y-63654761D01*
X69001190Y-63702380D01*
X68763095Y-63702380D01*
X68667857Y-63654761D01*
X68620238Y-63607142D01*
%TO.C,C2*%
X67085933Y-33797142D02*
X67038314Y-33844761D01*
X66895457Y-33892380D01*
X66800219Y-33892380D01*
X66657361Y-33844761D01*
X66562123Y-33749523D01*
X66514504Y-33654285D01*
X66466885Y-33463809D01*
X66466885Y-33320952D01*
X66514504Y-33130476D01*
X66562123Y-33035238D01*
X66657361Y-32940000D01*
X66800219Y-32892380D01*
X66895457Y-32892380D01*
X67038314Y-32940000D01*
X67085933Y-32987619D01*
X67466885Y-32987619D02*
X67514504Y-32940000D01*
X67609742Y-32892380D01*
X67847838Y-32892380D01*
X67943076Y-32940000D01*
X67990695Y-32987619D01*
X68038314Y-33082857D01*
X68038314Y-33178095D01*
X67990695Y-33320952D01*
X67419266Y-33892380D01*
X68038314Y-33892380D01*
%TO.C,R7*%
X116690333Y-51376180D02*
X116357000Y-50899990D01*
X116118904Y-51376180D02*
X116118904Y-50376180D01*
X116499857Y-50376180D01*
X116595095Y-50423800D01*
X116642714Y-50471419D01*
X116690333Y-50566657D01*
X116690333Y-50709514D01*
X116642714Y-50804752D01*
X116595095Y-50852371D01*
X116499857Y-50899990D01*
X116118904Y-50899990D01*
X117023666Y-50376180D02*
X117690333Y-50376180D01*
X117261761Y-51376180D01*
%TO.C,R6*%
X116690333Y-61376180D02*
X116357000Y-60899990D01*
X116118904Y-61376180D02*
X116118904Y-60376180D01*
X116499857Y-60376180D01*
X116595095Y-60423800D01*
X116642714Y-60471419D01*
X116690333Y-60566657D01*
X116690333Y-60709514D01*
X116642714Y-60804752D01*
X116595095Y-60852371D01*
X116499857Y-60899990D01*
X116118904Y-60899990D01*
X117547476Y-60376180D02*
X117357000Y-60376180D01*
X117261761Y-60423800D01*
X117214142Y-60471419D01*
X117118904Y-60614276D01*
X117071285Y-60804752D01*
X117071285Y-61185704D01*
X117118904Y-61280942D01*
X117166523Y-61328561D01*
X117261761Y-61376180D01*
X117452238Y-61376180D01*
X117547476Y-61328561D01*
X117595095Y-61280942D01*
X117642714Y-61185704D01*
X117642714Y-60947609D01*
X117595095Y-60852371D01*
X117547476Y-60804752D01*
X117452238Y-60757133D01*
X117261761Y-60757133D01*
X117166523Y-60804752D01*
X117118904Y-60852371D01*
X117071285Y-60947609D01*
%TO.C,R5*%
X111872733Y-33418780D02*
X111539400Y-32942590D01*
X111301304Y-33418780D02*
X111301304Y-32418780D01*
X111682257Y-32418780D01*
X111777495Y-32466400D01*
X111825114Y-32514019D01*
X111872733Y-32609257D01*
X111872733Y-32752114D01*
X111825114Y-32847352D01*
X111777495Y-32894971D01*
X111682257Y-32942590D01*
X111301304Y-32942590D01*
X112777495Y-32418780D02*
X112301304Y-32418780D01*
X112253685Y-32894971D01*
X112301304Y-32847352D01*
X112396542Y-32799733D01*
X112634638Y-32799733D01*
X112729876Y-32847352D01*
X112777495Y-32894971D01*
X112825114Y-32990209D01*
X112825114Y-33228304D01*
X112777495Y-33323542D01*
X112729876Y-33371161D01*
X112634638Y-33418780D01*
X112396542Y-33418780D01*
X112301304Y-33371161D01*
X112253685Y-33323542D01*
%TO.C,R4*%
X106015333Y-61101180D02*
X105682000Y-60624990D01*
X105443904Y-61101180D02*
X105443904Y-60101180D01*
X105824857Y-60101180D01*
X105920095Y-60148800D01*
X105967714Y-60196419D01*
X106015333Y-60291657D01*
X106015333Y-60434514D01*
X105967714Y-60529752D01*
X105920095Y-60577371D01*
X105824857Y-60624990D01*
X105443904Y-60624990D01*
X106872476Y-60434514D02*
X106872476Y-61101180D01*
X106634380Y-60053561D02*
X106396285Y-60767847D01*
X107015333Y-60767847D01*
%TO.C,R3*%
X106564133Y-42438580D02*
X106230800Y-41962390D01*
X105992704Y-42438580D02*
X105992704Y-41438580D01*
X106373657Y-41438580D01*
X106468895Y-41486200D01*
X106516514Y-41533819D01*
X106564133Y-41629057D01*
X106564133Y-41771914D01*
X106516514Y-41867152D01*
X106468895Y-41914771D01*
X106373657Y-41962390D01*
X105992704Y-41962390D01*
X106897466Y-41438580D02*
X107516514Y-41438580D01*
X107183180Y-41819533D01*
X107326038Y-41819533D01*
X107421276Y-41867152D01*
X107468895Y-41914771D01*
X107516514Y-42010009D01*
X107516514Y-42248104D01*
X107468895Y-42343342D01*
X107421276Y-42390961D01*
X107326038Y-42438580D01*
X107040323Y-42438580D01*
X106945085Y-42390961D01*
X106897466Y-42343342D01*
%TO.C,R1*%
X60310933Y-47402380D02*
X59977600Y-46926190D01*
X59739504Y-47402380D02*
X59739504Y-46402380D01*
X60120457Y-46402380D01*
X60215695Y-46450000D01*
X60263314Y-46497619D01*
X60310933Y-46592857D01*
X60310933Y-46735714D01*
X60263314Y-46830952D01*
X60215695Y-46878571D01*
X60120457Y-46926190D01*
X59739504Y-46926190D01*
X61263314Y-47402380D02*
X60691885Y-47402380D01*
X60977600Y-47402380D02*
X60977600Y-46402380D01*
X60882361Y-46545238D01*
X60787123Y-46640476D01*
X60691885Y-46688095D01*
%TO.C,Q2*%
X57229761Y-58672619D02*
X57134523Y-58625000D01*
X57039285Y-58529761D01*
X56896428Y-58386904D01*
X56801190Y-58339285D01*
X56705952Y-58339285D01*
X56753571Y-58577380D02*
X56658333Y-58529761D01*
X56563095Y-58434523D01*
X56515476Y-58244047D01*
X56515476Y-57910714D01*
X56563095Y-57720238D01*
X56658333Y-57625000D01*
X56753571Y-57577380D01*
X56944047Y-57577380D01*
X57039285Y-57625000D01*
X57134523Y-57720238D01*
X57182142Y-57910714D01*
X57182142Y-58244047D01*
X57134523Y-58434523D01*
X57039285Y-58529761D01*
X56944047Y-58577380D01*
X56753571Y-58577380D01*
X57563095Y-57672619D02*
X57610714Y-57625000D01*
X57705952Y-57577380D01*
X57944047Y-57577380D01*
X58039285Y-57625000D01*
X58086904Y-57672619D01*
X58134523Y-57767857D01*
X58134523Y-57863095D01*
X58086904Y-58005952D01*
X57515476Y-58577380D01*
X58134523Y-58577380D01*
%TO.C,Q1*%
X65444761Y-51380119D02*
X65349523Y-51332500D01*
X65254285Y-51237261D01*
X65111428Y-51094404D01*
X65016190Y-51046785D01*
X64920952Y-51046785D01*
X64968571Y-51284880D02*
X64873333Y-51237261D01*
X64778095Y-51142023D01*
X64730476Y-50951547D01*
X64730476Y-50618214D01*
X64778095Y-50427738D01*
X64873333Y-50332500D01*
X64968571Y-50284880D01*
X65159047Y-50284880D01*
X65254285Y-50332500D01*
X65349523Y-50427738D01*
X65397142Y-50618214D01*
X65397142Y-50951547D01*
X65349523Y-51142023D01*
X65254285Y-51237261D01*
X65159047Y-51284880D01*
X64968571Y-51284880D01*
X66349523Y-51284880D02*
X65778095Y-51284880D01*
X66063809Y-51284880D02*
X66063809Y-50284880D01*
X65968571Y-50427738D01*
X65873333Y-50522976D01*
X65778095Y-50570595D01*
%TO.C,L1*%
X82608333Y-33527380D02*
X82132142Y-33527380D01*
X82132142Y-32527380D01*
X83465476Y-33527380D02*
X82894047Y-33527380D01*
X83179761Y-33527380D02*
X83179761Y-32527380D01*
X83084523Y-32670238D01*
X82989285Y-32765476D01*
X82894047Y-32813095D01*
%TO.C,BP1*%
X107299238Y-39679571D02*
X107442095Y-39727190D01*
X107489714Y-39774809D01*
X107537333Y-39870047D01*
X107537333Y-40012904D01*
X107489714Y-40108142D01*
X107442095Y-40155761D01*
X107346857Y-40203380D01*
X106965904Y-40203380D01*
X106965904Y-39203380D01*
X107299238Y-39203380D01*
X107394476Y-39251000D01*
X107442095Y-39298619D01*
X107489714Y-39393857D01*
X107489714Y-39489095D01*
X107442095Y-39584333D01*
X107394476Y-39631952D01*
X107299238Y-39679571D01*
X106965904Y-39679571D01*
X107965904Y-40203380D02*
X107965904Y-39203380D01*
X108346857Y-39203380D01*
X108442095Y-39251000D01*
X108489714Y-39298619D01*
X108537333Y-39393857D01*
X108537333Y-39536714D01*
X108489714Y-39631952D01*
X108442095Y-39679571D01*
X108346857Y-39727190D01*
X107965904Y-39727190D01*
X109489714Y-40203380D02*
X108918285Y-40203380D01*
X109204000Y-40203380D02*
X109204000Y-39203380D01*
X109108761Y-39346238D01*
X109013523Y-39441476D01*
X108918285Y-39489095D01*
%TO.C,J3*%
X89666666Y-89122380D02*
X89666666Y-89836666D01*
X89619047Y-89979523D01*
X89523809Y-90074761D01*
X89380952Y-90122380D01*
X89285714Y-90122380D01*
X90047619Y-89122380D02*
X90666666Y-89122380D01*
X90333333Y-89503333D01*
X90476190Y-89503333D01*
X90571428Y-89550952D01*
X90619047Y-89598571D01*
X90666666Y-89693809D01*
X90666666Y-89931904D01*
X90619047Y-90027142D01*
X90571428Y-90074761D01*
X90476190Y-90122380D01*
X90190476Y-90122380D01*
X90095238Y-90074761D01*
X90047619Y-90027142D01*
%TD*%
M02*
