M48
; DRILL file {KiCad 5.1.6+dfsg1-1} date Sun Mar  7 16:20:13 2021
; FORMAT={-:-/ absolute / inch / decimal}
; #@! TF.CreationDate,2021-03-07T16:20:13-08:00
; #@! TF.GenerationSoftware,Kicad,Pcbnew,5.1.6+dfsg1-1
; #@! TF.FileFunction,Plated,1,2,PTH
FMAT,2
INCH
T1C0.0157
T2C0.0295
T3C0.0315
T4C0.0394
T5C0.0472
T6C0.2402
%
G90
G05
T1
X2.495Y-2.067
X2.575Y-1.955
X2.724Y-3.364
X2.972Y-2.692
X3.133Y-2.818
X3.36Y-3.489
X3.539Y-2.822
X3.735Y-3.506
X4.15Y-2.675
X4.39Y-2.578
T2
X2.3228Y-2.4016
X2.3728Y-2.4016
X2.4228Y-2.4016
T3
X3.0315Y-1.9291
X4.1457Y-1.9291
X4.261Y-1.416
X4.561Y-1.416
X4.2857Y-1.7293
X4.2857Y-2.0293
X2.5493Y-1.4173
X2.7462Y-1.4173
X4.741Y-1.708
X4.741Y-1.9049
X2.2737Y-1.6929
X2.2737Y-1.9929
X4.4826Y-1.7442
X4.4826Y-2.0442
X2.3228Y-2.5984
X2.3228Y-2.8984
X4.2857Y-2.1624
X4.2857Y-2.4624
X4.4826Y-2.1773
X4.4826Y-2.4773
T4
X3.7402Y-2.6772
X3.3465Y-2.6772
X4.8031Y-1.378
X4.3307Y-3.5039
X2.3131Y-1.4173
X3.5433Y-3.622
X3.5433Y-3.722
X2.5984Y-2.4016
X2.5197Y-2.874
X1.8677Y-3.1102
X1.8677Y-3.7102
X1.9677Y-3.1102
X1.9677Y-3.7102
X2.0677Y-3.1102
X2.0677Y-3.7102
X2.1677Y-3.1102
X2.1677Y-3.7102
X2.2677Y-3.1102
X2.2677Y-3.7102
X2.3677Y-3.1102
X2.3677Y-3.7102
X2.4677Y-3.1102
X2.4677Y-3.7102
X2.5677Y-3.1102
X2.5677Y-3.7102
X2.6677Y-3.1102
X2.6677Y-3.7102
X2.7677Y-3.1102
X2.7677Y-3.7102
X2.8677Y-3.1102
X2.8677Y-3.7102
X2.9677Y-3.1102
X2.9677Y-3.7102
X3.0677Y-3.1102
X3.0677Y-3.7102
X3.1677Y-3.1102
X3.1677Y-3.7102
X3.2677Y-3.1102
X3.2677Y-3.7102
X2.874Y-1.4567
X4.3826Y-1.5718
X4.4826Y-1.5718
X2.4312Y-1.6929
X2.7265Y-1.6929
X4.741Y-2.275
X4.741Y-2.375
X2.5591Y-2.5984
X2.6591Y-2.5984
X2.7591Y-2.5984
X5.2362Y-3.5039
T5
X2.4803Y-2.1654
X2.5803Y-2.1654
X2.6803Y-2.1654
T6
X1.856Y-1.49
X1.856Y-2.24
X5.239Y-1.497
X5.239Y-2.247
T0
M30
